<?xml version="1.0" encoding="utf-8"?>
<!-- Generator: Adobe Illustrator 20.1.0, SVG Export Plug-In . SVG Version: 6.00 Build 0)  -->
<svg version="1.2" baseProfile="tiny" id="Layer_2" xmlns="http://www.w3.org/2000/svg" xmlns:xlink="http://www.w3.org/1999/xlink"
	 x="0px" y="0px" viewBox="0 0 900 600" xml:space="preserve">
<g>
	<path d="M571.7,7c0.6,0.2,1.2,0.2,1.7,0.5c2.8,1.6,5.2,3.7,7.3,6.2c3.8,4.6,6.7,9.8,8.2,15.6c1.7,6.2,2.4,12.6,1.8,19
		c-0.1,0.6,0,1.1,0,1.9c2.1,0.3,4.1,0.4,6.1,0.3c2.1-0.1,3.9,0.3,4.2,2.9c1-0.3,1.7-0.6,2.4-0.6c2,0.1,3.3,1.2,3.8,3.2
		c0.2,0.8,0.2,1.6,0.3,2.5c1.1,0.6,2.3,1.1,3.2,1.9c0.9,0.9,1.4,2.1,2.1,3.3c9.8,3.3,19.8,6.3,29.9,8.9c6.7,1.7,13.3,3.4,20,5.2
		c3.2,0.9,6.4,1.8,9.6,2.8c0.9,0.3,1.8,0.3,2.8,0.1c1.8-0.4,3.7-0.5,5.9-0.8c3.4,1.2,6.8,3,10.2,5.4c0.4-0.7,0.7-1.3,1-1.9
		c1.2-2.9,2.9-5.5,4.6-8c2.9-4.1,6.5-7.6,10.8-10.3c7.1-4.4,14.7-6.4,23.1-5c1.6,0.3,3.3,0.2,4.9,0.6c14.9,3.9,24.8,13,28.6,28.2
		c1.3,5.1,1.8,10.3,1,15.5c-0.1,0.6-0.1,1.2-0.1,2c0.7,0.3,1.4,0.8,2.1,1c3.1,0.9,6.2,1.7,9.3,2.5c0.8,0.2,1.7,0.5,2.2,1
		c1.8,1.8,2.9,4.2-0.3,6.6c-0.5,0.4-1,0.7-1.5,1.1c-4.6-0.8-9-2.7-13.9-3.4c-0.5,1.2-1,2.2-1.5,3.3c-2.3,5.2-5.2,9.8-9.2,13.9
		c-4.5,4.6-9.9,7.7-16,9.7c-4.7,1.6-9.4,1.1-14.1,0.2c-4.2-0.8-8.2-2.3-12.2-3.8c-5.3-1.9-9.8-5.2-13.5-9.6c-0.5-0.6-1-1.2-1.6-1.8
		c-0.9,0.4-0.6,1-0.7,1.5c-0.2,3.1-0.5,6.2-0.6,9.2c-0.1,2.3-0.1,4.5,0.1,6.8c0.3,2.3,0.2,4.5-0.2,6.7c-0.9,4.8-2.1,9.5-4.9,13.6
		c-2,2.9-1.9,6.2-1.1,9.3c1.5,6.3,1,12.5,0.1,18.7c-0.2,1.4-0.4,2.8-0.7,4.2c-0.5,2.6-0.7,5.3-1.8,7.6c-1.2,2.3-1.9,4.9-3.4,7
		c-2,3-2.6,6.3-3,9.7c-0.4,2.9-0.8,5.9-0.2,8.9c0.4,1.9-0.1,3.8-0.8,5.6c-0.1,0.3-0.7,0.4-1.1,0.6c-0.1-0.7-0.4-1.4-0.4-2
		c0.1-3,0.4-5.9,0.4-8.9c-0.1-2.9,0-5.7,1.2-8.4c0.1-0.3,0.3-0.7,0.2-1c-0.2-1.9,0.8-3.4,1.6-4.9c2.5-4.5,4.6-9.1,5.1-14.3
		c0.3-3.2,1.1-6.3,1.5-9.5c0.3-2.3,0.7-4.8,0.3-7.1c-0.8-4-0.8-8-0.6-12.1c0-1.2,0.2-2.3,0.8-3.4c3.9-7.8,5.7-16.1,5.6-24.8
		c0-0.6-0.1-1.2,0.1-1.8c0.5-2,0.2-4,0.2-6c-0.1-4.6-0.1-9.3-0.1-13.9c0-2.7,0.2-5.5-0.1-8.2c-0.2-1.5-0.3-3.1-0.2-4.6
		c0.1-3,0.2-5.9,0.4-9.2c-0.8-0.8-1.7-1.6-2.3-2.2c-2-0.6-4,0-5.5-1.3c-0.5-1.4-0.7-3.1-1.5-4.3c-0.9-1.3-2.4-2.2-3.7-3.3
		c-0.1-0.7-0.2-1.6-0.4-2.4c-0.1-0.3-0.3-0.6-0.5-0.8c-1.7-0.1-1.7-0.1-2.8,0.4c-0.6,2.1-1.1,4-1.7,5.9c-0.4,1.1-1.1,1.8-2.3,2
		c-0.4,0.1-0.8,0.3-1.1,0.4c-0.2,1.5,0.5,2.2,1.5,2.7c1.9,0.9,3.8,1.9,5.2,3.6c0.8,0.9,1.5,1.8,2.3,2.7c0.5,2,0.4,3.9,0.1,6
		c-0.9,4.8-1.5,9.6-2.3,14.4c-0.2,1.5-0.5,3.1-0.9,4.5c-1,3.8-2,7.7-4.4,10.8c-1.8,2.4-2.4,5.1-2.7,8c-0.1,1.2,0,2.4,0,3.5
		c0.5,0.5,0.9,0.9,1.5,1.4c-0.3,0.5-0.7,0.9-1.2,1.7c1-0.3,1.8-0.4,2.6-0.7c1.2-0.3,2.1,0.2,2.6,1.3c-0.1,1-0.5,2.1-0.3,3.1
		c0.3,1.4-0.9,2.1-1,3.3c-2.2,0.7-4.5,1.4-6.9,2.2c0.1,1,0,1.9,0.2,2.8c0.3,1.4,0.7,2.8,1.2,4.1c0.5,1.2,0.7,2.5,0.7,3.8
		c0,1.4-1.3,1.9-1.5,3.3c1,2.2,2,4.6,3.1,7c1.1,2.4,1.6,3.6-1.2,5.4c-0.2,0.1-0.2,0.4-0.4,0.7c0.1,0.6,0.4,1.4,0.2,2
		c-0.2,0.7-0.9,1.3-1.4,1.9c0.9,1.3,0.9,2.8,0.1,4c-0.8,1.3-0.6,2.3-0.4,3.7c0.6,3.5-1.9,6.2-5.6,6.1c-1.2,0-2.3-0.2-3.5-0.3
		c-1.1-0.1-2.1,0-3.1,0.6c0.3,4.2-0.5,8.3,0.6,12.4c0.1,0.6,0,1.2-0.9,1.2c-0.3-0.6-0.7-1.2-0.9-1.9c-0.3-1-0.5-2.1-0.6-3.1
		c-0.3-1.8-0.3-1.8-1.6-3.5c0.5-2.4,0.3-5,1.3-7.3c1.5-0.5,2.8-0.3,4.1,0c2.3,0.6,4.7,0.6,7-0.1c1.2-0.4,1.8-1.1,1.9-2.3
		c0.1-0.7,0-1.4-0.1-2.1c-0.3-1.6-0.3-3,0.7-4.4c0.3-0.3,0.3-0.9,0.4-1.4c-0.6-0.4-0.9-1.2-1.8-0.8c-0.3,0.2-0.6,0.4-0.9,0.5
		c-0.7,0.3-1.1,0.1-1.1-0.7c1.3-1.2,3.6-0.7,4.5-2.8c-0.1-0.6-0.3-1.4-0.4-2.2c-1.3,0-2.5,0.1-3.1-1.2c-0.1-0.2-0.2-0.6-0.1-0.7
		c0.2-0.2,0.7-0.5,0.8-0.4c1.2,0.9,2.5,0.4,3.8,0.5c0.8,0,1.5-1,1.3-1.8c-0.2-0.6-0.4-1.1-0.6-1.7c-0.9-1.8-1.8-3.6-2.8-5.4
		c-0.8-1.5-1.1-2.9,0.1-4.3c1.1-1.3,0.8-2.6,0.4-4c-0.8-2.6-1.4-5.2-2.2-8c-0.3-0.3-0.8-0.8-1.3-1.3c0.8,0.1,1.7,0.4,2.4,0.1
		c1.8-0.6,3.6-1.5,5.4-2.3c0.1-0.1,0.2-0.4,0.2-0.6c0.5,0.1,0.7-0.2,0.7-0.7c0.2-0.1,0.4-0.2,0.5-0.3c0-0.1-0.1-0.3-0.2-0.5
		c-0.1,0.1-0.1,0.2-0.2,0.3c0,0.2,0,0.4,0,0.6c-0.5-0.1-0.8,0.1-0.8,0.7c-1.4,0.5-2.9,1.1-4.3,1.3c-1.3,0.2-2.4,0.9-3.6,1.5
		c-1.4,0.3-2.9,0.6-4.4,0.9c0.3,0.5,0.5,0.8,0.6,1.1c-1.4,1.7-3.3,0.7-5.3,1c-0.6,2-2.5,3-4.1,4.4c-2.1,1.9-4.1,3.9-6,5.9
		c-1.8,1.9-3,4.2-3.2,6.9c0.3,0.9,0.6,1.8,1,2.6l0.1-0.1c-0.7-0.1-1.3-0.1-1.9-0.1c-0.6,0.3-0.2,1.3-1.4,1.2
		c-0.5-1.1-1.2-2.4-1.7-3.7c-0.5-1.2-1.3-2.2-2.2-3c0.1,0,0.2-0.1,0.3-0.1c0,0,0.1-0.1,0.1-0.2c-0.1,0.1-0.2,0.3-0.3,0.4
		c-0.8-0.1-1.7-0.3-2.8-0.5c1.3,1.4,2.3,2.5,3.3,3.6c-0.4,0.2-0.6,0.2-0.8,0.4c-1.1,0.7-1.2,1.6-0.4,2.2c0.4,0.3,0.8,0.4,1.2,0.6
		c0.6,0.3,1,0.8,0.7,1.4c-0.2,0.4-0.8,0.8-1.3,0.9c-0.6,0.1-1.3-0.1-1.9-0.2c-0.7-2.2-0.3-4.2,0.4-6c-0.7-0.6-1.2-1-1.8-1.6
		c-0.4,0.8-0.6,1.4-0.8,1.9c0.5,1.5,1.9,2.6,0.8,4.2c-0.7-0.9-0.6-2.4-2.3-2.7c-0.1,0.7-0.1,1.4-0.2,2.1l0.1-0.1
		c-1-0.1-1.4-0.8-1.5-1.4c1.2-2.2,2.2-4.2,3.3-6.2c-1.8,0.4-2.3,1.8-3.2,2.9c-1.1,1.3-0.9,2.9-0.6,4.5c1.5,1.6,3,3.3,4.7,4.8
		c0.9,0.8,2,1.3,3.1,1.6c0.5,0.2,1.2-0.2,1.8-0.3c0.5,1.1-0.2,1.5-0.8,1.7c-0.5,0.1-1.2,0-1.7-0.1c-1.4-0.4-2.4-1.4-3.3-2.5
		c-0.7-0.8-1.5-1.1-2.5-0.6c0-0.6,0.6-1.5-0.7-1.4c0-0.1,0.1-0.2,0.1-0.3c0-0.1-0.1-0.1-0.2-0.2c0.1,0.1,0.2,0.3,0.2,0.4
		c0.2,0.5,0.5,1,0.7,1.4c-0.6,2.1-2,3.7-3.3,5.2c-0.1,1.6-0.1,3-0.2,4.2c-0.9,0.7-1.5,1.2-2.1,1.7c-0.1,0.1-0.1,0.2-0.1,0.3
		c0.1,2.1,0.1,2.2,1.2,3.5c1.7,2,3,4.2,3.6,6.8c0.5,2.1,1.4,4,2.7,5.7c2,2.5,3.8,5.1,5.7,7.7c0.6,0.8,1.4,1.3,2.3,1.6
		c2.5,0.7,5,1.5,7.6,1.6c1.5,0.1,3.1,0.3,4.6,0.6c0.9,0.2,1.7,0.7,2.5,1.2c0.5,0.3,0.7,0.9,0.1,1.4c-1.4-0.5-2.7-1-4.1-1.3
		c-2.3-0.6-4.6-1.1-6.9-1.6c-1.3-0.3-2.7-0.6-4.5-0.9c0.8,1.2,1.2,2,1.8,2.7c5,5.5,10.3,10.5,16.8,14.2c2.7,1.6,5.5,2.7,8.5,3.6
		c0.5,0.1,1.1,0,1.6-0.1c0-0.8,0-1.4,0-2l-0.1,0.1c1,0.5,1,1.5,1.5,2.3c0.5,0.7,1.1,1.2,2.1,0.9c1-0.8,1.4-1.9,1.4-3.1
		c0-1.7,0-3.3-0.2-5c-0.3-2-1.1-3.8-2.5-5.4c-3.3-3.6-6.8-6.9-11.1-9.3c-0.5-0.3-1-0.6-1.4-1.1c-0.2-0.2-0.2-0.7-0.1-1
		c0.1-0.2,0.6-0.5,0.9-0.4c0.6,0.1,1.1,0.3,1.7,0.5c2.2,1,4.1,2.4,5.8,4c1.5,1.4,3.3,2.5,5.5,3.3c0.3-2.3-1.2-4-1.3-6.1
		c2.8,2.2,3.9,5.2,4.3,8.5c0,0.4,0,0.7,0.1,1.1c0.3,1.7,1.1,3.1,2.2,4.4c0.3,0.3,0.8,0.3,1.3,0.4c-0.2,0.9,0.1,1.6,0.4,2.4
		c3.6,7.9,4.2,16.2,3.9,24.7c-0.1,3.2-0.3,6.4,0.3,9.6c0.1,0.3,0.1,0.7,0.1,1.1c0.3,5.2,0.6,10.4,0.8,15.6c0.2,3.9-0.5,7.6-2.2,11.1
		c-0.9,2-1.4,4-1.7,6.1c-0.5,4.1-1.2,8.2-1.6,12.4c-0.2,2.6,0,5.2,0,8c1.6,0.9,2,2.5,2.2,4.4c1.8,2.8,2.6,6.1,4,9.1
		c1,2.1,1.7,4.4,2.5,6.6c0.2,0.7,0.4,1.4,0.3,2.1c0,0.4-0.5,0.7-0.7,1.1c-0.7-1.7-1.4-3.5-2.1-5.2c-1.3-3-2.8-6-4-9.1
		c-0.7-1.9-1.6-3.3-3.6-4.1c-0.4,0.2-0.7,0.5-1.1,0.8c0.1-0.8,0.4-1.6-0.3-2.2c-0.5,0.8,0,1.5,0.4,2.1c1.3,2.5,2.7,5,3.9,7.6
		c0.5,1.1,0.8,2.2,1.1,3.4c0.1,0.4-0.1,0.8-0.2,2.1c-2.4-4.3-4.5-8-5.7-12.3c-1.4,0-2.8,0-4.2,0c-1.3,0-2.7,0.2-4.7-0.5
		c1.7-0.2,2.6-0.3,3.5-0.5c0.7-0.1,1.4-0.2,2.1-0.5c0.3-0.1,0.5-0.7,0.8-1.1c-1.6-1-3-0.8-4.2,0.3c-1.3-1-2.9-1-4.2-1.3
		c-0.5,0.5-0.8,0.8-1.2,1.2c-0.2-0.4-0.3-0.8-0.4-1c-0.2-0.4-0.4-0.7-0.9-1.4c-0.3,0.8-0.6,1.2-0.7,1.5c-0.1,0.5-0.4,0.9-1,0.8
		c-0.1-1-0.3-2-0.4-3.1c-1-0.3-1.9-0.7-2.8-0.9c-0.2,0-0.5,0.4-0.7,0.6l0-0.1c-0.9-0.2-1.8-0.4-2.8-0.6c-0.2,0-0.4,0.1-0.6,0.2
		c-0.6,0.6,0,2-1.5,2.3c-0.1-0.8-0.3-1.6-0.3-2.4c0-0.7-0.3-1.2-1-1.2c-0.3,0-0.7,0.5-1.1,0.8c-0.2,0.1-0.4,0.1-0.6,0.1
		c-1-2.5-1.3-2.6-3.2-0.9c-0.7-0.8-0.5-2.8-2.5-2.3c-0.6,0.8,0.2,2-0.9,2.5c-1.9-1.2-1.9-1.3-3.8-1.2c-3.3,0.1-6.6-0.4-10.4-1.2
		c1.2-0.4,2-0.6,3-0.9c-1.9-0.3-1.1-1.8-1.7-2.6c-0.1-0.1-0.4-0.2-0.6-0.2c-0.7,0.3-0.1,1.8-1.2,1.7c-1.1-0.5-0.3-2.1-1.8-2.2
		c-0.4,0.7-0.7,1.5-1.2,2.5c-0.6-0.4-1.1-0.7-1.6-1c-0.3,0.6-0.6,1.5-1,1.6c-2,0.5-2.4,2.1-3,3.6c-0.6,1.5-1.2,3.1-1.8,4.7
		c-2,5.7-4,11.4-6.8,16.8c-0.6,1.1-0.8,2.2-0.6,3.4c0.2,2.1,0.4,4.3,0.5,6.4c0.4,9.3,0,18.5-0.9,27.8c-0.2,2.2-0.3,4.5,0,6.7
		c0.7,6.3,0.8,12.6,0.2,18.9c-0.4,4.3-0.4,8.5-0.1,12.8c0.1,2.2,0,4.5-0.1,6.7c0,1.1-0.3,2.1-0.3,3.2c0,0.7,0.2,1.3,0.3,2.1
		c1.4,0.3,2.5,0.4,3.7,0.7c1.1,0.3,2.3,0.6,3.4,1.1c3.1,1.6,6.3,2.7,9.6,3.6c1.4,0.4,2.8,0.7,4.2,0.7c3.9,0,7.8,0.6,11.7,1.3
		c6.1,1,12.2,1.9,18.3,2.8c0.8,0.1,1.6-0.1,2.4-0.2c0.9-3.6,0.7-7.3,2.1-10.6c1.3-3.3,2.7-6.6,5.1-10.2c-0.7,3.7-2.3,6.4-2.9,9.4
		c-0.6,3-1.1,6-0.6,9.3c0.6-0.1,1.1-0.1,1.5-0.2c4.1-0.8,8.2-1.2,12.4-1c2.4,0.1,4.8,0,7.1,0c0.7,0,1.3-0.3,2-0.4
		c0.3-4.5,0.7-8.7,1-13c0.1-0.9,0.1-1.9,0-2.8c-0.1-1.9-0.4-3.9-1.6-5.4c-1.1-1.5-1.1-3-1.1-4.7c0.3-5.8,0.4-11.6-0.1-17.5
		c-0.2-2-0.4-4-0.6-6c-0.1-0.9-0.3-2.1,0.1-2.8c1.3-2.4,1-4.9,1-7.3c0-9.9-0.1-19.7-1.2-29.5c-0.1-0.6-0.1-1.2,0-1.8
		c0.1-0.3,0.5-0.5,0.7-0.7c0.4,3.1,1,6.1,1.3,9.2c1,8.4,0.8,16.8,0.7,25.3c0,1.5-0.2,3.1-0.4,4.6c-0.4,3.6-0.3,7.1,0,10.7
		c0.4,5.2,0.5,10.4,0.5,15.7c0,1.9,0.2,3.7,1,5.5c0.7,1.5,0.8,3.2,1,4.8c0.6,4.9,0.1,9.7-0.5,14.6c-0.2,1.8-1.3,3-3.2,3.1
		c-1.2,0.1-2.4,0.1-3.6,0.1c-2.3,0-4.5,0-6.7,0c-1.8,2.1-2.7,4.3-2.7,7c0,2.2-0.4,4.5-0.6,6.7c-0.2,1.8-0.5,3.5-1.9,4.8
		c-0.7,0.6-0.7,1.5-0.6,2.6c0.3,3.2,0.3,6.4,0.3,9.6c-0.1,6.2-0.2,12.4-0.5,18.5c-0.1,2.8-0.6,5.7-0.9,8.5
		c-0.6,5.1-0.7,10.2-1.9,15.2c-0.2,0.8-0.2,1.7-0.2,2.5c0.2,6.8-0.4,13.5-0.7,20.3c-0.1,2.2-0.4,4.4-0.7,6.7
		c2.7,1.1,4.5,2.9,5.9,5.4c1.1,2.1,2.4,4.2,4.1,5.8c2.5,2.5,5.1,5,8.3,6.5c1.1,0.5,2,1.3,3,1.9c0.9,0.5,1.9,1,2.8,1.5
		c0.3,0.2,0.7,0.1,1,0.3c2.3,1.7,4.9,2.4,7.7,2.5c0.5,0,1.1,0.3,1.6,0.7c1.1,0.9,2.2,1.8,3.1,2.9c1.2,1.5,1.2,3.3,1,5.1
		c-0.2,1.8-0.3,3.5,0.5,5.3c-0.8,0.5-1.3,1.2-2.1,1.5c-1.9,0.7-3.8,1.3-5.8,1.6c-1.5,0.3-3,0.4-4.5,0.9c-3.3,1-6.6,0.9-9.9,0.4
		c-1.2-0.2-2.4-0.4-3.5-0.2c-5.7,0.9-11.1-0.2-16.4-2c-1-0.3-2-0.8-3.1-1.2c-0.7,0.2-1.5,0.5-2.3,0.7c-2.5,0.7-5.1,1.3-7.7,0.6
		c-0.7-0.2-1.6,0-2.5,0.1c-0.9,2.9,0.8,5.5,0.1,8.3c-2,1.4-4.4,2-6.8,2.5c-0.7,0.2-1.4,0.3-2.1,0.3c-4,0.4-8,0.9-12,1.2
		c-4.6,0.4-9-0.6-13.2-2.4c-1.7-0.7-3.3-1.1-5.2-1.2c-2.2-0.1-4.5-0.7-6.7-0.7c-2.1,0-4.2,0.5-6.3,0.7c-2.3,0.3-4.5-0.1-6.7-0.6
		c-3.5-0.7-4-1.1-6.5-4.7c0.5-1,1-2,1.5-3.1c0.7-1.5,1.4-3,1.1-4.8c-0.1-0.3-0.1-0.8,0-1.1c1.5-3.8,0.8-8,1.7-11.9
		c0.7-3.3,1.7-6.4,3.2-9.4c0.9,0,1.7-0.1,2.5-0.1c0.2-0.3,0.4-0.6,0.5-0.9c1.1-5.1,2-10.2,1.3-15.5c-0.4-3.3-0.3-6.6-0.4-10
		c-0.2-7.6-0.8-15.2-1.4-22.8c-0.3-3.4-0.6-6.9-0.5-10.3c0.1-4,0.6-8.1,0.8-12.1c0.2-2.9,1.5-5.5,2.7-8c1.3-2.9,2.6-5.9,3.9-8.8
		c1-2.2,1.9-4.3,3-6.5c1.2-2.3,2.4-4.7,3.7-6.9c1.8-2.9,2.5-6.1,2.6-9.5c0.1-3.3,0-6.6,0-9.9c-0.4-0.8-1-0.4-1.6-0.5
		c-0.9-0.1-1.6-0.7-1.7-1.6c-0.1-1.3-0.3-2.7,0-3.9c1.1-4.2,1.1-8.5,1.2-12.7c0.1-3.8-0.1-7.6,0.6-11.4c0.2-1.4,0.2-2.8,0.2-4.3
		c0.2-7.4-0.4-14.7-0.8-22.1c-0.5-10-0.4-20,0.4-29.9c0.1-1.4,0.1-2.8,0.2-4.4c0.4-0.1,0.9-0.3,1.4-0.5c0.4-1.2,0.9-2.6,1.3-3.9
		c1.5-4.4,2.9-8.8,4.4-13.2c0.5-1.6,1.2-3.1,1.9-4.6c0.9-1.8,2-3.5,2-5.6c0-1.4,1.1-2.3,2.5-2.8c-0.9-4.1-1-8.1-0.7-12.1
		c0-0.7,0-1.4-0.1-2.1c-1.3-5.5-2.6-11.1-4-16.6c-0.4-1.6-1.1-3.1-1.9-4.6c-1.8-3.6-3.7-7.2-5.7-10.7c-3.3-6-5.1-12.5-6-19.3
		c-0.1-0.9-0.3-1.9,0-2.8c0.5-2.2,0-4.3-0.3-6.3c-0.3-2.2-1.2-4.2-2.8-5.9c-2.5-2.6-4.1-5.8-5.1-9.3c-0.4-1.2-0.4-2.6-0.5-3.8
		c-0.1-0.8,0.2-1.7,0-2.4c-0.6-2.8-1.6-5.5-1.7-8.4c0-0.7-0.5-1.3-0.8-2c-2.3-5-3.6-10.3-4.6-15.7c-0.4-2.1-0.7-4.2-1.3-6.3
		c-0.6-2-0.8-4.2-0.9-6.3c-0.2-6.8-0.1-13.6,0.7-20.3c0.1-1.1,0.1-2.4,1.2-3.5c0.3,0.4,0.7,0.6,0.8,1c0.1,1.1,0.2,2.1,0.2,3.2
		c0,3.2,0,6.4,0,9.6c0,2.8-0.1,5.7,0.5,8.5c0.5,2.1,0.3,4.3,0.6,6.4c0.6,3.7,1.4,7.5,2.1,11.2c0.8,3.8,1.7,7.6,2.5,11.5
		c0.4,1.7,0.5,3.5,0.8,5.3c0.1,0.8,0.4,1.6,0.6,2.4c0.8,2.9,1.6,5.7,2.2,8.6c0.5,2.6,1.6,5,3.1,7.1c1.3,1.9,2.4,3.8,3.4,5.8
		c0.7,1.4,1.1,2.8,1.2,4.4c0.4,4,0.8,8,1.3,12c0.4,2.9,1.3,5.7,2.3,8.7c4.2,0.6,8.1,0.1,11.8-1.9c5.4-2.9,9.2-7.3,11.1-13
		c1.8-5.6,3.5-11.4,2.8-17.4c-0.3-2.8-0.4-5.7-0.6-8.5c-0.2-2.2-0.7-4.2-1.9-6.1c-0.5-0.8-0.9-1.7-1.1-2.6
		c-1.6-5.7-4.2-10.8-8.5-15.1c0.1-0.8,0.5-1.6,0.4-2.4c-0.1-0.8-0.8-1.4-1-2.2c-0.5-1.3-0.9-2.7-1.1-4.1c-0.6-4.1-1.3-8.2-1.6-12.4
		c-0.4-5-1.8-9.8-4.1-14.3c-1.5-2.9-2.7-6.1-4.5-8.9c-0.8-1.2-1-2.7-2.5-3.4c-0.3-0.2-0.5-0.8-0.5-1.3c0-0.7,0-1.4,0.1-2.1
		c1-3.9,0.7-7.8,0.9-11.7c0.1-3.5-0.7-6.8-1.5-10.2c-2.4-9.5-3.9-19.1-4.8-28.8c-0.6-6.5,0.2-13.1,1.6-19.5c0.1-0.7,0.6-1.3,1-1.8
		c1.6-1.9,3.4-3.7,5.7-4.8c1.7-0.9,2.4-2.2,2.2-4.1c-0.2-1.4-0.1-2.8-0.2-4.3c-0.1-1.6-0.9-2.7-2.5-3c-1.2-0.3-2.5-0.5-4-0.8
		c-0.3,0.6-0.6,1.2-1,1.9c1,1.3,1.9,2.7,3,4.1c-0.5,0.2-0.8,0.4-1.1,0.3c-0.9-0.3-1.6-0.2-2.3,0.3c-1.3,0.9-2.6,1.7-3.7,2.4
		c-3.8-1.1-7.5-2.1-11.3-3.2c-0.5,0.9-1,1.7-1.5,2.5c0.2,0.5,0.4,1,0.6,1.3c1.3,1.8,1.4,3.7,1,5.8c-0.6,2.8-1,5.6-2.3,8.2
		c-0.9,2-1.2,4.1-1.3,6.2c-0.1,4.2-0.1,8.4-0.7,12.4c-1.3,8.4-0.7,16.8-1,25.2c-0.1,1.7-0.1,3.3-0.2,5c-0.3,5.4,0.5,10.7,1.5,15.9
		c0.3,1.5,0.6,3,0.9,4.5c0.2,1.2,0.4,2.3-0.1,3.7c-0.4-0.3-0.9-0.4-1.1-0.7c-1.4-1.8-2.2-3.9-2.6-6.2c-0.7-4-1.1-8-0.9-12.1
		c0.1-1.9,0-3.8-0.1-5.7c0-3.2-0.1-6.4-0.1-9.6c0-3.2-0.1-6.4,0.1-9.6c0.2-3.2,0.7-6.4,1.1-9.6c0.3-3,0.7-5.9,1-8.9
		c0.4-4.5,1.1-9,2.7-13.2c0.9-2.6,1.1-5.3,1-8.1c0-0.3-0.2-0.6-0.3-1c-0.4,0.2-0.7,0.4-0.9,0.6c-0.6,0.9-1.1,1.8-1.6,2.8
		c-2.4,4.6-5.5,8.6-9.1,12.3c-3.3,3.5-7.1,6.4-11.3,8.5c-7.9,3.9-16.1,5.2-24.9,2.8c-5.7-1.6-10.9-4.1-15.9-7
		c-2.9-1.7-5.3-4-7.4-6.6c-5.2-6.4-8-13.7-9.1-21.7c-0.9-6.4-0.7-12.8,0.5-19.2c0.1-0.3,0-0.7,0-1.2c-0.6-0.3-1.2-0.6-1.9-0.7
		c-7.3-2.1-14.6-4.1-21.9-6.3c-2.4-0.7-4.7-1.6-6.9-2.4c-0.3-0.4-0.5-0.7-0.6-1c-0.9-1.7-1.2-3.5,0.3-4.9c1.6-1.6,3.5-2.3,5.8-1.5
		c2.3,0.8,4.8,1.5,7.1,2.2c5.7,1.7,11.4,3.3,17.1,5c1.1,0.3,2.3,0.6,3.6,0.9c0.6-1.3,1.1-2.5,1.6-3.7c2.4-5.7,5.6-11,9.6-15.8
		c2.8-3.3,6-6.1,9.5-8.6c5.3-3.7,11.2-5.7,17.5-6.5c2.9-0.4,5.7,0.1,8.5,0.6c5.7,0.9,11.1,2.4,16.1,5.3c0.5,0.3,0.8,0.8,1.2,1.2
		c-1.2-0.5-2.4-0.9-3.6-1.5c-2.7-1.3-3.2-1.5-5.4-1.6c0.3,0.3,0.5,0.5,0.8,0.7c6.7,4.7,11,11.1,13.6,18.7c2.9,8.5,3.5,17.2,2.1,26
		c-1.9,12.2-6.6,23.2-14.9,32.6c-5.1,5.7-10.9,10.1-18.2,12.5c-3.4,1.1-6.9,1.9-10.5,1.8c-1.1,0-2.1,0-3.3,0
		c0.2,0.2,0.3,0.4,0.4,0.5c0.3,0.2,0.6,0.3,1,0.4c5.2,1.6,10.5,2.2,15.8,1.5c3.5-0.4,7-1.4,10.2-2.9c3.9-1.8,7.4-4.4,10.5-7.3
		c5.7-5.3,10.1-11.6,13.3-18.8c2.6-6,4.2-12.2,5-18.8c1-7.7,0.4-15.1-1.7-22.5c-2.1-7.3-6-13.4-11.8-18.2C574,9.3,572.4,8.6,571.7,7
		z M628.9,165.3c0,0.5,0.2,0.8,0.7,0.8c0.1,0.2,0.2,0.3,0.2,0.5c0.1-0.1,0.2-0.2,0.3-0.4c-0.2,0-0.4-0.1-0.6-0.1
		c-0.2-0.3-0.5-0.5-0.7-0.8c-0.1-0.1-0.1-0.1-0.2-0.2C628.7,165.2,628.8,165.2,628.9,165.3z M645.3,168.4c-0.3,0-0.6-0.3-0.5,0.3
		C645,168.6,645.1,168.4,645.3,168.4c-0.1-0.2,0-0.3,0-0.3C645.3,168.1,645.3,168.3,645.3,168.4z M651.6,160.3
		c0.5,0,0.8-0.2,0.7-0.7c0.6,0.1,1.1,0.1,1.1-1c-0.4,0.5-0.7,0.8-1,1.1C652.1,159.9,651.9,160.2,651.6,160.3c0,0.1-0.1,0.1-0.2,0.2
		c0,0,0,0.1-0.1,0.2C651.4,160.6,651.5,160.4,651.6,160.3z M625.9,180.5C625.9,180.4,625.7,180.1,625.9,180.5c0.2,0,0.3,0,0.3,0.1
		C626.1,180.5,626,180.5,625.9,180.5z M688.6,86.3c-0.1-0.1-0.1-0.2-0.2-0.3C688.6,86.1,688.6,86.2,688.6,86.3
		c0.1,0.2,0.1,0.8,0.6,0.1C689,86.4,688.8,86.4,688.6,86.3z M623.7,156.7c0.1,0,0.2,0,0.3,0c0,0,0.1-0.1,0.1-0.1
		C624,156.6,623.9,156.7,623.7,156.7c0,0.2,0,0.2-0.1,0.3C623.7,156.9,623.7,156.8,623.7,156.7z M726.6,109.1c-0.2,0-0.5-0.1-0.7,0
		c-0.1,0-0.1,0.3-0.2,0.5c0.1,0,0.3,0,0.3,0C726.2,109.4,726.4,109.2,726.6,109.1c0.4-0.1,0.6-0.3,0.6-0.8c0.1,0,0.3,0,0.3,0
		c3.8-2.2,5.8-10.5,3.2-14.1c-0.1-0.5,0-1.2-0.8-1.3c-0.1-0.2-0.2-0.4-0.3-0.7c0.1,0.2,0.2,0.4,0.4,0.6c0.2,0.5,0,1.2,0.8,1.4
		c0,0.7-0.1,1.4,0,2.1c0.3,4-0.8,7.7-3.1,11c-0.2,0.3-0.3,0.8-0.4,1.3C726.7,108.3,726.4,108.5,726.6,109.1z M651.6,156.9
		c0-0.1-0.1-0.2-0.1-0.3c0,0-0.1-0.1-0.2-0.1C651.4,156.6,651.6,156.7,651.6,156.9c0.1,0.2,0.2,0.6,0.3,1.2
		C652.3,157.3,652,157.1,651.6,156.9z M648.8,164c0.8,0,1.4-0.2,1.5-1.5C649.7,163.1,649.2,163.5,648.8,164c-0.8,0-1.3,0.2-1,1.4
		C648.2,164.8,648.5,164.4,648.8,164z M658.8,149.7c1.3-0.5,2.5-0.1,3.5,0.8c0.2,0.6,0.3,1.1,0.5,1.7c1.7-0.5,1.7-0.5,1.1-1.9
		c-0.6,0.1-1.2,0.2-1.7,0.3c0.1-0.6,0.3-1.2-0.5-1.7C660.8,149.2,659.7,148.9,658.8,149.7C658.9,149.7,658.6,149.9,658.8,149.7z
		 M690.8,89.1c-0.5,0-1.1,0.2-1.4,0c-1.4-1.1-2.9-0.9-4.4-0.6c-0.5-1.3,1-1.7,1.2-2.8c-0.5-1-0.5-2.5-2.3-2.7
		c-0.1,0.7-0.1,1.2-0.2,1.8c-0.1,0.7-0.3,1.3-0.5,2.1c0.6,0.5,1.2,1,1.9,1.5c0.3,1.1,0.6,2.3,0.9,3.4c0.5,0.3,0.9,0.6,1.3,0.7
		c2.7,0.8,5.5,1.6,8.2,2.3c7.1,2,14.2,4,21.3,6c0.6,0.2,1.1,0.3,1.7,0.4c2.1,0.2,2.5-0.1,3.6-2.5c-0.6-1.7-2-2.5-3.7-3
		c-1.6-0.5-3.2-0.9-4.8-1.3c-6.5-1.9-13-3.8-19.5-5.6c-0.2-0.1-0.5,0-0.6,0c-0.6,0.5-1.1,0.9-1.6,1.3
		C691.4,89.6,691,89.3,690.8,89.1l0.1-0.1L690.8,89.1z M742.1,65c0-0.1,0-0.2,0-0.3c0-0.1-0.1-0.1-0.1-0.2c0.1,0.1,0.1,0.3,0.2,0.4
		c2,1.8,4.2,3.5,6.1,5.5c5.9,6.6,9.1,14.4,9.7,23.2c1,14.3-3.2,26.7-13.4,37c-5.6,5.7-12.5,8.9-20.4,10.1c-0.2,0-0.5,0.2-0.9,0.4
		c0.6,0.3,0.9,0.6,1.2,0.6c3.4,0.6,6.9,0.6,10.3-0.3c7.8-2,14.1-6.3,19-12.5c9.4-11.9,12.5-25.4,9-40.2c-2.3-9.6-7.7-17-16-22.3
		C745.3,65.6,743.9,64.6,742.1,65z M539.6,57c-1.4,0.6-2.1,1.9-2.9,3.1c-2.1,3.3-4.1,6.7-6.2,10c-0.4,0.7-1,1.2-1.4,1.8
		c-5.4-2.1-7.3-6.6-5.6-12.2c0.8-0.4,1.7-0.8,2.4-1.4c2.5-2.5,5.5-4,8.7-5.4c0.4-0.2,0.7-0.4,1.2-0.7c-2.4-1.2-13.1-4.4-21.6-6.4
		c-0.7-0.2-1.4-0.2-2.2-0.3c-0.3,1.2-0.6,2.2-0.7,3.2c-0.5,4.5-0.6,9,0.1,13.5c0.4,2.8,1.1,5.6,1.9,8.3c0.6,2.1,1.7,4.2,2.5,6.3
		c1.3,3.2,3,6.2,5.8,8.4c0.6,0.5,1.4,0.9,1.5,1.9l0.1-0.1c-2.4-0.6-4.2-2.2-5.5-4.2c-3.6-5.4-6.1-11.3-7.3-17.7
		c-1.2-6.2-1.3-12.5-0.2-18.8c0.1-0.4,0-0.9,0-1.3c-1-0.8-2-1-3.3-0.7c-0.2,0.8-0.5,1.6-0.6,2.4c-1.2,7.8-1,15.6,1.1,23.3
		c1.6,6,4.2,11.3,8.4,15.9c3.6,4,7.8,6.9,13,8.3c7.2,1.9,14.2,0.7,20.8-2.3c3.7-1.7,7-4.2,9.9-6.9c5.7-5.3,10.2-11.6,13.3-18.7
		c3.2-7.2,5.1-14.8,5.5-22.7c0.4-7.7-0.7-15.2-3.5-22.4c-2.1-5.2-5.3-9.6-9.4-13.2c-3.1-2.7-6.6-4.6-10.6-5.6
		c-7-1.8-13.7-0.5-20.1,2.3c-3.8,1.7-7.2,4.2-10.2,7C518,17.7,513.2,25,510,33.3c-0.2,0.5-0.3,1.1-0.4,1.6c1,0.8,2,1,3,0.8
		c0.2-0.1,0.3-0.2,0.3-0.3c0.5-1.2,1-2.4,1.5-3.6c4.3-9.4,10.6-17.1,19.6-22.4c5.3-3.1,10.9-4.6,17-4.6c1.6,0,3.1,0.1,4.5,0.8
		c2.1,1.1,4.2,2.3,6.2,3.5c0.4,0.2,1,0.6,0.6,1.5c-2-1-3.9-2-5.8-2.9c-1.2-0.5-2.4-1.2-3.6-1.3c-4.3-0.4-8.5-0.2-12.6,1.5
		c-3.8,1.5-7.3,3.5-10.4,6.1c-6.9,5.6-11.8,12.6-15.1,20.8c-0.2,0.5-0.2,1.1-0.3,1.9c8.8,2.4,17.5,4.9,26.2,7.3
		c1.7-1.6,3.6-2.2,5.9-2.3c2.5-0.1,4.1,0.7,5.3,2.8c0.4,0.7,1,1.4,1.4,2.1c2.2,4.4,0.5,8-2.7,9.9c-1.1,0.7-2.2,1.4-3.6,1.5
		c-0.6,0.1-1.1,0.3-1.6,0.5c0.3,1.8,0.7,3.4,0.9,5c0.4,3,0,5.9-1.1,8.7c-0.5,1.2-1.2,2.3-2,3.3c-0.7,0.9-1.7,1.3-2.8,1.3
		c-3.6,0-6.2-4.2-4.8-7.4c0.4-0.9,0.8-1.7,1-2.6c0.8-2.7,1.7-5.4,2.5-8.2C539.4,58.1,539.5,57.5,539.6,57c0-0.1,0.1-0.1,0.2-0.1
		c0.1,0,0.1-0.1,0.1-0.2C539.9,56.8,539.7,56.9,539.6,57z M653,315.2c0.5,0.5,1.1,0.8,1.5,1.4c1.9,2.9,3.3,6,3.7,9.3
		c5.6,3.3,11.6,3.5,15.2,1.7c0.6-1.5,1.2-3,0.7-4.7c-0.2-0.6,0-1.4,0.1-2.1c0.6-4.3,1.2-8.7,1.9-13c0.1-0.4,0.1-0.7,0.2-1.1
		c0.8-3.8,1.5-7.7,2.5-11.5c1.3-4.8,1.4-9.6,0.9-14.5c-0.3-2.7-0.8-5.4-0.3-8.2c0.1-0.7-0.1-1.4-0.2-2.1c-0.1-1.4-0.2-2.8-0.1-4.2
		c0.1-1.9,0.3-3.8,0.5-5.7c0.3-4.1-0.2-8.1-1.2-12c-0.8-3.2-2.3-6.2-3.5-9.3c-0.4-0.9-0.9-1.8-1.4-2.7c-0.2,3.2,0.3,6.2-0.8,9.3
		c-1.1,0.5-2.1,1-3.3,1.5c0.1,0.6,0.3,1.2,0.4,1.7c0.1,0.4,0.1,0.9,0.2,1.9c-0.9-1.8-1.5-3-2.2-4.3c-0.5-0.2-1-0.4-1.4-0.5
		c-5.1-1-9.7-3.2-13.9-6.2c-3.8-2.7-7.2-5.8-10.5-9.1c-0.7-0.8-1.4-1.7-2.3-2.2c-1.5-1-2.3-2.3-3.2-3.8c-0.8-1.3-1.4-2.7-2.5-4.2
		c-0.1,0.8-0.3,1.3-0.3,1.7c0,0.9,0.1,1.9,0.2,2.8c0.3,3.4,0.4,6.9,0,10.3c-0.3,3.1-0.1,6.1-0.1,9.1c2.5,1,3.2,1.9,3.5,4.8
		c-1.6-0.6-2-2.4-3.4-3.3c-0.3,0.5-0.5,1.1-0.9,1.4c-1.6,1-2.2,2.4-2.4,4.1c-0.1,0.7-0.6,1.3-0.9,1.9c-1.4,2.9-3.4,5.4-5.7,7.7
		c-4.2,4.1-9.1,6.3-15.1,5.8c-0.5,0-1.2-0.3-1.5,0.5c0.1,0.3,0.2,0.6,0.4,0.9c2.5,5,5.1,9.9,7.6,14.9c0.5,0.9,0.9,1.9,1.2,3
		c2,6.6,3.5,13.3,4.5,20.1c0.1,0.4,0.2,0.7,0.1,1c-0.9,3,0.4,5.8,0.9,8.7c0.1,0.8,0.5,1.5,0.8,2.3c0.6,0,1.1,0.1,1.6,0.1
		c5.3-0.2,10.4,0.8,15.3,2.7c1.3,0.5,2.7,1,4,1.4c1.4,0.4,2.7,0.7,4.1,1c2.1,0.4,4.2,0.8,6.3,1.2c0.4,0.1,0.8,0,1.6,0
		c-0.4-1.4-0.8-2.5-1.1-3.6C654.4,319.2,653.2,317.3,653,315.2L653,315.2z M665.9,445.6c-1-0.1-1.9-0.2-2.5,0.8
		c-0.3,0.6-0.8,0.7-1.4,0.9c-2.3,0.9-4.6,1.2-7,0.8c-1.8-0.3-3.5-0.6-5.3-0.8c-1.8-0.3-3.5-0.5-5.3-0.7c-0.1,0-0.2,0.1-0.5,0.3
		c-0.3,0.9,0.1,1.9,0.3,3c0.4,3.2,0.8,6.5,0,9.6c-1.7,6.2-3.8,12.2-5.7,18.3c-0.2,0.7-0.4,1.4-0.4,2.1c0,1.3,0.2,2.6,0.4,3.9
		c1,5,2,10,3,15c0.3,1.3,0.8,2.5,1.1,3.8c0.7,2.5,1.5,5,1.8,7.6c0.7,5.5,1.1,11.1,1.6,16.7c0.8,8,0.3,16.1,0.4,24.1
		c0,0.3-0.5,0.6-0.9,1.2c-0.2-0.8-0.4-1.3-0.5-1.7c-0.6-3.6-0.9-7.3-0.8-11c0.1-9.9-0.8-19.7-1.9-29.5c-0.2-1.4-0.4-2.8-1-4.1
		c-1.6-4-2.6-8.1-3.6-12.3c-0.1-0.6-0.3-1.2-0.3-1.7c0.2-1.9-0.3-3.8-0.6-5.6c-0.5-2.9-0.7-6,0.1-8.8c1.5-5.4,3-10.7,5.1-15.9
		c0.9-2.3,1.4-4.5,0.6-6.9c-0.3-0.8-0.2-1.6-0.3-2.5c-0.2-1.6-0.5-3.3-0.7-4.9c-0.1-0.8-0.8-1.1-1.7-1.2c-1.4,1.5-2.7,2.9-2.8,5.4
		c-0.1,2-0.8,3.9-1.5,5.8c-0.5,1.6-1.2,3.1-2.2,4.4c-0.7,1-2,1.5-3.1,2.3c-0.1,0.3-0.2,0.6-0.3,1c-0.4,4.3-1.6,8.4-3.2,12.4
		c-0.4,1-0.6,2.1-0.7,3.1c-0.1,3.6-1,7-1.9,10.5c-2,7.3-4.6,14.5-7.3,21.6c-1,2.6-1.7,5.2-1.7,8c0,0.6-0.1,1.2-0.2,1.8
		c-0.8,4.9-1.7,9.8-2.5,14.7c-0.3,1.6-0.4,3.3-0.4,4.9c0.1,3.8,0.2,7.6,0.4,11.4c0,1.2,0,2.4,0.8,3.5c3.7,1.3,5.1,4.9,7.3,7.8
		c0.7,0.9,1.2,2,2,2.9c2,2.4,4.7,4.3,6.3,7.2c0.4,0.8,1.3,1.4,2.2,1.8c1.3,0.7,2.8,1.2,4.3,1.8c0.6-1.4,1.2-2.8,1.9-4.1
		c1-2.2,1.8-4.3,1.9-6.8c0.1-2.2,0.9-4.4,0.9-6.7c0-0.7,0.4-1.4,0.6-2c0.4-1.2,0.9-2.4,1.3-3.8c0.4-0.3,0.9-0.9,1.5-1.3
		c0.7-0.4,1.4-0.7,2.3-1.1c1.2,1.3,2.3,2.5,3.4,3.7c2,0,3.8,0.3,5.7-0.1c1.8-3.8,3.5-7.7,7.8-9.1c0.1-2.3,0.1-4.5,0.4-6.6
		c0.7-5.2,1.2-10.4,1.2-15.6c0-1.9,0.2-3.8,0.4-5.7c0.3-4,0.7-8,1.1-12.1c0.6-5.7,1.2-11.3,1.8-17c0.6-5.8,0.6-11.6,0.1-17.4
		c-0.1-1.9-0.3-3.8-0.4-5.8c-0.9-0.5-1.4-1.4-0.7-2.5c0.6-1,1.2-2.1,1.9-3c1.2-1.6,1.8-3.3,2-5.2c0.2-1.9,0.6-3.8,0.7-5.7
		c0.1-1.9,0.6-3.7,1.8-5.3c0.1-0.1,0-0.4-0.1-0.8c-2.2,0-4.4,0.5-6.6,0.9c-0.2,0-0.4,0.3-0.5,0.4L665.9,445.6z M668.3,89.6
		c-2.6-1-5.1-2.1-7.7-2.9c-4.8-1.5-9.6-2.7-14.4-4.1c-8.9-2.5-17.8-5.1-26.7-7.6c-2.8-0.8-5.7-1.6-8.4-2.3c-3,0.6-4.6,2.6-6.3,4.6
		c-1.8,2.1-2.7,4.5-3,7.1c-0.3,2.6-0.5,5.2-0.5,7.8c0,2.1,0.2,4.3,0.5,6.4c0.5,3,1.1,6.1,1.7,9.1c0.6,3.4,1.3,6.8,1.6,10.2
		c0.4,4.4,0.7,8.7,1.8,13c0.8,3,1.1,6.1,1.4,9.1c0.3,3.2,0.8,6.4-0.2,9.5c-0.3,0.9-0.1,1.6,0.3,2.4c0.7,1.4,1.4,2.7,2.2,4.1
		c1.6,2.7,2.9,5.5,3.9,8.4c0.4,1.2,0.9,2.5,1.4,3.7c0.4,0.9,0.7,1.8,1.3,2.5c0.5,0.8,0.5,1.9,1.6,2.8c0-0.7,0-1.1,0-1.4
		c-0.6-4.7-0.4-9.2,1.2-13.7c0.1-0.3,0.2-0.7,0.2-1c-0.3-1.8,0.7-2.9,2-3.9c0.1-0.1,0.1-0.4,0.1-0.7c-0.4-0.5-0.9-1-1.4-1.6
		c0.7-0.5,1.2-1.2,1.9-1.3c1-0.2,1.2-1.6,2.4-1.3c1.4,0.4,1.1-1.4,2.1-1.4c0.5,0.2,1,0.5,1.6,0.8c1.6-1.9,3.8-2.8,6.2-3
		c1.8-0.2,3.5-0.4,4.8-1.9c0.4,0.7,0.7,1.1,1.1,1.6c0.3,0,0.7,0.1,1,0c2.1-0.6,4.2-0.6,6.3,0.1c1.8,0.7,3.7,0.1,5.5-0.4
		c0.7-0.2,1.3-0.6,2-0.7c0.5-0.1,1,0.2,1.6,0.4c-0.3,0.7-0.5,1.1-0.7,1.6c1.5,0,3,0,4.4,0l3.9,1.2c0.2,0.3,0.4,0.6,0.5,0.9
		c0.2,0.4,0.2,0.9,0.9,0.9c0.7-0.7,1-1.5,0.9-2.5c-0.5-4,0.4-7.8,2.6-11.2c1.5-2.4,2.6-5,3.6-7.7c1.5-4.4,2.6-8.9,3.2-13.5
		c0.1-0.6,0-1.2,0.2-1.8c0.9-2.5,0.9-5.1,1.2-7.7c0.4-3.4-1.2-5.7-4-7.2c-1-0.6-2.1-1-3.2-1.5c-1.7-0.8-2.6-2-2.4-3.9
		C668.2,91,668.2,90.4,668.3,89.6z M711.2,92c1.1-1.1,1.9-2.1,2.8-3c1.6-1.5,3.5-2.5,5.7-2.5c1.3,0,2.6,0.1,3.9,0.4
		c4.4,1.1,7.9,3.4,9,8.2c1.2,5.4-0.1,10.2-4.1,14c-2.4,2.2-5.5,3.4-8.9,2.3c-0.8-0.2-1.6-0.5-2.4-0.7c-4.3-1.3-6.7-4.3-7.7-8.5
		c-0.2-0.7-0.3-1.3-0.4-1.9c-6.3-2.2-11.9-3.6-14.5-3.7c0,1.2,0.1,2.3,0,3.5c-0.1,1.3-0.3,2.6-0.5,3.9c0,0.4-0.1,0.7-0.1,1.1
		c0.1,5.3,0.4,10.7,0.4,16c0,2,0.6,3.7,1.7,5.3c3.8,5.5,8.8,9.3,15.1,11.5c6.5,2.2,13,2.4,19.5-0.1c6.5-2.5,12-6.4,16.2-11.9
		c10.3-13.5,12.7-28.3,7-44.4c-1.9-5.5-5.3-10-9.7-13.8c-10.1-8.7-22.8-8.4-32.7-3.3c-8.5,4.4-14.4,11.4-18.3,20.2
		c-0.3,0.6-0.4,1.3-0.6,2.1C698.8,88.6,704.9,90.3,711.2,92z M622.9,477.5c0.4-0.5,0.7-0.6,0.7-0.8c1.2-2.7,2.4-5.4,3.6-8.1
		c0.4-0.9,1-1.9,0.2-3c-0.2-0.3,0.1-1.2,0.4-1.6c1.3-1.8,2.8-3.5,4.2-5.3c2.2-2.9,3.7-6,2.9-9.8c0.7-1,1.5-2,2.3-3.2
		c-1.6-0.9-3.1-0.9-4.3-0.8c-1.5,1.3-2.6,2.7-4,3.4c-2.8,1.5-2.9,1.4-4.6,1c2.1-1,4.2-1.8,5.1-4.6c-4.2-0.2-7.9-1.2-11.6-2.7
		c-2-0.8-3.9-1.7-5.9-2.5c-0.6-0.2-1.3-0.2-2.1-0.4c-0.3,2.1-0.2,4-0.1,5.9c0.2,3.9-0.2,7.6-2.5,10.9c-0.2,0.3-0.3,0.6-0.4,1
		c-1.5,3.5-2.9,7-4.4,10.5c-2.1,4.8-4.4,9.5-6.5,14.2c-1.8,3.9-2.8,8-2.7,12.4c0.3,8.4-0.1,16.8,0.6,25.2c0.4,4.2,0.2,8.5,0.3,12.8
		c0,1.4,0,2.9,0.2,4.3c0.5,4.7,1.2,9.4,1.2,14.2c0,0.7,0.1,1.6,0.5,2c1.1,1.2,0.8,2.4,0.6,3.7c-0.4,2.1-1.3,3.9-2.5,5.9
		c1.2,0.5,2.2,0.8,3.2,1.3c1,0.5,2.4,0.1,3,1.7c-2.6,1.2-4.7-0.3-6.6-1c-0.9,0.1-1.2,1.2-2.1,0.6c-0.7-0.8,0.2-2.2-1.1-2.8
		c-1,0.7-1.2,1.7-1.3,2.8c1.1,1.8,2.3,3.6,4.1,4.9c1,0.7,2,0.9,3,0.6c1-0.3,2-0.6,2.4-1.8c0.2-0.7,1-1.3,1.5-1.9
		c0.7-0.7,1.6-1.2,2-2c1-2.2,2.8-3.5,4.5-5c1.2-1,2.3-2.1,3.4-3.1c0-1.1,0-2,0-3c0.1-3.1,0.1-6.2,0.3-9.3c0.3-6.4,1.2-12.8,2.3-19.1
		c0.1-0.8,0.3-1.7,0.2-2.5c-0.3-2.6,0.4-5,1.2-7.3c1-2.8,2.1-5.6,3.3-8.3c2.8-6.4,4.1-13.4,6.2-20.1c0.2-0.5,0.2-1.4,0-1.7
		c-1.1-0.9-0.4-2-0.6-3c-0.2-0.1-0.4-0.3-0.6-0.4c-0.3-0.1-0.6-0.3-0.9-0.4c-0.2-4.6-0.2-4.6,0.9-6.7
		C622.3,475.8,622.5,476.6,622.9,477.5z M637.1,579.9c1.7,0.9,3,1.6,4.2,2.2c1.2,0.6,2.5,0.9,3.5,1.7c1.4,1.1,2.8,1.1,4.4,0.9
		c1.1-0.1,2.1-0.5,3.1-0.6c1.5-0.2,3.1-0.2,4.5-1c0.9-0.5,1.8-0.2,2.8,0c2.3,0.7,4.6,1.3,6.9,1.9c3,0.8,6,1.2,9.2,1
		c2.7-0.1,5.5-0.5,8.1,0.7c0.5,0.2,1.2,0.1,1.8,0.1c4.2,0.3,8.2-1.1,12.2-2c1.9-0.4,3.4-1.6,4.4-3.2c-0.5-2.6-0.9-5.2-1.4-7.8
		c-4.7-1.4-9.3-2.9-14.2-4.1c0,0-0.2-0.2-0.3-0.3c-1.1-1.8-1.7-2.2-3.3-1.7c-1.1,0.3-2.2,0.8-3.4,1.1c-0.6,0.2-1.3,0-2,0
		c0.3-1.8,2.2-1.9,3-3.2c-0.7,0-1.4-0.1-2,0c-1.6,0.4-3.2,0.9-4.8,1.2c-0.5,0.1-1-0.1-1.7-0.2c0.4-2.1,2.5-2.6,3.8-4.2
		c-3.5,0-6,1.8-8.7,2.5c-0.8-1-0.3-1.8,0.2-2.4c1.3-1.4,3-2.3,4.8-3c0.4-0.1,0.6-0.6,0.9-0.9c-1.1-0.9-2.2-0.6-3.3-0.4
		c-1,0.2-2.1,0.5-3.1,0.9c-1.1,0.4-2.1,1-3.2,1.5c-0.9,0.4-1.4,1.6-2.7,1.6c-0.1-0.4-0.3-0.8-0.2-1.1c0.3-1.2,1.1-2.1,2.1-2.8
		c1.4-1.1,3-1.9,4.7-2.5c1-0.3,1.9-0.7,2.9-1c-0.6-2.7-2.5-4.2-4.5-5.5c-0.6-0.4-1.6-0.5-2.4-0.4c-1.2,0.1-2.3,0.7-3,1.8
		c-0.8,1.2-1.6,2.4-2.3,3.6c-1.6,2.8-3.7,5.1-6.5,6.8c-1.8-0.6-2.6-2.2-3.7-3.4c-1.1-1.2-1.9-2.7-3.7-3.3c-0.4,0.6-0.9,1-1,1.5
		c-0.5,1.7-0.9,3.4-1.3,5.2c-0.3,1.2-0.6,2.3-0.6,3.5c-0.2,3.4-0.5,6.8-1.7,10.1C638.9,576.5,638.6,578.2,637.1,579.9z M644.1,587
		c-3.7-3.9-8.2-4.8-11.9-6.9c-1.1,0.3-1.8,1.5-3.1,0.7c0.5-0.8,0.9-1.5,1.4-2.1c-1.3-0.8-1.3-0.9-1.9-0.7c-2.3,0.6-4.5,1.3-7,2.1
		c-0.1-0.4-0.3-0.9-0.1-1.3c0.3-1.1,1.2-1.7,2.1-2.3c0.9-0.5,1.7-0.9,3-1.6c-4.4-1.5-7.1,1.5-10.2,2.6c-0.7-0.6-0.5-1.2-0.1-1.7
		c1.5-2,3.5-3.2,5.8-3.8c0.5-0.1,1-0.3,1.5-0.4c0-0.9-0.5-1-1-1c-0.9,0-1.9,0.4-2.8,0.2c-1.2-0.2-2.2,0-3.1,0.5
		c-1.6,0.9-3.2,2-4.8,3c-0.5,0.3-0.9,0.8-1.8,0.2c-0.1-1.5,0.9-2.5,1.8-3.5c2.1-2.2,4.7-3.5,8-3.5c-0.2-0.4-0.2-0.8-0.4-1
		c-0.3-0.4-0.7-0.6-1.1-1c-1.4,0.5-2.7,0.9-4,1.5c-1.2,0.5-2.3,1.2-3.4,1.9c-1.2,0.7-2.3,1.5-3.4,2.3c-0.8-0.6-0.7-1.1-0.3-1.6
		c1.7-2.2,3.9-3.8,6.3-5.2c0.8-0.5,1.6-0.9,2.3-1.3c-0.1-1.4-0.8-2.2-1.6-2.9c-1.4-1.4-3.4-1.2-4.7,0.2c-0.8,0.9-1.5,1.9-2.5,2.5
		c-2.9,1.8-5.2,4.1-7.2,6.8c-0.9,1.3-2.3,2.1-3.7,2.6c-1.8,0.7-3.4,0.7-4.8-0.9c-0.9-1.1-2-2-3-3c-0.2-0.2-0.6-0.3-0.8-0.4
		c-0.8,0.4-0.7,1-0.8,1.6c-0.1,1.8-0.1,3.6-0.1,5.3c0,1.9-0.2,3.8-0.6,5.6c-0.7,3.5-1.4,6.9-2.8,10.4c0.9,0.4,1.5,0.9,2.3,1.2
		c3.8,1.2,7.6,2,11.5,1.2c1.9-0.4,3.7-0.6,5.6,0.1c0.4,0.2,0.9,0.2,1.4,0.2c2.2,0.2,4.5,0.2,6.6,1.1c0.4,0.2,1,0.2,1.4,0.1
		c1.6-0.7,3.1-0.1,4.5,0.3c3.3,0.9,6.7,1.4,10.2,1.4c3.2,0,6.4,0.1,9.6-0.1c2.1-0.1,4.2-0.5,6.3-0.9c1.1-0.2,1.6-1,1.6-2.1
		C644.4,591,644.2,588.9,644.1,587z M546.7,49c-0.8-1.8-2.1-2.3-3.7-2.8c-10.6-3-21.2-6.1-31.8-9.1c-9-2.5-18.1-5-27.1-7.5
		c-1.1-0.3-2.2-0.5-3.4-0.8c-0.1,0.8-0.1,1.4-0.2,2c-0.1,0.7-0.1,1.4-0.3,2.1c-0.2,0.5-0.6,0.8-1,1.3c0.5,0.3,0.8,0.5,1.1,0.6
		c20.1,5.6,40.3,11.1,60.4,16.7c1.5,0.4,3,0.4,4.7,0.2C545.9,50.7,546.3,49.8,546.7,49z M673.6,82.8c-2.7-0.6-5.1-1-7.3-1.7
		c-2.3-0.6-4.5-1.6-6.7-2.3c-1-0.3-2-0.6-3.1-0.9c-1.8-0.5-3.7-0.8-5.5-1.3c-6.4-1.8-12.8-3.6-19.2-5.4c-2.2-0.6-4.4-1.1-6.3-2.3
		c-0.5-0.3-1.1-0.4-1.7-0.6c-2.5-0.7-5-1.3-7.6-2c-1.1-0.3-2.3-0.5-3.5-0.8c-0.5,2,0.1,3.8-0.1,5.6c0.5,0.2,0.8,0.5,1.1,0.6
		c5.2,1.5,10.5,3.1,15.7,4.5c6.2,1.7,12.4,3.3,18.6,4.9c6.7,1.8,13.6,3.4,20,6.2c1.5,0.6,2.9,0.9,4.6-0.1
		C672.9,86,673.2,84.6,673.6,82.8z M710.6,100.7c0.3,4.2,2,6.9,5.2,8.5c2.9,1.5,5.8,0.8,8.5-0.6c0.7-0.4,1.3-1,1.9-1.6
		c3.6-3.7,4.5-9.5,2.4-14.2c-1.4-3-3.6-5-7.1-5.2c-3.8-0.3-6.5,1.4-8.7,4.7c0.6,0.3,1,0.5,1.4,0.6c2,0.6,4.1,1.3,6.2,1.8
		c1.4,0.3,2.4,1.1,2.9,2.3c0.3,0.6,0.5,1.3,0.8,1.8c-1.5,3.2-2.6,3.9-5.8,3.6c-1.2-0.1-2.3-0.3-3.5-0.6
		C713.6,101.6,712.4,101.2,710.6,100.7z M541.2,53.4c-1.7-0.9-2.7-1-3.9-0.3c-1.6,1-3.3,1.8-4.9,2.8c-2.4,1.5-4.6,3.4-6.5,5.5
		c-0.4,0.5-0.9,1.3-0.9,1.9c0.1,1.1,0.4,2.3,0.9,3.4c0.5,1,1.1,2,2.5,2.4C532.1,63.5,535.3,57.6,541.2,53.4z M763.6,113.6
		c3.7,1.1,7.1,2.2,10.5,3.2c0.7,0.2,1.4,0.2,2.1,0.2c1.2-0.1,2.3-1.1,2.5-2.1c0.2-0.9-0.4-2.2-1.4-2.7c-0.5-0.3-1.1-0.5-1.6-0.6
		c-3.1-0.9-6.1-1.7-9.2-2.5c-0.5-0.1-1.1,0-1.7,0C764.3,110.5,764,111.9,763.6,113.6z M543.2,53.9c-0.2-0.1-0.4-0.2-0.6-0.3
		c-0.3,0.3-0.7,0.6-0.7,1c-0.2,0.9,0,1.9-0.3,2.8c-1.5,4.8-2.1,9.7-3,14.6c0,0.2,0,0.5,0.1,0.9c0.4,0.3,1,0.7,1.7,1.2
		c0.7-0.7,1.3-1.2,1.8-1.9c2.1-3.5,2.5-7.4,2.2-11.3c-0.1-1.2-0.7-2.3-0.9-3.4C543.2,56.2,543.2,55.1,543.2,53.9z M543,44.1
		c1.7,0.8,2.7,1.3,3.7,1.9c1.5,1,1.9,2.4,1.4,4c-0.5,1.5-1.3,2.8-2.9,3.3c-0.4,0.1-0.7,0.5-1.2,0.9c0.3,0.9,0.6,1.8,0.9,2.6
		c2.9,0.5,4.3-1.5,5.8-3.1c1.3-1.4,1.7-3.1,1.4-5c-0.3-2.1-1.5-3.8-3.3-4.8C547.2,43,545.3,43.1,543,44.1z M596.4,62.9
		c1.3-4,1.1-7.4-1.2-10.6c-1.4,0.1-2.9,0-4.4,0.9c0.6,1.4,1.1,2.7,1.6,4c0.3,0.8,0.5,1.5,0.3,2.4c-0.4,1.5,0,2.4,1.2,2.8
		C594.7,62.7,595.5,62.7,596.4,62.9z M629.8,323.5c3.3,1,5.8,1.1,8.9,0.6c0-0.2,0.1-0.5,0-0.7c-0.1-0.2-0.2-0.5-0.4-0.5
		c-2.5-1-5-2-7.8-2C630.3,321.8,630,322.5,629.8,323.5z M587.6,64.4c2.9,1.1,5.7,1.8,8.6,2.5c0.4,0.1,0.9,0.1,1.4,0
		c0.3-0.1,0.6-0.3,0.9-0.5c0.4-0.3,0.4-1-0.1-1.2c-0.3-0.1-0.7,0-0.9,0.2c-0.3,0.3-0.5,0.6-0.8,1c-0.6-0.3-1-0.6-1.4-0.7
		c-1.2-0.5-2.6-0.7-3.5-1.5c-1.1-0.8-1.7-2.1-2.7-3.3C587.9,61.8,588,63.1,587.6,64.4z M600.2,63.5c0.6-0.6,0.2-1,0.2-1.5
		c0-0.6,0-1.2,0.2-1.7c0.6-1.6,0.3-3-0.3-4.4c-0.2-0.5-2.5-3-3.1-3.4c0.1,0.4,0.2,0.7,0.3,1c1.2,2.3,1.9,4.8,1.5,7.5
		c-0.1,0.7,0.1,1.4,0.3,2.1C599.4,63.2,599.9,63.3,600.2,63.5z M477.2,27.8c-0.7,0.5-1.5,0.9-2,1.4c-0.7,0.6-0.8,1.9-0.3,2.6
		c0.4,0.7,1.1,0.8,1.8,0.9c1.6,0.2,2.5-0.9,2.3-2.3C478.8,29.5,478.5,28.6,477.2,27.8z M681.3,85.8c1.2-3,1.1-3.5-1-3.8
		C680.5,83.1,680.8,84.1,681.3,85.8z M602.6,54.4c0.6,2.4,0.6,2.4,2.2,3C604.7,56,604.9,54.5,602.6,54.4z M631.7,155
		c1.6,0.7,1.6,0.7,2.4,0.4c-0.5-0.6-1-1.2-1.6-1.9C632.2,154,631.9,154.5,631.7,155z M645.7,155.4c-0.2,0.1-0.3,0.3-0.5,0.4
		c0.5,0.4,1.1,0.9,1.7,1.3c0.5,0.3,0.9,0.2,0.9-0.6C647.1,156.2,646.4,155.8,645.7,155.4z M655.7,157.2c2.6,0.2,2.6,0.2,4.2-1
		C658.3,156.5,657.3,156.8,655.7,157.2z M594.8,554.5c-0.9,1.1-0.9,1.1-0.4,2.4C594.6,556,594.7,555.3,594.8,554.5z M638.4,155.3
		c-0.7,0.8-1.5,1.2-0.6,2.1C639.1,156.9,639.1,156.9,638.4,155.3z M621.9,194.1c0.1,0,0.2,0,0.3,0c0-0.4,0.1-0.9,0.1-1.3
		c-0.1-0.5-0.1-1.1-1-0.9C621.5,192.7,621.7,193.4,621.9,194.1z M673,331.2c-0.1-0.2-0.1-0.4-0.2-0.6c-0.3,0.1-0.7,0.1-0.8,0.3
		c-0.1,0.2-0.1,0.6,0,0.9c0,0.1,0.5,0.2,0.6,0.2C672.7,331.8,672.8,331.5,673,331.2z M623.1,167.9c0.3-0.5,0.5-1,0.7-1.5
		c0,0-0.2-0.2-0.3-0.2c-0.5-0.1-1.1,0.4-1,1C622.5,167.4,622.8,167.5,623.1,167.9z M650.9,558.7c0.4,0.3,0.6,0.6,0.9,0.7
		c0.1,0,0.4-0.2,0.5-0.4c0.3-0.4-0.1-0.6-0.4-0.6C651.7,558.4,651.4,558.5,650.9,558.7z M632.3,172.6c-0.2-0.2-0.4-0.5-0.6-0.6
		c-0.1-0.1-0.4,0.1-0.5,0.2c0.2,0.2,0.3,0.5,0.5,0.7C631.7,173,632,172.8,632.3,172.6z M622.8,178.3c0.2-0.1,0.4-0.2,0.5-0.3
		c0.1-0.1,0-0.4,0-0.6c-0.2,0.1-0.5,0.2-0.5,0.3C622.7,177.8,622.8,178.1,622.8,178.3z M721.7,140.9c0-0.1,0-0.2,0-0.3
		c-0.3,0.1-0.6,0.1-0.9,0.2C721,140.9,721.4,140.9,721.7,140.9z M654,147.4c-0.2-0.1-0.5-0.3-0.6-0.2c-0.1,0.1-0.2,0.4-0.2,0.6
		c0,0.1,0.4,0.3,0.5,0.2C653.8,147.8,653.9,147.6,654,147.4z M642,165.5c-0.1-0.1-0.1-0.2-0.2-0.3c-0.2,0.1-0.3,0.2-0.5,0.3
		c0.1,0.1,0.2,0.2,0.3,0.3C641.8,165.7,641.9,165.6,642,165.5z M621.4,170.2c-0.1,0.2-0.4,0.3-0.4,0.5c0,0.2,0.2,0.4,0.3,0.6
		c0.1-0.2,0.4-0.4,0.4-0.5C621.7,170.6,621.5,170.4,621.4,170.2z M629,151.7c0.1-0.1,0.2-0.2,0.2-0.3c-0.2-0.1-0.4-0.2-0.5-0.2
		c-0.1,0-0.2,0.1-0.3,0.2C628.7,151.5,628.9,151.6,629,151.7z M627.2,155.6c-0.1-0.2-0.1-0.4-0.2-0.6c-0.1,0.1-0.2,0.2-0.2,0.3
		c0,0.2,0.1,0.4,0.2,0.6C627,155.8,627.1,155.7,627.2,155.6z M639.2,170.4c0-0.1,0-0.2-0.1-0.3c0,0.1-0.1,0.2-0.1,0.2
		c0,0.1,0,0.2,0.1,0.3C639.1,170.5,639.2,170.4,639.2,170.4z M628,169.6c-0.1-0.1-0.1-0.2-0.2-0.3c-0.1,0.2-0.2,0.4-0.3,0.6
		c0,0.1,0.1,0.2,0.2,0.3C627.8,169.9,627.9,169.8,628,169.6z M589.8,56.9c0,0.1-0.1,0.2-0.1,0.3c0.1,0.4,0.3,0.4,0.4,0
		c0-0.1,0-0.2-0.1-0.3C590,56.8,589.9,56.9,589.8,56.9z M657.2,158.8l0.3-0.1l-0.3-0.1L657.2,158.8z M676.3,329.3l-0.2,0l0.1,0.3
		L676.3,329.3z M632.9,147.2c-0.1-0.1-0.2-0.3-0.2-0.3c-0.2,0-0.4,0.1-0.7,0.2c0.1,0.1,0.2,0.3,0.2,0.2
		C632.5,147.4,632.7,147.3,632.9,147.2z M626.4,175.1l-0.1-0.1l0,0.2L626.4,175.1z M638.4,166.9c0,0.2,0,0.4,0,0.5
		c0.1-0.1,0.2-0.2,0.2-0.2C638.7,167.1,638.5,167,638.4,166.9z"/>
	<path d="M292.4,266.7c-0.2,1.2,0.2,2.3,0.7,3.4c1.2,2.8,1.7,5.7,1.6,8.7c0,0.5-0.1,0.9-0.2,1.3c-1,0.2-1.1-0.4-1.2-0.9
		c-0.3-1.9-0.5-3.8-0.9-5.6c-0.9-4.1-2.4-7-5.4-10.4c-1,1.5-2,2.9-3.2,4.7c0,3.3,0.6,6.9,1,10.6c0.4,3.4,1.3,6.7,1.2,10.2
		c-0.1,2.1,0.2,2.6,1.5,4.9c-0.6-0.1-1.1-0.2-1.9-0.4c-1,2.5-1,5.3-1.7,7.9c4.7,4.9,9.7,8.8,17.3,7.5c0.3-0.6,0.9-1.3,1-2.1
		c0.5-3.5,2.1-6.5,3.3-9.7c1.3-3.4,2.8-6.8,4.1-10.2c0.3-0.9,0.7-1.8,0.7-2.7c0.1-6.9,0.5-13.8-0.3-20.7c-0.8-7.2-0.3-14.5-0.4-21.7
		c0-0.8-0.2-1.7,1-2.2c0.1,0.6,0.2,1.1,0.2,1.7c0,2.3,0.1,4.5,0,6.8c-0.1,4.4-0.1,8.8,0.7,13.1c0.9,5.7,0.7,11.4,0.7,17.1
		c0,1.7-0.3,3.3,0.4,4.9c0.2,0.5,0.1,1.2,0.1,1.8c-0.9,6.1-2.6,11.8-6.4,16.8c-1,1.4-1.7,2.9-1.9,4.5c-0.2,1.5-1,2.6-2,3.7
		c-0.7,0.1-1.4,0.2-2.1,0.3c-4.8,1.2-8.9-0.2-12.7-3.1c-1.4-1.1-2.7-2.2-4.4-3.5c-0.6,4-1.2,7.7-1.6,11.4c-0.4,3.8-0.6,7.5-0.9,11.4
		c1.3,1.2,2.1,2.5,2.5,4.2c0.6,2.6,2,5,3.1,7.5c1.1,2.7,2.2,5.5,3.3,8.2c0.5,1.2,0.8,2.5,0.3,3.8c-0.1,0.4-0.1,0.9,0,1.4
		c1.5,8.7,1.7,17.5,1.7,26.3c0,4.8,0,9.5-0.7,14.2c-0.2,1.5-0.2,3.1,0,4.6c0.9,6.5,0.8,13,0.8,19.6c0,1.5,0.3,2.8,0.8,4.1
		c0.6,1.5,0.9,3.2,1.2,4.8c0.9,5.1,0,10.2-0.3,15.3c-0.1,1.5-1.2,2.6-2.7,2.8c-1.3,0.2-2.6,0.1-3.9,0.2c-2.3,0-4.5,0-6.8,0
		c-1.7,2.1-2.8,4.1-2.8,6.8c0,2.6-0.4,5.2-0.7,7.8c-0.1,1.4-0.6,2.8-1.7,3.8c-0.4,0.4-0.6,1-0.9,1.4c0.1,1.1,0.3,2,0.3,2.9
		c0.2,8.8,0.3,17.6-0.3,26.4c-0.3,4.5-1,9-1.4,13.5c-0.3,3.4-0.7,6.8-1.4,10.2c-0.2,0.9-0.3,1.9-0.3,2.8c0.1,8.8-0.5,17.5-1.3,26.3
		c0,0.1,0.1,0.2,0.1,0.5c0.4,0.2,0.9,0.5,1.4,0.8c1.6,1,2.9,2.3,3.9,4c1.3,2.3,2.6,4.6,4.4,6.4c2.5,2.5,5.1,4.9,8.3,6.6
		c1.2,0.6,2.2,1.4,3.3,2c0.7,0.4,1.4,0.8,2.2,1.2c0.9,0.5,1.9,0.9,2.8,1.4c1.5,0.8,3.1,1.3,4.8,1.3c1.7-0.1,2.9,0.8,4.2,1.8
		c2.3,1.8,3.5,4.2,3,7.1c-0.3,1.8,0,3.5,0.3,5.3c-1.4,1.8-3.5,2.3-5.6,2.7c-3,0.7-6,1.2-9.1,1.8c-2.1,0.4-4.3,0.4-6.4,0
		c-1.9-0.4-3.7-0.4-5.7-0.3c-6.2,0.4-11.3-0.3-18.2-3.3c-2.2,0.5-4.2,1.1-6.3,1.3c-2.1,0.2-4.2,0-6.4,0c-0.5,1.4,0,2.7,0.1,3.9
		c0.1,1.3,0.3,2.6,0.5,4.1c-0.7,0.4-1.5,1-2.3,1.3c-2.5,1.1-5.2,1.7-7.9,2c-3,0.3-5.9,0.4-8.9,0.9c-5.1,0.7-10-0.1-14.7-2
		c-1.9-0.8-3.8-1.4-5.8-1.3c-0.2,0-0.5,0-0.7-0.1c-3.9-0.8-7.7-0.8-11.6,0c-2.9,0.6-5.6-0.3-8.4-0.8c-2.5-0.4-4.2-2-5.6-4.4
		c0.4-0.8,0.9-1.8,1.3-2.7c0.9-1.7,1.6-3.4,1.4-5.4c0-0.3-0.1-0.7,0-1.1c1.1-3,0.8-6.1,1.2-9.1c0.5-4,1.6-7.9,3.5-11.8
		c0.8-0.1,1.7-0.3,2.7-0.4c0.1-0.2,0.4-0.5,0.5-0.8c0.9-4.4,1.8-8.8,1.5-13.4c-0.4-5.7-0.4-11.4-0.7-17.1
		c-0.3-5.9-0.7-11.9-1.4-17.8c-0.9-8.2-0.4-16.4,0.8-24.5c0.1-0.9,0.5-1.8,0.9-2.7c2.1-4.8,4.2-9.6,6.3-14.4
		c0.5-1.2,1.1-2.4,1.8-3.5c1.4-2.6,2.7-5.3,4.3-7.8c1.7-2.8,2.4-5.9,2.4-9.2c0.1-3.3,0-6.6,0-10.1c-0.4-0.1-0.8-0.2-1.3-0.4
		c-1.4-0.3-2-0.8-2-2c-0.1-1.2-0.2-2.4,0.1-3.5c1.1-4.1,1-8.2,1.1-12.4c0.1-3.7,0-7.4,0.6-11c0.3-2,0.4-4,0.3-6
		c-0.2-6.4-0.5-12.8-0.7-19.2c-0.1-2.8-0.3-5.7-0.3-8.5c0-5.8,0.1-11.6,0.3-17.5c0.1-3.2,0.4-6.4,0.6-9.8c1-0.5,1.8-1.3,2.2-2.7
		c1.5-4.9,3.1-9.7,4.8-14.5c0.6-1.8,1.3-3.6,2.1-5.3c0.8-1.7,1.9-3.2,1.9-5.3c0-1.5,1-2.6,2.6-3c-1-4.3-1-8.3-0.8-12.4
		c0.2-3.6-1-7-2.2-10.6c-1.1,0.3-1.9,1.1-2.9,1.4c-1,0.3-2.1,0.6-3.1,0.9c-2.9,0.9-5.7,0.1-8.4-0.8c-2-0.7-3.6-2.4-4.5-4.4
		c-0.8-1.6-1.8-3-3-4.3c-1.6-1.8-2.9-4-4.1-6.2c-0.4-0.7-0.4-1.9-0.2-2.8c0.4-2.8,1-5.6,1.6-8.4c0.3-1.4,0.8-2.8,2-3.7
		c1.3-0.9,1.7-2.2,1.8-3.7c0.4-3.5,0.7-7.1,0.4-10.7c-0.2-2.2-0.7-4.2-2-6c-0.7-1.1-1.3-2.3-1.9-3.4c-0.8-1.5-1.4-3,0-4.6
		c0.1-0.2-0.1-0.6-0.2-1.2c-0.7,0.5-1.3,0.8-1.9,1.2c-4.2,3-9,4.7-14,5.9c-3.8,0.8-7.6,0.7-11.3,0.1c-7-1.1-13.4-4-19.5-7.6
		c-2.6-1.5-4.8-3.5-6.7-5.8c-5.4-6.2-8.4-13.4-9.8-21.4c-1-6-1.1-12.1-0.2-18.1c0.1-0.8,0.1-1.6,0.1-2.6c-10.3-3-20.9-4.7-31.2-8.6
		c-0.3-0.9-0.9-1.9-1.2-3.1c-0.3-1.1,0.1-2.2,0.9-2.9c1.7-1.4,3.4-2.3,5.8-1.5c3,1.1,6.2,1.7,9.3,2.5c5.3,1.4,10.6,2.8,15.8,4.2
		c0.9,0.2,1.8,0.3,2.8,0.5c0.4-0.9,0.7-1.7,1-2.4c2.2-6.1,5.3-11.6,9.3-16.7c3.3-4.2,7.1-7.7,11.5-10.6c5.4-3.5,11.3-5.4,17.7-5.8
		c2-0.1,4,0.2,6,0.4c3.9,0.4,7.7,1.3,11.4,2.7c0.5,0.2,1.2,0.2,1.4,1c-1.4-0.3-2.8-0.5-4.3-0.8c-0.2-0.1-0.5-0.2-0.3-0.2
		c-0.1,0,0.1,0,0.4,0.1c0.1,1,1.1,1.2,1.7,1.6c5.6,3.9,9.6,9.2,12.3,15.4c3.4,7.6,4.6,15.7,4.1,24c-0.4,7.8-2.2,15.3-5.3,22.4
		c-4,9.2-9.7,17.1-17.9,23.1c-4.5,3.3-9.5,5.4-14.9,6.4c-2.4,0.5-4.9,0.6-7.9,0.9c1,0.4,1.5,0.6,2,0.7c5,1.5,10.1,1.5,15.2,0.9
		c3.5-0.4,7-1.5,10.2-3.1c4.1-2,7.6-4.9,10.8-8.1c5.2-5.3,9.3-11.4,12.1-18.3c4.5-10.8,6.2-21.9,4.4-33.5c-1-6.4-2.9-12.5-6.6-17.9
		c-3.6-5.3-8.3-9.4-14-12.4c-0.8-0.4-1.9-0.5-2.3-1.5c1.5-0.2,2.7,0.9,3.9,1.5c5.9,2.7,10.3,7,13.8,12.4c4.8,7.5,6.8,15.8,7.2,24.6
		c0.1,3.2-0.1,6.4-0.2,9.7c2.2,1.6,4.5,3.2,7.9,2.1c0.4-2.2,0.6-4.4-0.2-6.8c-0.9-2.9-2-5.8-2-9c0-0.3,0-0.8-0.2-1
		c-1.4-1.9-0.7-4.1-0.8-6.2c0-0.9,0.1-1.9,0-2.8c-0.7-4.6-0.6-9.2,1-13.7c0.1-0.2,0.2-0.5,0.2-0.7c-0.4-2.1,0.8-3.5,2.4-4.8
		c-0.6-0.6-1-1.1-1.6-1.7c0.9-1.5,2.7-1.7,3.9-2.8c0.9,0.3,1.2-0.5,1.7-1c0.7-0.7,1.3-0.1,2,0.3c0.3-0.2,0.8-0.4,1.1-0.7
		c1.3-1.4,3-2,4.8-2.1c2-0.2,3.9-0.5,5.5-2c0.1,0,0.2,0,0.4,0.1c0.1,0.4,0.1,0.8,0.2,1.4c0.4,0,0.9,0.2,1.3,0.1
		c2.1-0.5,4.2-0.6,6.3,0.2c2.1,0.7,4.2,0,6.2-0.7c0.9-0.3,1.8-0.8,2.7-0.1c-0.1,0.4-0.1,0.9-0.2,1.5c2.7,0.5,5.6-0.4,8.2,1.8
		c0.1,0.2,0.4,0.8,0.7,1.4c0.3-0.1,0.5-0.1,0.7-0.2c0.5-0.5,0.9-1.1,1.3-1.7c0.1-0.2,0.4-0.2,0.6-0.3c0.8,0.6,1.6,1.3,2.5,2
		c-0.2,0.5-0.5,1-0.8,1.5l-0.2,0.2l0.1-0.3c1-0.1,2.1-0.2,3.5-0.3c1.1,0.4,2,1.4,1.2,2.9c-0.6,1.2,0.8,2.7-0.7,3.6
		c0.2,1.1-0.5,1.5-1.3,1.7c-1.9,0.6-3.8,1.2-5.8,1.8c-0.3,1.1-0.3,2.1,0,3.1c0.5,1.6,1,3.2,1.5,4.8c0.7,2.2,0.7,4.2-1.2,6
		c1.4,3.4,2.8,6.8,4.1,9.8c-0.2,1.9-1.7,2.3-2.5,3.4c0.1,0.8,0.2,1.6,0.3,2.5c-0.4,0.5-0.9,1.1-1.3,1.7c1.1,2,0.5,3.9-0.9,5.5
		c0.1,0.6,0.3,1.1,0.3,1.5c0.6,3-0.5,5.5-3.3,6.7c-0.6,0.3-1.4,0.2-2.1,0.2c-2.3-0.1-4.7-0.2-7.1-0.3c-0.7,2-0.8,4-1.1,6.2
		c0.8,0.3,1.5,0.7,2.2,0.9c7,1.7,14.1,3.3,21.1,5c1.8,0.4,3.7,0.9,5.5,1.4c0.9-0.5,1.7-1,2.6-1.3c1.5-0.6,2.9-0.7,4.5-0.2
		c1.9,0.6,3.9,0.9,5.9,1.4c1.7,0.3,3.1,1,4.1,2.5c1.1,0,2.3-0.6,3.1,0.3c0.7,0.8,1.1,1.8,1.7,3c3.5,1,7.2,2.2,11.1,3
		c0.4-0.9,0.7-1.6,1-2.4c1.8-4.5,4.3-8.5,7.4-12.1c5.6-6.6,12.6-10.7,21.1-12.4c0.5-0.1,0.9-0.1,1.4-0.2c4.2-0.4,8.4-0.4,12.4,0.5
		c15.7,3.3,26,12.5,30.3,28.2c1.3,4.7,1.7,9.6,1.4,14.5c-0.1,0.8-0.1,1.6-0.1,2.5c0.5,0.2,0.9,0.5,1.4,0.6c3.3,0.8,6.7,1.7,10,2.3
		c1.6,0.3,2.6,1.1,3.4,2.4c1,1.5,0.8,3.2-0.4,4.6c-0.6,0.7-1.5,1.2-2.3,1.9c-4.5-1.1-8.9-2.2-13.6-3.3c-0.3,0.6-0.7,1.2-1,1.8
		c-1,2.7-2.2,5.2-3.6,7.7c-2.7,4.9-6.2,9-10.6,12.3c-4.9,3.6-10.2,6.5-16.5,6.9c-2.2,0.1-4.5,0.1-6.7-0.3c-3.1-0.6-6.4-0.8-9.3-2.2
		c-0.8-0.4-1.8-0.5-2.7-0.8c-3.7-1.1-7.1-2.6-10.2-4.9c-0.4-0.3-0.7-0.9-1-1.4c0.5,0.2,1.1,0.4,1.6,0.7c1.5,0.8,2.9,1.7,4.3,2.5
		c4.6,2.5,9.7,3.4,14.8,3.2c6.2-0.2,11.8-2.7,16.7-6.4c5.8-4.3,10.2-9.9,13.2-16.5c4.6-10.4,5.4-21.1,2.2-32
		c-1.8-6.2-5-11.5-9.7-15.9c-10.2-9.6-23.6-10.4-35.5-3.6c-6.2,3.5-10.9,8.8-14.4,15c-1.3,2.2-2.5,4.5-3,7.4
		c3.2,0.8,6.3,1.6,9.4,2.4c3.2,0.7,6.3,1.9,9.6,2.1c0.8-0.9,1.5-1.8,2.2-2.5c1.3-1.3,2.8-2.2,4.5-2.7c1.2-0.3,2.3-0.5,3.4,0.2
		c-0.9,0.2-1.8,0.5-2.7,0.7c-1.5,0.4-2.9,1.2-4,2.3c-0.7,0.7-1.6,1.3-1.7,2.6c1,0.3,1.9,0.6,2.8,0.8c1.6,0.4,3.2,0.9,4.8,1.2
		c1.3,0.3,2.2,1,2.7,2.1c0.3,0.6,0.6,1.3,0.9,1.9c-0.3,1.3-0.7,2.4-1.8,3c-1.1,0.7-2.3,1-3.7,0.9c-2-0.1-4-0.7-5.9-1.1
		c-0.6-0.1-1.3,0-2,0.1c0.3,3,1.6,5.2,3.8,6.9c0.9,0.7,2,1.3,3.2,1.5c3.4,0.6,6.3-0.3,8.7-2.9c3.6-3.9,4.4-9.9,2-14.6
		c-1.1-2.2-2.8-3.8-5.2-4.6c-0.7-0.2-1.3-0.6-1.9-0.8c0.7,0,1.5-0.1,2.1,0c5.2,1.1,8.4,3.9,9.3,8.6c0.8,4.1,0,8-2.3,11.6
		c-2.5,3.7-6.4,5.2-10.8,4.3c-0.9-0.2-1.8-0.5-2.7-0.8c-3.5-1.1-5.6-3.5-6.8-6.8c-0.4-1-0.6-2-0.9-3.2c-2-0.8-4.1-1.1-6.1-1.6
		c-2.2-0.5-4.4-1.2-6.6-1.7c-2-0.4-4-1.3-6.2-1.3c-0.7,1.3-0.8,2.6-0.8,3.9c-0.1,3.3,0,6.6,0.5,9.9c1.4,8.4,4.8,15.9,11,21.9
		c0.5,0.5,0.8,1.1,1.2,1.7c-1,0.2-1.5-0.5-2.1-1c-2.2-2-4.1-4.3-5.6-6.9c-5.3-8.6-7.3-17.9-6.2-27.9c0.1-0.6,0.1-1.2,0.2-1.8
		c-1.7-1.1-3.6-1.3-5.3-1.6c-1.6,1.7-0.2,4.6-3,5.7c-0.1-0.4-0.5-0.8-0.4-1.1c0.1-1.5,0.4-3.1,0.6-4.8c-0.6-2.4-3-2.4-4.8-3
		c-0.9-1-1.7-1.8-2.4-2.7c-0.3-0.4-0.6-0.8-0.7-1.2c-0.2-2.2-1.8-3.2-3.5-4.1c-1.8-0.9-3.4-2-4.7-3.7c-0.8-1.1-1.1-1.1-3.7-0.5
		c-0.1,1,0.6,1.9,0.8,2.9c0.2,1.2,0.3,2.4,0.6,3.5c0.3,1.1,0.3,2.1-0.8,3c-1.3-0.2-2.6-0.5-4.2-0.8c0.3,1.4,0.5,2.5,0.8,3.6
		c2,1.4,4.4,1.9,6.1,3.7c1.7,1.7,3.6,3.1,5.6,4.8c0.1,3-0.3,6.2-0.9,9.3c-0.7,3.7-1.8,7.4-2.6,11c-0.2,1-0.5,2.1-0.6,3.1
		c-0.1,2.2-1.2,4-2.5,5.7c0.1-1.4,0.4-2.8,0.1-4.2c-0.2-0.8-0.1-1.7,0.2-2.5c1.2-2.9,1.3-6.2,3-9c1.2-2,1.9-4.3,1.2-6.8
		c-0.2-0.9-0.2-1.9,0-2.8c0.5-2.2-0.5-3.7-1.9-5c-0.6-0.6-1.2-1.1-1.8-1.7c-2-1.9-4.5-3-6.9-3.8c-0.9-0.9-0.8-2.1-1.8-2.8
		c-1.6-1.1-1.5-1.3-1.8-3.5c-5.7-1.4-11.4-2.8-17.4-4.2c1.6,2.6,3.7,4.2,6.2,5.4c1.7,0.8,3.3,1.9,4.8,3c1.9,1.4,3.2,3.1,3.9,5.4
		c0.4,1.2,1.1,2.3,1.8,3.4c3.2,4.9,5.1,10.1,5,16.1c0,1.7-0.1,3.3-0.1,5c0,0.9,0.1,1.9,0.2,2.6C288.9,263.2,290.7,264.9,292.4,266.7
		z M257.5,158.4c-0.5-0.1-0.8,0.1-0.7,0.7c-0.2,0-0.4-0.1-0.6,0c-0.1,0-0.1,0.3-0.2,0.4c0.1,0,0.2,0,0.3,0c0.1-0.1,0.2-0.3,0.4-0.5
		C257,158.7,257.2,158.5,257.5,158.4c0-0.2,0.7-0.1,0.1-0.6C257.6,158,257.6,158.2,257.5,158.4z M246.1,164.8
		C246.1,164.7,246.1,164.7,246.1,164.8c0.1-0.2,0.3-0.3,0.4-0.4c-0.1-0.1-0.2-0.1-0.3-0.2C246.2,164.4,246.2,164.6,246.1,164.8z
		 M254.5,161.8c-0.4,0.1-0.8,0.2-0.6,0.8c-1.3,0.2-1.3,0.2-1.8,1.4c0.9-0.1,1.5-0.6,1.7-1.5C254.4,162.5,254.7,162.3,254.5,161.8
		C254.4,161.7,254.7,161.6,254.5,161.8z M356.6,246.7c-0.5,0-0.8,0.2-0.7,0.7c-0.2,0-0.4,0-0.6,0c-0.1,0-0.2,0.1-0.3,0.1
		c0.2,0.1,0.4,0.3,0.4,0.2c0.2-0.1,0.2-0.3,0.3-0.5C356.3,247.4,356.6,247.2,356.6,246.7c0.5,0,0.7-0.2,0.7-0.7
		c0.3-0.1,0.7-0.2,0.9-0.4c2.8-3.3,3.9-7.1,2.8-11.4c-0.2-0.6,0-1.5-0.9-1.7c0-0.4,0-0.7,0-0.2c-0.2-0.4-0.1-0.1,0.1,0.2
		c0,0.6,0,1.2,0,1.8c0.4,3.8-0.5,7.3-2.5,10.5c-0.2,0.4-0.3,0.9-0.4,1.3C356.8,245.9,356.6,246.2,356.6,246.7z M240.4,174
		c-0.1-0.1-0.1-0.1-0.2-0.2c0,0-0.1,0-0.1,0C240.2,173.8,240.3,173.8,240.4,174c0.1,0.2,0,0.5,0,0.8c-1-0.2-1.9-0.5-2.9-0.7
		c-0.5-0.2-1-0.5-1.5-0.7c-0.2-0.6-0.7-0.7-1-0.3c-0.9,1.1-1.7,2.3-2.5,3.4c-0.7,1-0.8,2.2-0.6,3.4c0.2,1.1,0.9,1.9,1.9,2.3
		c0.5,0.6,1,1.1,1.6,1.7c0.5,0.5,0.9,1,0.7,1.8l0.1-0.1c-1.5-0.1-2.3-1.5-3.6-2.1c-0.1-0.1-0.2-0.1-0.2-0.2c0.1,0,0.2,0.1,0.3,0.1
		c0.6,2.8,0.5,3.1-1,5.2c-0.6,0.7-1.2,1.5-1.7,2.2c0.3,1.9,0.4,3.5-1,5c-1,1-0.2,2.4,1.2,2.5c0.6,0.1,1.2,0,1.8,0
		c3.1,0.3,4,1.3,4.2,4.5c0,0.2,0.1,0.4,0.2,0.8c0.5,0.2,1,0.4,1.6,0.5c4.3,1.3,8.7,2,13,3.5c1.1,0.4,2.2,0.8,3.4,1.1
		c0.6,0.2,1.3,0,2,0c0.6-2.7,1.1-5.2,1.6-7.8l-0.1,0.1c1.5,0.3,3,0.5,4.5,0.7c2.1,0.3,4.2,0.5,6.3-0.2c1.5-0.5,2.4-1.6,2.4-3.2
		c0-0.3-0.1-0.7-0.2-1c-0.6-1.8-0.3-3.5,0.8-5.1c0.1-0.2,0.1-0.4,0.2-0.9c-0.3-0.3-0.7-0.7-1-1.1c-0.9,0.3-1.7,0.5-2.5,0.7
		c-0.1,0-0.2-0.1-0.3-0.2c0-0.2-0.1-0.5,0-0.6c0.5-0.3,1-0.5,1.6-0.7c1.1-0.4,2.3-0.6,2.9-2c-0.2-0.7-0.3-1.4-0.5-2.2
		c-1-0.2-2.1,0.3-2.7-0.7c-0.5-0.7-0.7-1.2,0-1.8c0.6,0.2,1.3,0.5,1.9,0.7c0.7,0.1,1.4,0.1,2.1,0c1.1-0.1,1.8-1,1.4-2
		c-0.3-1-0.8-2-1.2-2.9c-0.8-1.6-1.6-3.2-2.5-4.7c-0.5-1-0.6-2.2,0.2-3c1.6-1.7,1.2-3.4,0.5-5.2c-0.9-2.3-1.4-4.7-1.5-7.1
		c-0.4-0.2-0.8-0.4-1.1-0.6c2.1-0.8,4.2-1.6,6.3-2.5c0.5-0.2,1.1-0.6,1.5-1c0.3-0.4,1-0.7,0.5-1.4c-3.8,2.8-8.3,3.7-12.8,5
		c0,0.5,0,1,0,1.2c-1.5,1.6-3.2,0.7-5.1,0.7c-0.4,2.1-2.3,3.1-3.8,4.4c-2.2,2-4.3,4-6.3,6.2c-1,1.1-1.7,2.5-2.4,3.9
		c-0.9,1.8-1,3.6,0.5,5.3c0.1,0.1-0.1,0.3-0.2,0.5c-0.7-0.2-1.3-0.4-1.6-0.4c-0.9,0.2-0.6,1.3-1.8,0.9c-0.4-0.8-0.8-1.7-1.3-2.7
		c-0.6-1.1-1.3-2.3-1.9-3.4c0.1-0.1,0.3-0.1,0.3-0.2C240.5,174.3,240.5,174.1,240.4,174z M256,155.4c-0.1-0.1-0.1-0.2-0.2-0.3
		c0,0-0.1,0-0.2,0c0.2,0.1,0.3,0.2,0.5,0.2c0.1,1.1,0.1,1.1,0.8,1.1C256.6,156.1,256.3,155.7,256,155.4z M266.6,149.1
		c0.1-1.4,0.1-1.4-1.8-1.2c0.8,0.5,1.4,0.8,1.9,1.2c0.4,0.7,0.1,1.7,1,2c1-0.2,1.3-0.8,0.9-1.7C267.9,149.3,267.3,149.2,266.6,149.1
		z M370.8,202.6c0-0.1,0-0.2-0.1-0.3c0-0.1-0.1-0.1-0.1-0.1C370.7,202.3,370.8,202.4,370.8,202.6c0.5,0.2,0.8,0.5,1.2,0.8
		c8.6,6.5,13.5,15.1,15.2,25.7c1.2,7.5,0.4,14.9-2,22.1c-2.8,8.3-7.6,15.2-14.4,20.7c-0.8,0.7-1.7,1.2-2.7,1.8
		c-5.1,3-10.4,5.3-16.5,5.4c1,0.2,1.9,0.2,2.8,0.5c4.7,1.3,9.2,0.5,13.6-1.2c6.6-2.5,12.1-6.7,16.2-12.4c9-12.3,11.7-26,7.5-40.8
		c-2.6-9.2-8.1-16.2-16.3-21.2C374,203.2,372.5,202.4,370.8,202.6z M241.8,222.4c0.1,0.2,0.1,0.5,0.2,0.6c4.3,4.9,8.9,9.5,14.1,13.5
		c4.2,3.2,8.8,5.6,13.9,6.9c0.4,0.1,0.9,0.1,1.3,0.1c-0.1-1-0.2-1.8-0.3-2.6L271,241c0.6,0.9,1.1,1.8,1.7,2.6
		c0.5,0.8,1.2,1.1,2.2,0.8c1.1-0.9,1.4-2.2,1.7-3.4c0.7-3.6,0.5-6.9-2.7-9.3c-1.7-1.3-3.4-2.5-5.1-3.8c-1.4-1.1-3-2-4.2-3.2
		c-0.7-0.7-1.2-1.8-2.2-2.3c-0.9-0.4-1.9-0.6-2.9-0.9c-0.6-1.1-1.2-2.1-1.7-3c-6.9-1.7-13.5-3.9-20.5-5.2c-0.5,1.4-0.4,2.7-0.2,4.2
		c1.3,1.3,2.7,2.7,4.1,4.2C241.3,221.9,241.6,222.2,241.8,222.4z M224.8,566c0,0.1,0.1,0.3,0.1,0.4c0-0.1,0.1-0.1,0-0.2
		C224.8,566.2,224.7,566.2,224.8,566c-0.5-0.5-0.9-1-1.3-1.5c-1.7-0.1-3,0.4-4.3,1.1c-1.3,0.6-2.5,1.4-3.7,2.1
		c-1.2,0.6-2.1,1.8-3.7,2c0-0.6-0.1-1,0-1.2c2.1-3.4,5.7-4.9,9-7c-0.6-0.9-1-1.8-1.7-2.5c-1.5-1.6-3.5-1.6-5-0.1
		c-0.9,0.9-1.7,2-2.8,2.7c-2.7,1.7-4.8,3.8-6.7,6.3c-1.1,1.5-2.6,2.5-4.3,3c-1.5,0.5-3,0.4-4.3-0.9c-1.3-1.3-2.7-2.5-4.3-4
		c-0.2,0.9-0.5,1.6-0.5,2.2c-0.1,2-0.1,4-0.1,6.1c0,1.2-0.1,2.4-0.3,3.5c-0.8,3.8-1.8,7.6-2.7,11.6c0.9,0.9,2.3,1.3,3.6,1.6
		c3.7,1,7.5,1.2,11.3,0.5c0.9-0.2,1.8-0.3,2.8,0c3.1,1,6.4,0.5,9.4,1.6c0.4,0.2,1,0.2,1.4,0.1c1.8-0.4,3.5,0.2,5.2,0.6
		c4.6,1.2,9.3,1.6,14.1,1.1c0.8-0.1,1.7-0.2,2.5,0c2.8,0.6,5.4-0.1,8.1-0.7c0.8-0.2,1.5-0.7,2.4-1.1c-0.1-2.6-0.2-5-0.3-7.2
		c-1.7-2-3.6-3.1-5.7-4c-2-0.8-3.8-1.8-5.8-2.8c-0.2-0.1-0.5-0.1-0.7-0.1c-0.8,0.2-1.5,1.2-2.5,0.9c-0.6-1.2,1.3-1.5,0.6-2.8
		c-3-0.9-5.5,1.2-8.2,1.8c-0.8-0.6-0.5-1.3-0.1-1.9c0.8-1.2,2.1-1.9,3.4-2.5c0.3-0.1,0.5-0.6,1-1c-2-0.5-3.6-0.2-5.1,0.5
		c-1.3,0.6-2.5,1.3-3.8,1.9c-0.4,0.2-0.8,0.1-1.4,0.1c1.2-3.1,2-3.6,8.2-6.1c-0.5-0.3-0.9-0.7-1.3-0.7c-1,0-2.1,0.4-3.1,0.3
		c-1.3-0.1-2.4,0.1-3.4,0.7c-1.3,0.8-2.6,1.7-3.9,2.5c-0.6,0.4-1.2,0.7-2,1.3c-0.1-0.8-0.2-1.3-0.1-1.6c0.6-1.5,1.6-2.6,2.8-3.6
		C219.7,567.1,222.1,566.3,224.8,566z M201.2,285.2c0.9,1.8,1.7,3.7,2.9,5.3c1,1.4,2.2,2.9,4,3.3c2.3,0.6,4.6,0.9,7.1,0.6
		c1.7-0.3,3.1-0.9,4.2-2.3c0.7-0.9,1.5-1.9,2.5-2.5c2.2-1.2,3.6-3.2,4.6-5.2c3.6-7.6,4.7-15.6,3.5-23.9c-0.6-4.1-1.4-8.2-2-12.3
		c-0.5-3.8-0.9-7.5-1.1-11.3c-0.2-2.9-0.1-5.9,0.6-8.8c0.6-2.5,0.7-5.1,1.1-7.8c1.9-0.3,3.4-1.3,4.7-2.5c1.1-1,1.8-2.1,1.9-3.6
		c0-1,0.5-2,0.7-2.8c-0.1-2-0.3-3.9-0.4-6c-1.4-0.5-2.8-1.5-4.7-1.1c0,0.9,0,1.6,0,2.2c0.8,0.9,2,0.8,2.4,1.9c-0.7,0.6-1.3,1-2,1.6
		c-0.6,0.5-0.9,1.3-2,1.3c-0.8,0-1.5,0.4-2.3,0.6c-3.4-2.3-7-3.4-11.4-3.6c-0.8,2-1.6,4.1-2.3,6.1c0.4,0.4,0.6,0.7,0.9,0.9
		c1.7,1.4,2.7,2.9,2.1,5.2c-0.3,1,0.1,2.1-0.1,3.2c-0.5,4.7-0.6,9.5-3,13.8c-0.2,0.4-0.3,0.9-0.4,1.4c-0.9,4.7-2.5,9.2-4.2,13.6
		c-0.3,0.8-0.6,1.6-0.6,2.4c0.1,1-0.3,1.9-0.7,2.7c-2.4,4.3-5.1,8.3-9.2,11.1c-0.3,2.3-0.7,4.5-1,6.7c-0.1,0.6-0.1,1.2-0.2,1.8
		c-0.2,1.1-0.2,2.2,0.4,3.1c1,1.6,1.4,3.6,3.2,4.4C200.7,284.7,200.9,284.9,201.2,285.2z M189.7,152.5c-2.2-0.1-4-1.4-5.9-2.3
		c-1.3-0.6-2.6-1.2-4-1.3c-4.3-0.1-8.5,0.3-12.5,2.1c-3.5,1.5-6.8,3.5-9.7,6c-6.7,5.7-11.6,12.8-14.7,21.1c-0.2,0.6-0.6,1.3,0.1,2.3
		c8.5,2.1,17.2,4.3,26,6.5c1.8-2.1,4-2.4,6.5-2.4c1.9,0,3.2,0.7,4.3,2.1c0.6,0.8,1.1,1.5,1.6,2.3c2.3,3.8,1.5,7.8-2.3,10.2
		c-1.6,1-3.4,1.6-5.2,2.4c0,0,0,0.3,0,0.4c1.5,4,1.7,8.1,0.6,12.2c-0.4,1.5-1,2.9-2.1,4.1c-1.4,1.6-3.3,2-5.1,0.9
		c-0.8-0.4-1.6-1.1-2.2-1.8c-1.2-1.5-1.6-3.1-0.6-5c0.5-0.9,0.7-2,1-3c0.8-2.6,1.5-5.2,2.2-7.9c0.1-0.5,0.2-0.9,0.4-1.7
		c-1.7,1.2-2.5,2.7-3.4,4.1c-1.9,3.2-3.7,6.4-5.5,9.6c-0.4,0.8-0.8,1.5-1.9,1.6c-2.4-1-4.2-2.9-5.2-5.4c-1-2.2-1.1-4.6,0-6.7
		c0.9-0.5,1.7-0.8,2.3-1.3c2.4-2.6,5.4-4.2,8.6-5.6c0.5-0.2,0.8-0.6,1.4-1c-6.2-2-21.7-5.7-24-5.7c-0.1,0.2-0.3,0.4-0.3,0.6
		c-0.9,5.6-0.8,11.1,0.2,16.7c0.5,2.7,1,5.4,2.2,7.9c0.8,1.8,1.6,3.7,2.4,5.5c1.5,3.4,3.3,6.6,6.4,8.8c0.6,0.4,1,1,1.4,1.5l0.1-0.1
		c-2.7-0.3-4.5-2.1-5.9-4.1c-1.3-1.8-2.4-3.8-3.5-5.8c-4.5-8.9-6.3-18.4-5.1-28.3c0.1-0.9,0.1-1.9,0.2-2.8c0-0.2-0.2-0.4-0.3-0.7
		c-0.9-0.3-1.8-0.9-2.9-0.6c-2.4,9.7-0.9,23.6,3.8,32.8c1.9,3.9,4.4,7.3,7.6,10.2c3.3,3,7,5.2,11.4,6.4c7.3,1.9,14.2,0.4,20.8-2.6
		c4-1.9,7.4-4.7,10.5-7.8c5.7-5.7,10-12.4,12.9-19.9c2.3-5.9,3.7-12,4.2-18.3c0.7-8.3-0.4-16.3-3.4-24.1
		c-2.2-5.7-5.7-10.4-10.3-14.3c-3.1-2.6-6.7-4.4-10.7-5.4c-7-1.7-13.7-0.1-20.1,2.8c-3.9,1.8-7.3,4.6-10.3,7.6
		c-6.3,6.2-10.8,13.5-13.7,21.8c-0.2,0.5-0.2,1.1-0.3,1.6c1,0.9,2,1.2,3.3,0.8c0.2-0.5,0.5-1,0.6-1.5c1-3,2.5-5.9,4.1-8.7
		c3.6-6.3,8.3-11.5,14.3-15.6c4.6-3.1,9.6-5.2,15.1-5.9c2.8-0.4,5.7-0.6,8.4,0.7c1.8,0.9,3.6,1.9,5.4,2.8
		C189.2,151.5,189.7,151.9,189.7,152.5L189.7,152.5z M274.6,249.5c-0.7-1.3-1.5-2.6-2.2-3.9c-0.2-0.1-0.4-0.3-0.6-0.3
		c-0.4-0.2-0.9-0.3-1.4-0.4c-5.1-1-9.6-3.3-13.8-6.4c-5-3.6-9.4-8-13.6-12.6c-2.4-2.6-4.9-5.1-7.4-7.7c-1.2,0.6-2.2,1.2-2.7,2.2
		c0.2,0.4,0.3,0.8,0.5,1.1c4.2,7.1,5.5,14.8,4.9,23c-0.1,0.8-0.1,1.7-0.5,2.4c-0.8,1.6-1,3.4-1.3,5c0.4,1.7,1.7,3.1,1.2,5.1
		c-0.9-0.3-1.8-0.6-2.7-0.9c0,1.4,0.1,2.7,0,3.9c-0.1,1,0,2.3-0.6,3.1c-2.2,3.3-2.8,7-3.3,10.7c-0.7,5.1-2,10-4.3,14.6
		c-0.6,1.3-1.6,2.3-2.5,3.4c-0.4,0.5-1,1-1.3,1.3c0.8,4.1,1.5,8,2.1,11.8c0.4,2.3,0.6,4.7,1,7c0.3,1.7,0.4,3.5,1.6,5.3
		c0.9,0,1.8,0,2.7,0c1.7,0.1,3.3,0.2,5,0.4c3.6,0.4,6.9,1.6,10.3,2.8c1.9,0.7,3.8,1.3,5.8,1.8c2.4,0.6,4.9,0.9,7.3,1.4
		c0.4,0.1,0.9,0,1.5,0c-0.1-0.8-0.2-1.4-0.3-1.9c-0.7-2-1.4-4-2.1-6.1c-0.2-0.5-0.2-1-0.4-2.1c1.8,1.9,2.8,3.7,3.6,5.5
		c0.8,1.8,1.2,3.8,1.9,5.8c2.2,0.8,4.3,2.3,6.9,2.4c2.6,0,5.2,0.3,7.7-0.4c0.8-1.4,1.4-2.7,1.2-4.2c-0.4-3,0.4-5.9,1-8.8
		c0.5-2.6,1.2-5.1,1.7-7.6c0.8-4.2,1.5-8.4,2.1-12.6c0.2-1.3,0.4-2.6,0.3-3.9c-0.3-5-0.6-9.9-0.9-14.9c-0.1-2-0.4-4-0.6-6
		c-0.1-1.4,0.1-2.8,0.9-4.1c1.5-2.2,2.2-4.7,1.9-7.4c-0.1-1.4,0-2.8-0.1-4.3c-0.1-3.2-0.6-6.4-1.6-9.4c-1-3-3-5.3-5.5-7.2
		c-0.1-0.1-0.2,0-0.6,0c0,1.1,0,2.3-0.1,3.5c-0.2,2.5-0.9,4.9-3.5,6.1C274.1,247.2,274.3,248.4,274.6,249.5L274.6,249.5z
		 M271.7,424.3L271.7,424.3c0.2,1.6-0.7,2.9-1.2,4.3c-1.5,3.9-2.5,7.9-2.4,12.1c0,0.7,0.2,1.3,0.3,2c0.6,0,1.1,0,1.6-0.1
		c4.7-1,9.4-1.2,14.1-1.1c1.8,0,3.6,0,5.3-0.1c0.7,0,1.3-0.3,1.9-0.4c0.3-3.4,0.7-6.6,0.9-9.8c0.1-1.8,0.1-3.6,0.1-5.3
		c0-2.3-0.4-4.5-1.8-6.4c-0.9-1.3-1-2.6-0.9-4c0.2-2,0.2-4,0.3-6c0.2-5.2-0.2-10.4-0.8-15.6c-0.2-2.2-0.7-4.4,0.6-6.6
		c0.4-0.7,0.3-1.8,0.3-2.8c0-4.4,0.1-8.8,0-13.2c-0.2-6.5-0.3-13-1.2-19.5c-0.1-0.7-0.1-1.4,0.2-2.1c0.2-0.6,0.3-1.1,0-1.7
		c-0.6-1.3-1.2-2.6-1.8-3.9c-1.1-2.5-2.3-4.9-3.4-7.4c-0.4-1-0.6-2.1-1.1-3c-0.5-0.9-1.3-1.6-1.9-2.3c-0.1-0.2-0.2-0.4-0.2-0.6
		c-0.6,0.3-1.3,0.6-1.9,0.9c0-0.5,0-1.1,0-1.6c-0.6,0.6-0.7,1.1,0.1,1.5c1.1,2.2,2.3,4.4,3.4,6.6c0.6,1.4,1.1,2.9,1.6,4.3
		c0.1,0.4,0.4,1.1-0.6,1.5c-1.9-3.6-4-7.2-5.1-11.3c-3.8,0-7.4,0-11,0c2.5-0.6,4.9-0.9,7.3-1.3c0.9-0.2,1.1-0.8,0.8-1.6
		c-2.5-0.5-2.5-0.5-3.6,0.4c-1.1-0.3-2.1-0.4-3-0.9c-1.1-0.6-1.9,0.5-2.8,0.5c-0.5-0.6-0.2-1.8-1.4-1.6c-0.8,0.6,0,2-1.5,2.2
		c0-1,0-1.9,0-2.7c-1-1.1-2.4-1.3-3.6-1.6c-0.3-0.1-0.8,0.4-1.2,0.6l0.1-0.1c-0.8-0.1-1.6-0.3-2.4-0.4c-0.9,0.6,0.1,2.3-1.4,2.4
		c-1-1,0-2.4-1.2-3.5c-0.6,0.3-1.2,0.7-1.9,1c-0.4-1-0.5-2.2-2-2.2c-0.4,0.3-0.8,0.7-1.4,1.2c-0.4-1.1-0.5-2.5-2.1-2.3
		c-0.9,0.7,0.2,2.3-1.4,2.7c-0.6-1.2-1.7-1.2-2.9-1.3c-3.2-0.2-6.4-0.6-9.6-0.9c-0.4,0-0.7-0.3-1.4-0.7c1.1-0.3,1.7-0.5,2.8-0.8
		c-1.9-0.3-1.1-1.7-1.6-2.5c-0.1-0.1-0.4-0.2-0.6-0.3c-0.3,0.7-0.6,1.3-0.9,2c-1.4-0.2-0.4-2.4-2.1-2.2c-0.3,0.7-0.7,1.4-1.1,2.1
		c-0.7-0.3-1.3-0.6-1.7-0.8c-0.4,0.7-0.7,1.7-1.1,1.8c-1.6,0.3-2.1,1.5-2.6,2.7c-0.6,1.3-1.1,2.6-1.6,4c-2.2,6.3-4.3,12.6-7.4,18.5
		c-0.6,1.1-0.7,2.2-0.5,3.5c0.2,2.4,0.4,4.7,0.5,7.1c0.3,9.4,0,18.8-1.1,28.1c-0.2,1.5-0.2,3.1,0,4.6c0.9,6.6,0.9,13.3,0.3,19.9
		c-0.4,4.2-0.4,8.3-0.1,12.4c0.2,2.6,0.2,5.2-0.3,7.8c-0.3,1.4-0.6,2.8,0.1,4.3c1.2,0.3,2.3,0.5,3.5,0.8c1.1,0.3,2.4,0.5,3.4,1
		c2.8,1.6,5.9,2.5,8.9,3.5c2.3,0.8,4.6,1.1,7,1.2c2.4,0.1,4.7,0.3,7.1,0.7c6.7,1.1,13.3,2.4,20.1,3.1c1.1,0.1,2.1,0.4,3.4-0.4
		c0.1-0.7,0.4-1.6,0.5-2.5c0.2-1.4,0.3-2.8,0.6-4.2C266.8,433,269,428.5,271.7,424.3z M239.4,447.9c0.4-1.3,2-2,2.1-3.6
		c-1.5-0.2-2.9-0.8-4.2-0.6c-2.8,3.5-4.6,4.7-9.1,4.7c2.6-1.1,5-1.9,5.6-4.6c-2-0.3-4-0.5-6-1c-3.3-0.9-6.6-2-9.7-3.5
		c-1.1-0.6-2.3-1.3-3.8-1.2c-0.1,0.9-0.2,1.7-0.2,2.5c0,2.1,0,4.3,0,6.4c0,2.4-0.6,4.6-1.9,6.8c-1,1.7-1.8,3.6-2.6,5.4
		c-1,2.4-1.9,4.9-2.9,7.2c-2.1,4.7-4.3,9.3-6.4,13.9c-1.8,4-3.1,8.2-2.8,12.7c0.2,4.1-0.1,8.3,0.1,12.5c0.2,4.1,0,8.3,0.5,12.4
		c0.5,4.3,0.2,8.8,0.3,13.2c0,1.2,0,2.4,0.1,3.6c0.5,5,1.2,9.9,1.1,14.9c0,0.7,0.1,1.6,0.5,2c1,1,0.9,2.2,0.6,3.3
		c-0.2,1-0.5,2.1-0.9,3.1c-0.4,1-1,2-1.5,2.9c1.7,1.7,4.3,1.3,6,2.8c-0.7,1-1.5,1.1-2.3,0.9c-1.4-0.4-2.7-0.9-4-1.4
		c-0.2-0.1-0.4,0-0.6,0c-0.6,0.2-0.8,1.1-1.4,0.8c-1.2-0.7-0.1-2.3-1.7-2.8c-0.4,0.8-0.8,1.6-1.2,2.3c1.2,1.8,2.2,3.5,3.8,4.8
		c1.2,0.9,2.3,1.1,3.6,0.8c1.1-0.2,2-0.7,2.3-2c0.1-0.4,0.5-0.8,0.8-1.1c1.6-1.3,2.9-2.7,3.9-4.5c0.4-0.8,1.3-1.3,2-2
		c1.6-1.4,3.2-2.8,4.7-4.2c0-3.6-0.1-7,0-10.5c0.2-6.4,1.1-12.8,2.1-19.1c0.2-1.4,0.6-2.8,0.5-4.2c-0.2-2.3,0.3-4.5,1-6.6
		c1-2.9,2.1-5.8,3.3-8.6c3.1-6.9,4.4-14.3,6.5-21.2c-0.4-0.8-0.8-1.4-1-2c-0.2-0.6,0.5-1.3,0-1.9c-0.6-0.1-1-0.2-1.6-0.4
		c0.1-2.2-0.2-4.4,0.5-6.4c0.1-0.2,0.3-0.3,0.5-0.4c0.7,0.5,0.1,1.9,1.5,2.2c1.6-3.5,3.1-7,4.5-10.3c-0.3-0.8-0.5-1.3-0.8-1.9
		c0.6-1,1.2-1.9,1.8-2.7c0.9-1.2,2-2.3,3-3.5C238.7,454.8,240.3,451.7,239.4,447.9z M249.8,551.1c-0.8-5.4-1.1-10.7-1.1-16
		c0.1-8.9-0.9-17.8-1.9-26.6c-0.1-1.3-0.4-2.6-0.9-3.8c-1.6-3.9-2.6-7.9-3.6-11.9c-0.2-0.7-0.5-1.4-0.4-2.1c0.2-2.1-0.4-4-0.7-6
		c-0.5-2.8-0.7-5.7,0.2-8.5c1.7-5.6,3.5-11.1,5.4-16.6c0.7-2,1-3.9,0.4-5.9c-0.3-1.2-0.3-2.6-0.6-3.9c-0.3-1.6-0.2-3.3-1.1-4.9
		c-0.5,0.1-1.1-0.1-1.4,0.2c-1.3,1.3-2.5,2.7-2.6,4.8c-0.2,3.3-1.4,6.5-3,9.4c-0.6,1.1-1.2,2-2.4,2.5c-0.5,0.2-1,0.5-1.3,0.7
		c-0.5,2.5-0.8,4.7-1.4,6.9c-0.6,2.3-1.5,4.5-2.2,6.8c-0.3,0.9-0.5,1.8-0.5,2.8c-0.3,3.9-1.1,7.7-2.2,11.5c-1.9,7.1-4.5,14-7.1,20.9
		c-0.8,2-1.4,4.1-1.5,6.2c-0.4,5.6-1.3,11.1-2.4,16.5c-0.6,2.9-0.9,5.8-0.7,8.8c0.2,3.4,0.3,6.9,0.5,10.3c0,0.7,0.2,1.4,0.4,2.2
		c3.9,1.6,5.6,5.3,7.8,8.4c0.5,0.8,1,1.6,1.6,2.3c2.1,2.5,4.9,4.4,6.6,7.4c0.4,0.7,1.2,1.2,1.9,1.6c1.4,0.8,3,1.4,4.5,2.1
		c0.4-1.1,0.7-2.3,1.3-3.3c2.4-3.8,2.5-8.1,3.1-12.3c0.2-1.7,0.4-3.3,1.1-4.8c0.4-0.9,0.6-2,1-3.2
		C247.5,552.9,248.5,552.1,249.8,551.1z M248.4,445.7c0.3,2.5,0.5,4.6,0.7,6.8c0.2,3.1-0.2,6.1-1.2,9.1c-1.4,4-2.5,8.2-3.8,12.2
		c-0.2,0.7-0.3,1.4-0.6,2c-1,1.6-0.9,3.4-0.6,5.2c0.2,1.4,0.5,2.8,0.8,4.2c0.7,3.6,1.4,7.2,2.2,10.8c0.4,1.8,0.9,3.7,1.4,5.5
		c0.6,2.4,1.4,4.8,1.8,7.3c1.2,8.7,2,17.5,2,26.3c0,3.1,0.2,6.2,0.1,9.3c0,2.5-0.2,4.9-0.3,7.4c0.9,1.1,1.8,2.1,2.8,3.2
		c1.9,0.1,3.8,0.2,5.7,0.3c2-3.8,3.4-7.8,8-9.2c0.1-1.9,0.1-3.6,0.2-5.4c0.1-1.8,0.5-3.5,0.7-5.3c0.2-2.2,0.7-4.5,0.6-6.7
		c-0.1-4.4,0.4-8.8,0.7-13.2c0.7-9,1.7-18,2.7-26.9c0.7-5.9,0.6-11.9,0-17.8c-0.2-1.5-0.2-3-0.3-4.8c-1.4-1.4-1.4-1.5-0.6-3.1
		c0.3-0.6,0.7-1.3,1.1-1.8c1.9-2.3,2.6-5,2.8-7.9c0.1-1.7,0.7-3.3,0.5-4.9c-0.2-1.9,1.6-2.8,1.6-4.7c-1.9-0.1-3.7-0.1-5.6,0.7
		c0.1,0.4,0.2,0.8,0.1,1.1c-0.3,3.2-4,7-7.2,7.4c-0.3,0-0.5-0.3-1-0.6c0.5-1.2,1.4-1.9,2.2-2.8c0.8-0.8,1.5-1.5,2.3-2.3
		c0.7-0.8,1.7-1.4,2.3-2.6c-2,0.2-1.9,0.2-2.7,1c-0.3,0.3-0.6,0.7-1,0.9c-1.7,0.6-3.4,1.1-5.2,0.9c-1.8-0.2-3.5-0.4-5.3-0.5
		C253.8,446.4,251.3,445.6,248.4,445.7z M290.8,568.6c-0.8-1.9-1.4-2.4-3.3-1.9c-1.5,0.4-2.9,0.9-4.4,1.3c-0.4,0.1-0.8-0.1-1.4-0.2
		c0.6-1.3,1.6-1.8,2.4-2.4c0.3-0.3,0.9-0.4,0.3-1.2c-2.4,0.6-4.8,1.2-7.2,1.7c-0.2,0-0.4-0.2-0.7-0.4c0.1-2.5,2.7-2.6,4-4.4
		c-3.3,0.2-6.1,1.7-8.8,2.7c-1-0.6-0.8-1.3-0.4-1.9c0.9-1.3,2.2-2.1,3.6-2.9c0.8-0.4,1.6-0.8,2.4-1.2c-0.3-0.4-0.4-0.7-0.5-0.7
		c-0.7-0.1-1.4-0.3-2.1-0.1c-3.4,0.6-6.6,1.9-9.3,4.3c-0.2-0.6-0.5-0.9-0.4-1.1c0.2-1.1,0.9-1.9,1.7-2.6c1.6-1.4,3.6-2.3,5.6-2.9
		c0.8-0.3,1.8-0.3,2.4-1.1c-0.9-2.3-2.4-3.9-4.4-5.1c-1.1-0.7-2.2-0.8-3.4-0.3c-0.9,0.4-1.7,0.8-2.2,1.7c-0.7,1-1.3,2-1.9,3
		c-1.7,2.9-3.7,5.5-6.8,7.3c-3.1-1.4-4.1-5-7.2-6.8c-0.4,0.5-1,0.9-1.2,1.5c-0.4,1-0.4,2.1-0.7,3.1c-0.7,2.3-1.2,4.6-1.3,7
		c-0.1,1.8-0.3,3.6-0.6,5.3c-0.2,1-0.7,2-1,3c-0.3,0.9-0.4,1.9-0.8,2.7c-0.4,0.9-0.9,1.8-1.4,2.7c0.5,0.4,0.7,0.6,1,0.8
		c2.4,1.5,5.3,2.1,7.6,3.9c0.6,0.4,1.6,0.5,2.4,0.3c2.7-0.4,5.4-0.9,8-1.6c1.2-0.3,2.3-0.4,3.5,0c2.3,0.7,4.6,1.3,6.9,1.9
		c3,0.8,6,1.1,9.2,0.9c2.1-0.2,4.3-0.5,6.3,0.4c2.1,0.9,4.2,0.8,6.3,0.5c2.8-0.4,5.6-1.1,8.4-1.7c2.2-0.5,3.9-1.6,5.1-3.4
		c-0.5-2.6-0.9-5.2-1.4-7.8C300.6,571.1,295.9,570.1,290.8,568.6z M173.5,194.4c0.3-0.4,0.6-0.7,0.7-1c0.9-1.8,0.6-3-1.2-3.7
		c-0.9-0.4-1.8-0.6-2.7-0.8c-7.5-1.9-15-3.8-22.4-5.7c-12.5-3.2-25.1-6.4-37.6-9.6c-0.5-0.1-1.1-0.5-1.8,0.2c0,0.8,0,1.7-0.2,2.6
		c-0.2,0.8-0.7,1.6-1.1,2.4c0.8,0.3,1.4,0.5,2.1,0.7c19.6,4.8,39.2,9.7,58.8,14.5C169.8,194.5,171.5,194.7,173.5,194.4z M198,234.3
		c0.1,0.7,0.3,1.1,0.2,1.6c-0.3,2.1,0.5,4,1.6,5.7c0.3,0.5,0.6,1.1,0.9,1.6c3,5,3.5,10.3,2.2,15.8c-0.1,0.6-0.2,1.1-0.3,1.9
		c1.3-0.5,1.9-1.4,2.6-2.1c1.2-1.2,1.9-2.6,1.8-4.4c-0.1-1.1,0.4-2.3,0.8-3.4c2.7-6.9,4.6-14,5.7-21.2c0.5-2.8,0.6-5.7,1.1-8.5
		c0.4-2.2-0.6-3.8-2-5.7c-2,3.7-3.8,7.2-6.3,10.2C203.8,228.7,201.3,231.7,198,234.3z M289.7,224.5c-0.1-1.2,0.1-2.2-0.2-3
		c-0.6-1.8-1.5-3.2-3.6-3.4c-1.4-0.2-2.8-0.5-4.2-0.8c-5.9-1.5-11.7-2.9-17.6-4.4c-3.5-0.9-7.2-1.4-10.5-3.2
		c-0.4-0.2-0.9-0.3-1.4-0.4c-4.1-1-8.3-2-12.4-3c-0.7-0.2-1.4-0.2-2.3-0.3c-0.2,1.9-0.3,3.6-0.5,5.4
		C254.5,216.2,272,220.2,289.7,224.5z M305.4,227.6c1.3,0.4,2.7,0.5,3.5,1.2c1.5,1.3,3.3,1.7,5.1,2.2c10.8,2.7,21.6,5.4,32.4,8.1
		c1,0.3,2.1,0.3,3.1,0.3c1-0.1,1.6-0.9,1.9-1.9c0.2-0.8-0.1-1.4-0.7-1.9c-0.9-1-2.1-1.5-3.4-1.8c-4.7-1.2-9.4-2.4-14.1-3.6
		c-7.9-2-15.8-4.1-23.8-6.1c-0.7-0.2-1.4-0.1-2.1,0c-0.6,0.1-1.1,0.4-1.7,0.5c-0.6,0.1-1.3,0-2.2,0
		C304.3,225.8,304.9,226.8,305.4,227.6z M235,248.7c0.4-1.9,0.5-3.4,1.1-4.7c1-2.4,0.9-4.8,0.7-7.3c-0.4-5-1.9-9.7-4.3-14.2
		c-0.3-0.5-0.6-1-1.1-1.4c-0.3-0.2-0.8-0.2-1.3-0.3c-0.8,2.9-2,11.3-1.6,13.4c0.4,2.6,0,5.4,1.4,8c0.3-0.8,0.5-1.4,0.7-2
		c1.6,1.3,1,2.9,1.2,4.2C232.8,245.9,233.7,247.1,235,248.7z M156.9,212.8c2.1-3.3,3.9-6,5.6-8.9c1.8-3,4.3-5.2,6.9-7.5
		c-2.4-1-2.4-1-3.9,0c-1.1,0.7-2.2,1.4-3.3,2c-2.6,1.4-4.9,3.4-6.9,5.5c-2,2.1-2.2,3.6-0.6,6C155.1,210.8,155.9,211.6,156.9,212.8z
		 M393.7,250.6c3.6,1.4,7.4,2.3,11.2,3.2c0.3,0.1,0.7,0.1,1.1,0c1.1-0.1,2.2-1.1,2.6-2.2c0.2-0.8-0.4-2.1-1.4-2.7
		c-0.5-0.3-1.1-0.5-1.7-0.6c-3.2-0.8-6.5-1.6-9.7-2.3c-0.3-0.1-0.7,0-1.2,0C394.1,247.4,393.6,248.9,393.7,250.6z M171.5,196
		c-0.8,1-1.4,1.3-1.4,1.6c0.4,2-0.5,3.7-0.9,5.5c-0.6,3.6-1.2,7.3-1.7,10.9c-0.1,0.5-0.2,1,0,1.4c0.2,0.5,0.7,1,1.2,1.2
		c0.3,0.1,1-0.1,1.2-0.4c0.5-0.6,1-1.3,1.4-2.1c1.8-3.9,2.1-8,1-12.1c-0.3-1.1-0.3-2.3-0.5-3.5C171.7,198,171.7,197.4,171.5,196z
		 M173,199.5c2.8,0.1,2.8,0.1,4-0.9c0.5-0.5,1-1,1.5-1.5c2.7-2.5,3-6.8-0.7-10c-0.9-0.8-2-1.2-3.3-1.1c-1.1,0.1-2.3-0.1-3.1,1.1
		c1.3,0.6,2.5,1.1,3.6,1.7c1.5,0.9,1.9,2.4,1.4,4c-0.5,1.6-1.3,2.8-2.9,3.3c-0.3,0.1-0.5,0.4-0.9,0.8
		C172.7,197.7,172.8,198.5,173,199.5z M229.8,244.9c0,0.9-0.1,1.6-0.1,2.3c-0.1,2.7-0.2,5.4,0.9,8c0.4,1.1,0.5,2.3,0.7,3.5
		c0.2,1.3,0.5,2.5,0.8,4.3c1.2-2.6,1.4-4.8,0.9-7c-0.5-2.2-0.9-4.4-1.5-6.6C231.1,247.9,230.9,246.4,229.8,244.9z M224.5,199
		c0.1,2,0.1,3.7-0.4,5.5c-0.5,1.5,0.4,3,1.8,4c0.4,0.3,1.1,0.2,1.9,0.4c0.1-2.3,0.4-4.4,0.3-6.5C228,200.5,227.1,199.1,224.5,199z
		 M234.5,322.6c1.1,0.2,1.8,0.3,2.4,0.4c2,0.1,4,0.1,6,0.1c0.2,0,0.4-0.5,0.6-0.8c-0.3-0.3-0.6-0.6-0.9-0.7c-2.4-0.7-4.8-1.3-7.2-2
		c-0.2,0-0.4,0.2-0.7,0.4C234.7,320.7,234.6,321.5,234.5,322.6z M216.2,206.1c2.1,0.6,4,1.7,6.1,1.2c0.3-1,0.3-1.8-0.7-2.2
		c-1.2-0.5-2.1-1.5-2.7-2.6c-0.3-0.5-0.7-0.8-1.2-1.5C216.8,202.7,216.7,204.4,216.2,206.1z M217.9,198.5c1.1,1.5,2.2,2.9,3.3,4.3
		c0.5,0.6,1.1,0.8,1.9,0.1c0.3-1.2,0.2-2.4-0.3-3.4c-1.5-0.9-2.8-1.7-4.2-2.5C218.3,197.6,218.1,198.1,217.9,198.5z M105.9,177.4
		c1.2-2.6,1.1-2.9-0.9-4.8c-0.5,0.3-1,0.5-1.5,0.8c-0.3,0.2-0.5,0.5-0.8,0.7c-1,1.3-0.4,2.9,1.2,3.3
		C104.5,177.5,105.1,177.4,105.9,177.4z M300.5,221c1.2,0.3,1.7,1.6,3,1.6c0.2-0.4,0.4-0.6,0.3-0.8c-0.4-1.5-1.1-2.8-2.6-3.4
		c-0.1-0.1-0.4,0.1-0.7,0.2C300.5,219.3,300.5,219.9,300.5,221z M234.8,203.1c-0.6-3.4-0.6-3.4-2.9-3.1
		C231.6,202.1,233.1,202.5,234.8,203.1z M229,199.1c0.2,1.8,0.2,1.8,1.2,2.9C231.1,200.4,231,200.2,229,199.1z M243.7,155.7
		c-0.4-0.5-0.3-1.5-1.2-1.1c-0.5,0.2-1,0.8-0.7,1.4C242.4,156.9,243,156.2,243.7,155.7z M236.1,153.9c0.9,0.4,1.6,1,2.6,0.4
		c-0.6-0.6-0.9-1.4-1.8-1.7C236.6,153.1,236.4,153.5,236.1,153.9z M199.5,553.4c-1.2,1-1.4,2.5-0.7,2.6
		C199,555.2,199.2,554.3,199.5,553.4z M252.7,155.9c-0.9-0.7-1.3-1-1.8-1.4c-0.4-0.3-0.8-0.5-1,0.2
		C250.6,155.4,251.1,156.2,252.7,155.9z M264.2,155.9c-0.1-0.2-0.1-0.5-0.2-0.7c-1,0.5-2.2-0.3-3.3,1.1
		C262,156.2,263.1,156.1,264.2,155.9z M229.1,208c-0.1,0.1-0.1,0.2-0.2,0.3c-0.2,0.5-0.2,1,0.3,1.2c0.4,0.2,0.9,0.1,1.2-0.4
		c0.3-0.6-0.2-0.8-0.6-1C229.6,207.9,229.4,208,229.1,208z M298.4,219.4c-0.7-1.7-0.7-1.7-1.3-2c-0.2-0.1-0.5,0.2-0.7,0.3
		C296.7,218.8,297.2,219.5,298.4,219.4z M307,221.9c-0.5-0.5-0.8-0.9-1.1-1.3c-0.2,0.2-0.5,0.5-0.4,0.7c0.1,0.4,0.3,0.7,0.6,1
		C306.1,222.4,306.5,222.1,307,221.9z M277.2,331.7c0.1-1,0.2-1.5,0.3-2.5C276.4,330,275.9,330.4,277.2,331.7z M256.4,558.4
		c0.2-0.4,0.4-0.7,0.5-0.9c0,0-0.3-0.3-0.5-0.3c-0.3,0.1-0.5,0.3-0.7,0.5C255.9,557.9,256.1,558.1,256.4,558.4z M227.5,166.7
		c0.3-0.3,0.6-0.6,0.8-0.9c0.1-0.1-0.1-0.4-0.2-0.6c0-0.1-0.2-0.1-0.3-0.1c-0.5,0.1-1,0.8-0.8,1.3
		C227.1,166.4,227.2,166.5,227.5,166.7z M243.4,165.8c-0.2-0.1-0.4-0.2-0.6-0.2c-0.1,0-0.2,0.3-0.2,0.5c0.1,0.1,0.4,0.2,0.4,0.1
		C243.2,166.2,243.3,166,243.4,165.8z M234.9,164.9c-0.4,0-0.6-0.1-0.9-0.1c-0.1,0-0.1,0.2-0.2,0.2c0.3,0.1,0.5,0.3,0.8,0.4
		C234.5,165.4,234.7,165.2,234.9,164.9z M230.6,178.9c0,0.2-0.1,0.4-0.1,0.6c0.1,0,0.3,0,0.4,0.1c0-0.2,0-0.4-0.1-0.6
		C230.8,178.9,230.7,178.9,230.6,178.9z M227.3,176.8c0.1,0.1,0.3,0.2,0.4,0.3c0,0,0.2-0.2,0.2-0.3c0-0.2-0.1-0.3-0.2-0.5
		C227.6,176.5,227.5,176.6,227.3,176.8z M237.8,145.8c-0.2-0.1-0.4-0.2-0.6-0.2c-0.1,0-0.3,0.2-0.3,0.2c0.1,0.2,0.2,0.3,0.3,0.5
		C237.4,146.1,237.6,146,237.8,145.8z M232.5,168.7c-0.1-0.2-0.2-0.4-0.3-0.6c-0.1,0.1-0.2,0.1-0.2,0.2c0,0.2,0,0.4,0.1,0.6
		C232.2,168.9,232.4,168.8,232.5,168.7z M225.8,170.2c0.2-0.3,0.4-0.5,0.6-0.8c0,0-0.2-0.2-0.2-0.2c-0.2,0.1-0.5,0.3-0.7,0.4
		C225.5,169.7,225.7,169.9,225.8,170.2z M272.8,147.4c-0.2,0.1-0.4,0.2-0.5,0.3c-0.1,0.1,0.1,0.3,0.1,0.5c0.2-0.1,0.5-0.1,0.5-0.2
		C273,147.8,272.9,147.6,272.8,147.4z M231.6,154.7c-0.1-0.2-0.1-0.3-0.2-0.5c-0.1,0.1-0.2,0.1-0.2,0.2c0,0.2,0,0.4,0.1,0.5
		C231.4,154.9,231.5,154.8,231.6,154.7z M261.4,157.8c0,0.1,0,0.2,0.1,0.2c0.1,0,0.2,0,0.3,0c0-0.1,0-0.2-0.1-0.3
		C261.7,157.7,261.5,157.8,261.4,157.8z M262.8,148.5c0,0.1,0,0.2,0.1,0.2c0.1,0,0.2,0,0.3,0c0-0.1-0.1-0.2-0.1-0.3
		C263,148.5,262.9,148.5,262.8,148.5z M233.8,150.2c-0.1-0.1-0.2-0.2-0.3-0.3c-0.1,0.2-0.2,0.4-0.3,0.6c0,0.1,0.2,0.2,0.2,0.2
		C233.6,150.6,233.7,150.4,233.8,150.2z M236.3,171.8c0.1-0.2,0.2-0.3,0.3-0.4c-0.3-0.1-0.5-0.2-0.8-0.3c-0.1,0-0.1,0.2-0.2,0.2
		C235.9,171.5,236.1,171.6,236.3,171.8z M249.7,167.1c-0.1,0-0.2-0.1-0.3-0.1c0,0.1,0,0.3,0,0.4c0.1,0,0.2,0,0.3-0.1
		C249.7,167.3,249.7,167.2,249.7,167.1z M258.5,146.5c-0.2-0.1-0.4-0.2-0.6-0.2c-0.1,0-0.2,0.1-0.2,0.2c0.1,0.1,0.2,0.4,0.3,0.3
		C258.2,146.8,258.4,146.6,258.5,146.5z M228.6,155.6l-0.1,0.2l0.2,0L228.6,155.6z M243.5,169.5l0.1-0.2l-0.2,0L243.5,169.5z"/>
	<path d="M623.3,221.9c1.4-0.2,1.8,0.8,2.3,1.5c2.7,4.1,3.9,7.5,3.7,11c-0.4-0.3-0.9-0.5-1.1-0.9c-1.9-3.2-3.6-6.6-5-10
		C623,223.1,623.2,222.4,623.3,221.9z"/>
	<path d="M622,221.6c-4.3-3-5.1-7.4-5.4-11.9c-0.1-0.8-0.1-1.7,1.2-2.1c0.2,0.6,0.6,1.2,0.7,1.9c0.6,2.8,1.2,5.5,1.8,8.3
		c0.2,0.9,0.5,1.7,1.6,2.1C622.7,220.2,622.6,220.9,622,221.6z"/>
	<path d="M598.9,160.7c0.9,3.4,0.6,6.4,0.6,9.4c0,0.9,0.1,1.9-1,2.7c-1.2-2.9-1-6-1-9C597.5,162.8,597.4,161.7,598.9,160.7z"/>
	<path d="M606.9,232.8c-0.6-2.9,0.2-5.6,0.9-8.3c0.1-0.2,0.6-0.6,0.8-0.5c0.4,0.1,0.9,0.5,0.9,0.8c0.3,2.9-0.4,5.6-2.2,7.9
		C607.3,232.8,607.1,232.7,606.9,232.8z"/>
	<path d="M591.3,160.1c-3.2-2.7-4.4-5.6-4.6-9.1c0.4,0.1,0.6,0.1,0.7,0.2c0.6,1.5,1.3,2.9,2.6,4.1c0.7,0.7,1.1,1.8,1.5,2.8
		C591.7,158.4,591.5,158.9,591.3,160.1z"/>
	<path d="M610.5,187.1c0.3,1.8,1.5,3.4,1.2,5.4C609.8,190.9,609.5,189.5,610.5,187.1z"/>
	<path d="M605.7,241.9c-0.5-1.6-0.7-2.6-1-3.6c0.7-0.6,1-0.1,1.1,0.3C606,239.5,606.6,240.3,605.7,241.9z"/>
	<path d="M609.9,182.9c0-0.7-0.1-1.3-0.1-2.1C610.8,181.5,610.8,181.5,609.9,182.9z"/>
	<path d="M307.2,237.3c-0.6-0.9-0.7-1.7,0-2.5c0.2,0.1,0.6,0.2,0.6,0.3c0.1,0.5,0.2,1.1,0.1,1.6C307.9,237,307.4,237.1,307.2,237.3z
		"/>
	<path d="M597.6,176.1c-0.1-0.2-0.3-0.4-0.3-0.6c0-0.5-0.1-1.2,0.6-1.4c0.1,0,0.2,0,0.3,0.1c0.4,0.4,0.3,1.2-0.3,1.8
		C597.9,176.1,597.7,176.1,597.6,176.1z"/>
	<path d="M596.7,179.8c-0.1,1.2-0.1,1.2-1.1,1.8C595.6,180.5,595.6,180.5,596.7,179.8z"/>
	<path d="M630.3,237.4c-0.2,0.2-0.3,0.5-0.6,0.6c-0.1,0.1-0.4-0.1-0.5-0.3c-0.2-0.3-0.3-0.6-0.3-0.9c0-0.2,0.3-0.5,0.5-0.7
		c0.1-0.1,0.4,0.1,0.5,0.3C630,236.7,630.1,237,630.3,237.4z"/>
	<path d="M306.8,238.3c0.8,0,1.1,0.4,1,0.9c-0.1,0.4-0.4,0.7-1.1,1.7C306.7,239.4,306.7,238.8,306.8,238.3z"/>
	<path d="M596.3,77.2c-0.6-1.1-0.6-1.9,0-3C596.9,75.3,596.9,76.2,596.3,77.2z"/>
	<path d="M598,85.7c-0.3,0.1-0.5,0.2-0.8,0.2c-0.1,0-0.2-0.5-0.2-0.5c0.2-0.2,0.5-0.3,0.8-0.4C597.8,85.2,597.9,85.4,598,85.7z"/>
	<path d="M292,296.1c0,0.1,0,0.2-0.1,0.2c-0.2-0.2-0.5-0.3-0.7-0.5c0.1-0.1,0.2-0.2,0.2-0.2C291.6,295.8,291.8,295.9,292,296.1z"/>
	<path d="M596.4,78.9c0.6,0.5,0.5,1,0,1.4C595.6,79.9,595.7,79.4,596.4,78.9z"/>
	<path d="M594.4,184.5c-0.2,0.2-0.5,0.4-0.8,0.6c0,0-0.2-0.1-0.2-0.2c0.1-0.3,0.2-0.6,0.3-0.9c0.1-0.1,0.4,0,0.6,0.1
		C594.3,184.2,594.3,184.3,594.4,184.5z"/>
	<path d="M619,202.9c-0.1-0.4-0.2-0.8-0.2-1.2c0-0.1,0.3-0.2,0.4-0.3c0,0,0.2,0.2,0.2,0.3c0,0.4,0,0.8-0.1,1.2
		C619.3,202.9,619.1,202.9,619,202.9z"/>
	<path d="M600.4,225.2c0.1-0.1,0.3-0.2,0.4-0.3c0,0.2,0.1,0.4,0.1,0.6c0,0.1-0.2,0.2-0.2,0.2C600.5,225.6,600.4,225.4,600.4,225.2z"
		/>
	<path d="M609.9,177.3c0.1,0,0.1,0.1,0.2,0.1c-0.1,0.1-0.1,0.1-0.2,0.2C609.8,177.4,609.8,177.3,609.9,177.3z"/>
	<path d="M295.7,282.8c0,0.1,0.1,0.2,0.1,0.3c0,0.1-0.1,0.2-0.1,0.2C295.7,283.2,295.7,283,295.7,282.8z"/>
	<path d="M672.3,395c-0.1,0.4-0.2,0.9-0.5,1.3c-0.7,0.9-1,1.8-1.1,2.9c-0.4,3.5-0.9,7-1.3,10.5c-0.5,4-1.1,7.9-1.6,12
		c-1-0.9-0.5-1.9-0.5-2.8c0-1,0.1-2.1,0.1-3c-0.7-0.7-1.3-0.2-1.7,0.1c-1,0.8-2,1.6-3.1,2.4c-0.5,0.4-1.2,0.6-1.8,0.9l0.1,0.1
		c1.6-2.6,4.1-4.1,6.9-5.5c1.1-4.8,1.4-9.8,2-14.7c0.6-4.9,1.4-9.8,1.6-14.9c0.1,0.7,0.2,1.5,0.2,2.2c0,2.3-0.1,4.5-0.2,6.8
		C671.4,394,671.7,394.6,672.3,395L672.3,395z"/>
	<path d="M658.2,338.2c1.4,2.2,1,4.6,2.5,6.4c0.2-0.9,0.3-1.6,0.5-2.4c0.1,0.2,0.2,0.3,0.2,0.4c-0.2,4.2,0,8.3,0.7,12.4
		c0.3,1.8,0.5,3.7-0.2,5.9c-0.4-0.6-0.9-0.9-0.9-1.3c-0.3-1.5-0.4-3.1-0.7-4.6c-0.6-4.1-1.2-8.2-1.9-12.3
		C658.2,341.5,657.9,340.1,658.2,338.2z"/>
	<path d="M649.8,352.6c-0.3-0.2-0.7-0.4-0.8-0.6c-0.2-0.8-0.3-1.6-0.4-2.4c-0.6-5.3-1.8-10.5-3.7-15.5c-0.3-0.7-0.8-1.5-0.1-2.3
		C648.4,336.2,651,346.9,649.8,352.6z"/>
	<path d="M609.6,402.2c2.7-5.7,5.1-11.5,8.3-16.9c0.9-1.5,2.1-2.7,3.3-3.9c0.6,1,0.1,1.5-0.2,1.9c-3,4.7-5.6,9.6-8.1,14.6
		c-0.6,1.2-1.3,2.3-2.1,3.3C610.7,401.7,610,401.8,609.6,402.2C609.5,402.1,609.6,402.2,609.6,402.2z"/>
	<path d="M630.4,342.9c-0.8-1.6-1.3-3.2-1.3-4.9c0-3.5-0.5-7.1,0.5-10.7c0.9,0.9,0.4,2,0.5,2.9c0.1,1.1,0,2.1,0,3.2
		c0,1.1,0,2.1,0,3.2c0,1,0.1,2.1,0.2,3.1c0.5-0.1,0.8-0.2,1.2-0.3C631.6,340.6,631.3,341.7,630.4,342.9z"/>
	<path d="M613.1,355.8c-0.3,2.9-0.5,5.9-0.8,8.8c-0.3,2.7-0.8,5.4-1.2,8.1c-0.4,2.6-0.8,5.3-1.4,7.9c0-1-0.1-2.1,0-3.1
		c0.9-6.8,1.9-13.6,2.8-20.3C612.6,356.7,613,356.3,613.1,355.8L613.1,355.8z"/>
	<path d="M616,397.9c-0.1,5.6-0.1,11.3-0.2,16.9c-0.1,0-0.2,0-0.3,0c0-0.9-0.1-1.8-0.1-2.7c-0.1-1.1-0.2-2.1-0.3-3.2
		c-0.1-1.1-0.3-2.1-0.3-3.2c0-1.1,0-2.1,0.1-3.2c0.1-1.1,0.3-2.1,0.5-3.1C615.5,399,615.8,398.5,616,397.9L616,397.9z"/>
	<path d="M613.8,421.4c0.3,3.1-0.8,6.1-1,9.1c-0.1,1.1-0.4,2.3-0.7,3.7c-0.4-0.4-0.9-0.6-0.8-0.8c0.5-4,1-7.9,2.4-11.7
		C613.6,421.6,613.8,421.5,613.8,421.4L613.8,421.4z"/>
	<path d="M678.7,385.7c-1.3,3.4-3.6,6.2-5.8,9c-0.1,0.1-0.4,0.1-0.6,0.2l0.1,0.1c0-0.2-0.1-0.5,0-0.7c1.8-2.7,3.7-5.4,5.6-8.1
		C678.1,386.1,678.5,386,678.7,385.7L678.7,385.7z"/>
	<path d="M679,370.7c-0.2-2.4-0.2-4.9-0.1-7.8C680.3,364.9,680.3,366.3,679,370.7z"/>
	<path d="M667.9,340.9c0.1,0,0.3,0,0.3,0.1c1.3,3.6,2.4,7.3,2.6,11.2l0.1-0.1c-0.1-0.1-0.3-0.1-0.3-0.2
		C669.8,348.3,668.9,344.6,667.9,340.9L667.9,340.9z"/>
	<path d="M625.2,420.7c0.5,0.2,1.1,0.3,1.6,0.5c1.9,1.1,3.9,2.2,5.8,3.3c0.5,0.3,0.8,0.8,1.2,1.2l0.1-0.1c-0.3,0-0.8,0.1-1-0.1
		c-2.4-1.3-4.7-2.7-7-4.1C625.5,421.3,625.4,420.9,625.2,420.7L625.2,420.7z"/>
	<path d="M673.3,338c1.6,1.5,2.2,3.2,2.8,5.6C674,341.9,673.2,340.2,673.3,338z"/>
	<path d="M633.8,425.7c1.9,0.1,3.1,1.3,4.4,2.4C636.6,427.5,634.8,427.3,633.8,425.7L633.8,425.7z"/>
	<path d="M624.1,333.6c0-1.6,0-3.2,0-4.7c0,0,0.1,0,0.1,0c0,1.6,0,3.2,0,4.7C624.2,333.6,624.2,333.6,624.1,333.6z"/>
	<path d="M660.9,419.2c-0.6,1.6-2.1,2.2-3.5,2.9l0.1,0.1C658,420.5,659.3,419.7,660.9,419.2L660.9,419.2z"/>
	<path d="M625.3,420.6c-1.4,0.1-2.2-0.9-3.5-1.8C623.8,419.4,623.9,419.3,625.3,420.6L625.3,420.6z"/>
	<path d="M673.7,421.4c0.1-1.3,0.4-2.6,1.5-3.4l-0.1-0.1C675.1,419.2,674.7,420.4,673.7,421.4L673.7,421.4z"/>
	<path d="M673.6,421.3c0.2,1.4-0.5,2.6-1.4,3.6l0.1,0.1C672.2,423.5,672.9,422.5,673.6,421.3L673.6,421.3z"/>
	<path d="M623.5,340.3c0,0.6,0,1.3,0,1.9c0,0,0,0-0.1,0C623.4,341.5,623.4,340.9,623.5,340.3C623.5,340.3,623.5,340.3,623.5,340.3z"
		/>
	<path d="M657.4,422.1c-0.7,0.5-1.5,0.9-2.2,1.4l0.1,0.1C655.8,422.2,655.8,422.2,657.4,422.1L657.4,422.1z"/>
	<path d="M614.5,418.6c-0.2,1,0.3,2.1-0.7,2.8l0.1,0.1C613.9,420.5,613.6,419.4,614.5,418.6L614.5,418.6z"/>
	<path d="M672.3,377.2c0,0.8,0,1.5,0,3.1C671.7,378.7,671.4,377.9,672.3,377.2L672.3,377.2z"/>
	<path d="M613.2,355.9c0-0.8,0.1-1.5,0.1-2.5C613.9,354.4,613.6,355.2,613.2,355.9L613.2,355.9z"/>
	<path d="M670.9,352.2c0.8,0.6,0.8,1.3,0.3,2.5C671,353.6,671,352.9,670.9,352.2L670.9,352.2z"/>
	<path d="M676.6,413.5c0.1-1-0.2-2,0.8-2.7l-0.1-0.1C677.1,411.7,677.5,412.8,676.6,413.5L676.6,413.5z"/>
	<path d="M614.6,418.7c0-0.5,0.1-1.1,0.1-1.8C615.4,417.7,614.9,418.1,614.6,418.7L614.6,418.7z"/>
	<path d="M675.9,415.7c-0.2,0.7-0.5,1.4-0.7,2.1l0.1,0.1c0-0.8-0.3-1.7,0.7-2.1L675.9,415.7z"/>
	<path d="M676.5,413.5c0,0.8,0.1,1.7-0.7,2.2l0.1,0.1C676,415,675.7,414.1,676.5,413.5L676.5,413.5z"/>
	<path d="M677.4,410.8c0-0.5,0.1-1,0.1-1.7C678,409.9,677.6,410.3,677.4,410.8L677.4,410.8z"/>
	<path d="M616.1,398c0-0.5,0.1-0.9,0.1-1.4c0.1,0,0.1,0,0.2,0.1C616.2,397.1,616.1,397.5,616.1,398L616.1,398z"/>
	<path d="M668,340.8c-0.2-0.5-0.5-0.9-0.9-1.8C668.3,339.7,667.9,340.4,668,340.8L668,340.8z"/>
	<path d="M651.8,332.1c-0.4,0-0.7-0.1-1-0.1c0.2-0.1,0.4-0.1,0.6-0.2C651.5,331.8,651.6,331.9,651.8,332.1z"/>
	<path d="M649.2,331.3c-0.6-0.1-0.9-0.1-1.1-0.1c0.2-0.1,0.3-0.1,0.5-0.1C648.6,331.1,648.7,331.1,649.2,331.3z"/>
	<path d="M671.6,426.4c0-0.6-0.1-1.3,0.7-1.4l-0.1-0.1C672.2,425.5,672.3,426.1,671.6,426.4L671.6,426.4z"/>
	<path d="M618.5,361.7c0,0-0.1-0.1-0.1-0.1c0-0.1,0-0.2,0.1-0.3c0,0,0.1,0.1,0.1,0.1C618.6,361.5,618.5,361.6,618.5,361.7z"/>
	<path d="M672.4,377.3c0-0.3,0.1-0.6,0-0.3C672.5,376.7,672.4,377,672.4,377.3L672.4,377.3z"/>
	<path d="M653.1,427.8c0.1-0.3,0.1-0.6,0.1-0.4C653.3,427.3,653.1,427.5,653.1,427.8L653.1,427.8z"/>
	<path d="M671.5,426.3c0,0.6,0,1.2-0.7,1.4l0.1,0.1C670.9,427.2,670.9,426.6,671.5,426.3L671.5,426.3z"/>
	<path d="M653,427.7c-0.2,0.5-0.5,0.9-0.7,1.4l0.1,0.1C652.6,428.8,652.9,428.3,653,427.7L653,427.7z"/>
	<path d="M670.8,427.7c-0.2,0.5-0.4,1-0.6,1.5l0.1,0.1C670.2,428.7,670.1,428.1,670.8,427.7L670.8,427.7z"/>
	<path d="M618.9,428.5c0.2,0.5,0.3,1,0.5,1.5l0.1-0.1C619.3,429.4,619.1,428.9,618.9,428.5L618.9,428.5z"/>
	<path d="M651.6,430.6c0.3-0.5,0.5-0.9,0.8-1.4l-0.1-0.1C652,429.6,651.8,430.1,651.6,430.6L651.6,430.6z"/>
	<path d="M651.5,430.5c0,0.3-0.1,0.6-0.1,0.4C651.4,431.1,651.5,430.8,651.5,430.5L651.5,430.5z"/>
	<path d="M653.8,332.5c0,0,0.1,0.1,0.1,0.1c-0.1,0-0.2-0.1-0.4-0.1C653.6,332.6,653.7,332.5,653.8,332.5z"/>
	<polygon points="622.7,346.5 622.8,346.5 622.7,346.7 	"/>
	<path d="M614.3,350.9c0,0-0.1,0.1-0.1,0.1c0-0.1,0.1-0.2,0.1-0.4C614.2,350.7,614.2,350.8,614.3,350.9z"/>
	<path d="M620.2,430.8c0.2,0.2,0.4,0.4,0.6,0.6l0.1-0.1C620.7,431.1,620.5,430.9,620.2,430.8L620.2,430.8z"/>
	<path d="M620.8,431.4c0.2,0.2,0.5,0.5,0.7,0.7l0.1,0C621.4,431.9,621.1,431.6,620.8,431.4L620.8,431.4z"/>
	<polygon points="621.5,432.1 621.8,432.2 621.6,432.1 	"/>
	<path d="M678.8,385.8c0.1-0.1,0.1-0.3,0.2-0.4c0,0.1,0,0.1,0,0.2C678.9,385.7,678.8,385.7,678.8,385.8L678.8,385.8z"/>
	<path d="M609.5,402.1c-0.1,0.1-0.2,0.2-0.3,0.3c0-0.1,0-0.2,0.1-0.2C609.4,402.2,609.5,402.2,609.5,402.1L609.5,402.1z"/>
	<path d="M617.4,427.2c0.2,0.2,0.5,0.4,0.7,0.6l0.1-0.1C617.9,427.5,617.7,427.3,617.4,427.2L617.4,427.2z"/>
	<path d="M619,428.4c-0.3-0.3-0.5-0.5-0.8-0.8l-0.1,0.1C618.3,428,618.6,428.3,619,428.4L619,428.4z"/>
	<polygon points="654.4,328 654.6,328.1 654.5,327.9 	"/>
	<path d="M670.2,429.2c-0.3,0.2-0.6,0.4-0.8,0.6l0.1,0.1C669.7,429.7,670,429.5,670.2,429.2L670.2,429.2z"/>
	<path d="M620.3,430.7c-0.3-0.3-0.5-0.5-0.8-0.8l-0.1,0.1C619.7,430.3,619.9,430.5,620.3,430.7L620.3,430.7z"/>
	<path d="M669.3,429.8c0,0.1,0,0.2,0,0.3C669.4,430.1,669.4,430,669.3,429.8L669.3,429.8z"/>
	<path d="M655.2,423.5C654.9,423.9,655.3,423.5,655.2,423.5L655.2,423.5z"/>
	<polygon points="617.4,427.1 617.3,427 617.4,427.2 	"/>
	<path d="M665.8,445.7c1.3,0.1,1.9,0.5,1.7,1.2c-1,3.2-3.1,5.6-6.4,6.6c-0.4,0.1-1-0.2-1.6-0.3c0.3-1.5,1.4-2.1,2.2-3
		c1.4-1.6,2.9-3.1,4.3-4.7L665.8,445.7z"/>
	<path d="M654.6,478c-0.4-0.8-0.7-1.1-0.7-1.5c-0.5-3-0.9-6.1-1.3-9.1c0-0.1,0.1-0.2,0.2-0.3c0.2,0,0.6,0,0.6,0.1
		C655.2,470.6,655.6,474.1,654.6,478z"/>
	<path d="M649.9,544.8c0.7,3.8,0.2,6-1.4,7.6c-0.8-0.6-0.5-1.5-0.4-2.2C648.6,548.5,648.4,546.7,649.9,544.8z"/>
	<path d="M649.7,540.9c-0.2-1.4-0.2-2.5,0.7-3.8c0.3,0.5,0.5,0.8,0.5,1C650.9,539.2,650.8,540.1,649.7,540.9z"/>
	<path d="M654,453.2c0.9-1.2,1.9-1.2,3.2-0.9C656.3,453.5,655.3,453.8,654,453.2z"/>
	<path d="M654,483c-0.5-1-0.5-1.9,0-2.9C655.2,481.1,655.2,481.1,654,483z"/>
	<path d="M654.9,488.7c-0.8-0.7-0.8-1.4-1-2.2C655,487.2,655,487.2,654.9,488.7z"/>
	<path d="M650.2,532.7c-0.1,0.5-0.1,0.9-0.2,1.5C649.5,533.5,649.7,533,650.2,532.7L650.2,532.7z"/>
	<path d="M650.6,528.5c-0.1-0.2-0.2-0.4-0.2-0.6c0-0.1,0.1-0.2,0.1-0.3c0.1,0.1,0.3,0.2,0.3,0.4
		C650.8,528.2,650.7,528.3,650.6,528.5z"/>
	<path d="M653.5,493.1c0.1,0.2,0.2,0.4,0.2,0.6c0,0-0.1,0.1-0.2,0.2c-0.1-0.2-0.2-0.4-0.2-0.5C653.3,493.3,653.4,493.2,653.5,493.1z
		"/>
	<path d="M650.3,532.7c0-0.3,0-0.6,0-0.3C650.5,532.2,650.3,532.4,650.3,532.7L650.3,532.7z"/>
	<path d="M663.7,282.3c-1.6,0.9-2.5,2.4-3.1,4.1c-0.7,1.8-1,3.8-2.6,6c0.4-3.9,1.1-7.1,3.1-9.8c0.3-0.4,1-0.7,1.5-0.8
		C663,281.8,663.4,282.2,663.7,282.3L663.7,282.3z"/>
	<path d="M668.1,266c-0.1-2.3,1.4-3.8,1.9-5.6c0.4-1.7,0.8-3.4,1.2-5c0.7,2,0.8,3.3,0.1,5.3C670.7,262.6,670.2,264.6,668.1,266z"/>
	<path d="M673.4,284.2c0.9,1.7,1,3.2,0.8,4.7c-0.3,2.4-0.2,4.9-1.9,7.5C672.7,292.1,673,288.3,673.4,284.2z"/>
	<path d="M669.4,275.9c-1,2.3-2.7,4.3-5,5.7l0.1,0.1C665.5,279.2,667.2,277.3,669.4,275.9L669.4,275.9z"/>
	<path d="M642.2,280.6c-1.5-0.7-1.5-0.7-2.3-2.5C641.2,278.7,641.9,279.5,642.2,280.6z"/>
	<path d="M655.2,298.6c0.3-1.1,0.6-2.2,0.9-3.4C656.8,296.6,656.8,296.6,655.2,298.6z"/>
	<path d="M661.5,266.4c1.2-0.4,2.4-0.5,4.2,0C663.9,266.7,662.7,266.9,661.5,266.4z"/>
	<path d="M671.9,302.2c0.4,1.3,0.5,2.6,0,4.3C671.3,304.9,671.5,303.6,671.9,302.2z"/>
	<path d="M649.4,308.9c0.9,0.6,1.4,1.2,1.3,2.2C649.8,310.5,649.8,310.5,649.4,308.9z"/>
	<path d="M656,301.3c0.1,0.3,0.3,0.6,0.3,0.8c0,0.2-0.4,0.3-0.6,0.5c-0.1-0.3-0.2-0.6-0.2-0.9C655.5,301.6,655.8,301.5,656,301.3z"
		/>
	<path d="M639.8,250.8c0.3,0.2,0.6,0.3,0.7,0.6c0.1,0.2-0.2,0.5-0.3,0.7c-0.2-0.2-0.5-0.4-0.7-0.6
		C639.5,251.3,639.7,251.1,639.8,250.8z"/>
	<path d="M638.1,288.7c-1-0.2-1.2-0.8-1.1-1.9C637.8,287.3,638.2,287.9,638.1,288.7L638.1,288.7z"/>
	<path d="M642,304.2c0.8-0.6,1.2-0.2,1.5,0.6C642.7,305.3,642.2,305.1,642,304.2z"/>
	<path d="M656.5,306c-0.1,0.1-0.3,0.1-0.4,0.2c0-0.2,0-0.4,0-0.6c0-0.1,0.1-0.1,0.2-0.2C656.3,305.7,656.4,305.9,656.5,306z"/>
	<path d="M640.9,291c0.2,0,0.4,0,0.6,0c0.1,0,0.2,0.1,0.3,0.1c-0.1,0.1-0.3,0.3-0.4,0.2C641.2,291.3,641.1,291.1,640.9,291
		L640.9,291z"/>
	<polygon points="653.1,315.1 652.9,315 653,315.2 	"/>
	<path d="M663.8,282.4c-0.1-0.6,0.1-0.8,0.7-0.8l-0.1-0.1C664.2,281.8,664,282.1,663.8,282.4L663.8,282.4z"/>
	<path d="M644.9,282.4c0.1,0.1,0.2,0.2,0.2,0.3c0,0.1-0.2,0.2-0.2,0.2c-0.1-0.1-0.2-0.2-0.2-0.3
		C644.6,282.6,644.8,282.5,644.9,282.4z"/>
	<path d="M669.5,276c0.1-0.2,0.2-0.4,0.3-0.6C670.2,275.9,669.8,275.9,669.5,276L669.5,276z"/>
	<path d="M641,290.9c-0.1-0.1-0.2-0.2-0.3-0.3c0.1,0,0.1,0.1,0.2,0.1C640.9,290.8,640.9,290.9,641,290.9L641,290.9z"/>
	<path d="M638,288.8c0.1,0.1,0.2,0.2,0.4,0.3c-0.1,0-0.2,0-0.2-0.1C638.1,289,638.1,288.8,638,288.8L638,288.8z"/>
	<path d="M653.3,171.1c0.3-1.2,1-1.8,1.8-2.2c2.6-0.9,5.3-0.9,8.1-0.3c0.3,0.1,0.6,0.3,0.9,0.6c0.1,0.1,0.3,0.5,0.2,0.6
		c-0.1,0.3-0.3,0.7-0.6,0.8c-0.3,0.2-0.7,0.2-1,0.1c-0.9-0.1-1.9-0.3-2.8-0.5c-1.6-0.3-3-0.3-4.5,0.5
		C654.8,171.1,654.1,171,653.3,171.1z"/>
	<path d="M662,172.1c0.1,0.4,0.3,0.8,0.3,1.1c0,0.3-0.1,0.7-0.1,1.1c-1.6,1.4-3.4-0.1-5.4,0.6c0.3-0.7,0.4-1,0.6-1.2
		C658.7,172.6,660.3,172.3,662,172.1z"/>
	<path d="M678,206.2c-1.1-1.8-1.1-3.8-1-5.7c0-0.3,0.4-0.5,0.7-0.9C679,201.8,678.9,204,678,206.2z"/>
	<path d="M638.3,187.9c1.3,3,1.6,5.6,4,7c-0.3,0.9-0.8,0.5-1.2,0.3C638.8,193.7,637.3,191.8,638.3,187.9z"/>
	<path d="M665.1,240.4c-2.2-1.3-3.4-3-4.6-4.6c0.3-0.6,0.7-0.5,1.2-0.3c1.4,0.9,2.7,1.9,3.5,3.4
		C665.3,239.2,665.1,239.7,665.1,240.4z"/>
	<path d="M689.7,110.6c-0.7-2.1-1.2-3.8,0.2-5.8C690.9,106.8,690.8,108.5,689.7,110.6z"/>
	<path d="M683.1,164.8c0-1.8,0.7-3.4,1.5-4.9c0.7,0,0.9,0.4,0.8,0.9c-0.3,1-0.5,2-1,3c-0.2,0.4-0.9,0.7-1.3,1L683.1,164.8z"/>
	<path d="M652.4,201.7c-2.1,0-3.6-0.4-4.8-1.6c-0.1-0.1,0.1-0.4,0.2-0.8C649.3,199.7,650.8,200.4,652.4,201.7z"/>
	<path d="M632.1,190.6c-0.2,1.6-0.2,1.6-1.7,3.6C630.4,192.4,630.4,192.4,632.1,190.6z"/>
	<path d="M640.6,197.3c1.1,0.8,1.5,2,1.8,3.5C640.7,199.9,641.1,198.4,640.6,197.3z"/>
	<path d="M688.3,115.3c0.1-1.2,0.1-2.3,1.3-3C689.4,114.1,689.4,114.1,688.3,115.3z"/>
	<path d="M667.8,217.3c0.3,0.7,0.6,1.3,0.9,2c-0.8,0.2-0.9-0.4-1-0.7c-0.2-0.3-0.2-0.8-0.3-1.2C667.5,217.4,667.6,217.4,667.8,217.3
		z"/>
	<path d="M654.7,221.9c-0.3-0.6-0.6-1.1-0.8-1.7c0-0.1,0.2-0.4,0.4-0.5c0.2,0,0.5,0.1,0.5,0.2c0.1,0.6,0.2,1.3,0.2,1.9
		C654.9,221.8,654.8,221.9,654.7,221.9z"/>
	<path d="M683.1,164.7c-0.5,0.5-1.1,1-2,1.8c0.1-0.8,0.1-1.1,0.2-1.4c0.5-0.7,1.2-0.3,1.8-0.3L683.1,164.7z"/>
	<path d="M666.2,215.4c-0.6-0.7-1.2-1.1-0.7-2.1C666.1,213.9,666.6,214.4,666.2,215.4z"/>
	<path d="M646,184.6c-0.8-0.3-1.1-0.3-1.3-0.5c-0.1,0,0.1-0.4,0.1-0.6C645.1,183.7,645.4,183.9,646,184.6z"/>
	<path d="M677.8,194.2c0.1,0.4,0.1,0.8,0.1,1.2c0,0.1-0.3,0.2-0.4,0.3c0,0-0.2-0.2-0.2-0.2c0-0.4,0.1-0.8,0.1-1.2
		C677.5,194.2,677.7,194.2,677.8,194.2z"/>
	<path d="M679.8,167.3c-0.2,0.2-0.4,0.5-0.6,0.7c-0.2-0.2-0.4-0.4-0.6-0.6c0.2-0.2,0.4-0.4,0.6-0.5
		C679.3,166.8,679.5,167.1,679.8,167.3z"/>
	<path d="M682.6,97.5c0.1,0,0.1,0.1,0.2,0.1c-0.1,0.1-0.2,0.1-0.3,0.2C682.6,97.7,682.6,97.6,682.6,97.5z"/>
	<path d="M647.3,185.6c0.1,0,0.2-0.1,0.3-0.1c0.1,0,0.2,0.1,0.3,0.2c-0.2,0.1-0.3,0.1-0.5,0.2C647.3,185.8,647.3,185.7,647.3,185.6z
		"/>
	<path d="M666.6,242.4c-0.2-0.1-0.4-0.2-0.5-0.4c0,0,0.1-0.2,0.1-0.3C666.3,242,666.4,242.2,666.6,242.4L666.6,242.4z"/>
	<path d="M629.5,181.8c0.2,0.1,0.4,0.2,0.5,0.3C629.5,182.5,629.6,182,629.5,181.8L629.5,181.8z"/>
	<path d="M642.3,181.1c0.2,0.1,0.3,0.2,0.5,0.2C642.4,181.7,642.3,181.4,642.3,181.1L642.3,181.1z"/>
	<polygon points="656.9,232 657,232.2 656.8,232.2 	"/>
	<polygon points="678.3,190.2 678.3,189.9 678.4,190 	"/>
	<polygon points="654.1,230.5 654.2,230.7 654,230.7 	"/>
	<path d="M531.9,90.1c-1.9,0.6-2.8,0.2-3.7-0.5C529.4,89,530.2,90,531.9,90.1z"/>
	<path d="M523.9,87.7c0.8,0.3,1.6,0.6,3,1.1C525.2,89.1,524.5,88.7,523.9,87.7L523.9,87.7z"/>
	<path d="M565.3,12c-0.2,0-0.4,0-0.6-0.1c-0.1,0-0.2-0.1-0.2-0.2c0.2-0.1,0.4-0.2,0.5-0.2C565.1,11.7,565.2,11.9,565.3,12L565.3,12z
		"/>
	<path d="M536.6,90.9c0-0.1,0.1-0.1,0.1-0.2c0.1,0.1,0.1,0.2,0.2,0.2C536.8,91,536.7,90.9,536.6,90.9z"/>
	<path d="M524,87.6c-0.2-0.2-0.5-0.5-0.7-0.7l-0.1,0.1C523.7,87,524,87.2,524,87.6L524,87.6z"/>
	<path d="M565.3,12.1c0.1,0,0.2,0.1,0.3,0.1C565.5,12.1,565.4,12.1,565.3,12.1L565.3,12.1z"/>
	<path d="M604.1,476.6c-0.7-2,0.1-3.8,0.8-5.5c0.7-1.7,1.1-3.6,2.6-4.9c0.3,0.3,0.6,0.5,0.6,0.7
		C607.1,470.3,605.9,473.5,604.1,476.6z"/>
	<path d="M619.8,468.6c0.8,0.4,1.3,0.9,0.6,1.8C619.4,470,619.3,469.4,619.8,468.6z"/>
	<path d="M603.7,481.6c-0.1,0.4-0.1,0.9-0.3,1.3c0,0.1-0.4,0.1-0.5,0.1c0,0-0.1-0.2-0.1-0.3c0.2-0.4,0.3-0.8,0.5-1.2
		C603.5,481.5,603.6,481.6,603.7,481.6z"/>
	<path d="M597.2,547.2c0.1,0.4,0.3,0.6,0.3,0.9c0,0.2-0.2,0.4-0.3,0.7c-0.1-0.4-0.3-0.6-0.3-0.9C596.8,547.7,597,547.5,597.2,547.2z
		"/>
	<path d="M616.1,461.2c0.5,0.7,0.7,0.9,0.8,1.2c-0.2,0.1-0.4,0.1-0.6,0.2C616.3,462.3,616.2,462,616.1,461.2z"/>
	<path d="M598.8,499c-0.1-0.1-0.1-0.1-0.2-0.2c0.1,0,0.2-0.1,0.3-0.1c0.1,0,0.1,0.1,0.2,0.2C599,498.9,598.9,498.9,598.8,499z"/>
	<path d="M618.7,465.1c-0.1,0.1-0.1,0.2-0.2,0.2c-0.1-0.2-0.2-0.5-0.3-0.7c0,0,0.2-0.1,0.2-0.1C618.6,464.7,618.7,464.9,618.7,465.1
		z"/>
	<path d="M282.4,385.7c-0.3,0.8-0.4,1.6-0.9,2.2c-1.6,2.3-3.2,4.6-4.9,6.9c-0.7,1-1.2,2-1.3,3.2c-0.9,7.4-1.8,14.8-2.8,22.1
		c0,0.2-0.2,0.4-0.4,0.8c-0.7-2.2,0-4.3,0-6.2c-0.6-0.7-1.1-0.3-1.6,0c-1,0.5-1.6,1.8-3,1.7c0,0,0.1,0.1,0.1,0.1
		c0.9-2,2.9-2.6,4.8-3.7c1.4-4.7,1.4-9.7,2.1-14.6c0.6-4.8,1-9.7,1.5-14.8c0.8,3.4-0.1,6.7,0.3,10.2c0.6-0.6,1-1,1.3-1.4
		c1.2-1.6,2.3-3.3,3.5-5C281.4,386.6,282,386.2,282.4,385.7L282.4,385.7z"/>
	<path d="M266,340.9c-0.4,3.8-0.2,7.6,0.4,11.4c0.4,2.5,0.6,4.9,0.3,8.1c-0.7-1-1.1-1.4-1.2-1.9c-0.3-1.6-0.4-3.3-0.6-4.9
		c-0.6-4.1-1.3-8.2-2-12.3c-0.2-1.2-0.5-2.3-0.1-3.8c1.5,1.8,1,4.1,2.2,5.7C265.9,342.8,265,341.3,266,340.9L266,340.9z"/>
	<path d="M226.5,380.6c-0.2,0.5-0.4,1-0.7,1.5c-3,4.8-5.7,9.8-8.2,14.9c-0.6,1.3-1.4,2.4-2.3,3.6c-0.3,0.4-0.9,0.6-1.5,0.7
		c1.4-1.9,2.1-4,3.1-6.1c1.9-3.8,3.8-7.6,5.8-11.4C223.5,382.4,224.7,381.2,226.5,380.6z"/>
	<path d="M249.2,330.6c2.8,3.9,4.2,8.4,5.1,13.1c0.5,2.5,0.9,5.1,0.1,7.7c-1.1-1-1-1-1.5-4.9c-0.2-1.9-0.6-3.7-1.1-5.6
		c-0.4-1.7-0.9-3.4-1.4-5.1C250,334,249,332.5,249.2,330.6z"/>
	<path d="M217.6,355.9c-0.4,3.5-0.7,7.1-1.2,10.6c-0.6,4.5-1.3,8.9-2.2,13.3c0-0.8-0.1-1.6,0-2.4c0.9-6.8,1.9-13.6,2.8-20.4
		C217,356.6,217.4,356.3,217.6,355.9L217.6,355.9z"/>
	<path d="M220.4,397.2c-0.4,5.7,0.3,11.4-0.3,17.1c-0.3-2.9-0.6-5.8-0.8-8.8C219.2,402.7,219.2,399.9,220.4,397.2L220.4,397.2z"/>
	<path d="M218.9,417.9c-0.2,1.9-0.5,3.7-0.7,5.6c-0.4,2.7-0.8,5.4-1.3,8c-0.1,0.4-0.2,0.8-0.5,1.6c-0.4-0.7-0.7-0.9-0.6-1.2
		c0.5-4.6,1.5-9.1,2.8-13.5C218.6,418.2,218.9,418.1,218.9,417.9L218.9,417.9z"/>
	<path d="M234.5,338.8c0.6-0.1,0.9-0.1,1.4-0.1c0.1,1,0.1,2-0.9,2.9c-0.7-1.1-1-2.2-1.1-3.4c-0.2-4.1-0.3-8.2,0.7-12.3
		C234.5,330.2,234.5,334.4,234.5,338.8z"/>
	<path d="M283.4,369.7c-0.1-2.8-0.1-5.1,0.2-7.5c0.9,1.5,0.9,1.5,0.8,3.1C284.4,366.7,284.7,368.1,283.4,369.7z"/>
	<path d="M277.7,336.7c1.7,1.7,2.6,3.3,2.7,5.6C278.6,340.8,277.9,339.4,277.7,336.7z"/>
	<path d="M273.8,344.5c0.9,0.5,0.7,1.4,0.9,2.2c0.6,2,1.2,4,1.3,6.4C274.8,350.4,274.1,347.5,273.8,344.5L273.8,344.5z"/>
	<path d="M273.9,429.3c0.8-2.5,2-4.9,3.5-7.1l-0.1-0.1C277,424.8,275.8,427.2,273.9,429.3L273.9,429.3z"/>
	<path d="M228.6,328.8c0,2.3,0,4.6,0,6.9c0,0-0.1,0-0.1,0c0-2.3,0-4.6,0-6.9C228.6,328.8,228.6,328.8,228.6,328.8z"/>
	<path d="M238.9,424.9c-2.3-0.6-3.4-1.3-5-2.9l-0.1,0.1C236.2,422.7,237.3,423.3,238.9,424.9L238.9,424.9z"/>
	<path d="M263.2,420c0.7-1.5,1.9-2.5,3.5-2.9l-0.1-0.1C266,418.6,264.8,419.5,263.2,420L263.2,420z"/>
	<path d="M277.1,375.2c0.1,1,0.4,2.1-0.5,3.2C275.9,377,276.7,376.1,277.1,375.2z"/>
	<path d="M226.7,417.9c1.6-0.1,2.7,0.8,3.6,2.1l0.1-0.1C228.8,419.9,227.8,418.9,226.7,417.9L226.7,417.9z"/>
	<path d="M273.3,341.4c-1.2-0.8-0.9-2.2-1.3-3.4C273,338.9,273.1,340.2,273.3,341.4L273.3,341.4z"/>
	<path d="M230.3,420c1.5,0.2,2.8,0.7,3.6,2.1l0.1-0.1C232.4,422,231.2,421.3,230.3,420L230.3,420z"/>
	<path d="M227.8,342.2c0-0.5,0-1.1,0-1.6c0,0,0.1,0,0.1,0C227.9,341.1,227.9,341.6,227.8,342.2C227.9,342.2,227.8,342.2,227.8,342.2
		z"/>
	<path d="M217.6,355.9c0-1,0-2,0-3C218.1,353.9,218.2,354.9,217.6,355.9L217.6,355.9z"/>
	<path d="M263.1,419.9c-0.4,0.5-0.8,0.9-1.5,1.6C261.8,420.2,262.4,420,263.1,419.9L263.1,419.9z"/>
	<path d="M282.5,385.8c0.3-0.6,0.5-1.1,1-2.1C283.5,385,283.2,385.5,282.5,385.8L282.5,385.8z"/>
	<path d="M273.2,341.5c0.8,0.9,0.7,1.9,0.6,3l0.1-0.1C272.9,343.6,273.1,342.5,273.2,341.5L273.2,341.5z"/>
	<path d="M281.7,410c-0.2,0.9,0.2,2-0.8,2.7l0.1,0.1C281.1,411.9,280.8,410.8,281.7,410L281.7,410z"/>
	<path d="M278.2,420.7c0-0.8-0.1-1.6,0.7-2.1l-0.1-0.1C278.8,419.3,279,420.1,278.2,420.7L278.2,420.7z"/>
	<path d="M219,417.9c0-0.5,0.1-1.1,0.1-1.8C219.8,416.9,219.4,417.4,219,417.9L219,417.9z"/>
	<path d="M280.3,415c-0.1,0.7,0,1.5-0.7,2.1l0.1,0.1c0.1-0.8-0.4-1.7,0.7-2.1L280.3,415z"/>
	<path d="M280.9,412.8c0,0.8,0.1,1.6-0.7,2.3l0.1,0.1C280.4,414.3,280.1,413.4,280.9,412.8L280.9,412.8z"/>
	<path d="M281.8,410.1c0-0.5,0.1-1,0.1-1.7C282.4,409.2,282.1,409.6,281.8,410.1L281.8,410.1z"/>
	<path d="M220.5,397.3c0-0.5,0.1-1,0.1-1.6C221,396.4,220.7,396.8,220.5,397.3L220.5,397.3z"/>
	<path d="M222.9,360.8c0,0.2,0,0.5,0,0.7c0,0-0.1,0-0.1,0C222.8,361.2,222.8,361,222.9,360.8C222.8,360.8,222.9,360.8,222.9,360.8z"
		/>
	<path d="M218.7,349.6c-0.1,0.7-0.1,0.9-0.1,1.2c0-0.2-0.1-0.3-0.1-0.5C218.5,350.2,218.5,350.1,218.7,349.6z"/>
	<path d="M256.6,331.1c0.3,0,0.6,0.1,0.9,0.1c0,0,0,0.1,0,0.1c-0.3,0-0.6-0.1-0.9-0.1C256.6,331.2,256.6,331.1,256.6,331.1z"/>
	<path d="M254.7,330.6c-0.3,0-0.6,0-0.9,0c0-0.1,0-0.1,0-0.2c0.3,0,0.6,0,0.9,0C254.7,330.5,254.7,330.5,254.7,330.6z"/>
	<path d="M258.8,423.5c0,0.3-0.1,0.6-0.1,0.4C258.6,424,258.7,423.8,258.8,423.5L258.8,423.5z"/>
	<polygon points="223.5,358.6 223.7,358.7 223.6,359 	"/>
	<path d="M278.1,420.6c0,0.6,0.1,1.3-0.7,1.5l0.1,0.1C277.5,421.6,277.4,420.9,278.1,420.6L278.1,420.6z"/>
	<path d="M278.9,418.6c0-0.6-0.1-1.3,0.8-1.4l-0.1-0.1C279.5,417.6,279.6,418.3,278.9,418.6L278.9,418.6z"/>
	<path d="M238.9,425c0.7-0.1,1.2-0.1,1.4,0.7l0.1-0.1C239.7,425.8,239.1,425.7,238.9,425L238.9,425z"/>
	<path d="M240.3,425.7c0.6-0.1,1.2,0,1.4,0.7l0.1-0.1C241.2,426.4,240.5,426.5,240.3,425.7L240.3,425.7z"/>
	<path d="M222.6,426.4c0.2,0.5,0.3,1,0.5,1.5l0.1-0.1C223,427.3,222.8,426.8,222.6,426.4L222.6,426.4z"/>
	<path d="M241.7,426.4c0.2,0,0.4,0.1,0.6,0.1c0.1,0,0.1,0.1,0.2,0.2c-0.1,0.1-0.2,0.2-0.2,0.2C242.2,426.7,242,426.5,241.7,426.4
		L241.7,426.4z"/>
	<path d="M256.8,428.5c0.1-0.3,0.1-0.6,0.1-0.4C257,428,256.9,428.2,256.8,428.5L256.8,428.5z"/>
	<path d="M256.7,428.4c-0.2,0.5-0.5,0.9-0.7,1.4l0.1,0.1C256.3,429.5,256.6,429,256.7,428.4L256.7,428.4z"/>
	<path d="M256,429.8c-0.1,0.3-0.1,0.5-0.1,0.3C255.8,430.3,255.9,430.1,256,429.8L256,429.8z"/>
	<path d="M252,329.8c-0.1,0-0.2,0.1-0.3,0c-0.1,0-0.1-0.1-0.2-0.1c0.1,0,0.2-0.1,0.3,0C251.9,329.7,252,329.8,252,329.8z"/>
	<path d="M258,326.7c0.3,0,0.6,0.1,0.3,0C258.6,326.8,258.3,326.7,258,326.7L258,326.7z"/>
	<path d="M226.1,430.7c0.2,0.2,0.4,0.4,0.6,0.7l0,0C226.6,431.1,226.4,430.9,226.1,430.7L226.1,430.7z"/>
	<polygon points="226.7,431.4 226.9,431.5 226.8,431.3 	"/>
	<path d="M266.8,417.1c-0.1-0.6,0.2-0.7,0.7-0.7c0,0-0.1-0.1-0.1-0.1C267.5,416.9,267.2,417.1,266.8,417.1
		C266.7,417.1,266.8,417.1,266.8,417.1z"/>
	<path d="M226.8,417.8c-0.1-0.1-0.2-0.2-0.3-0.4c0.1,0,0.2,0.1,0.2,0.1C226.7,417.7,226.7,417.8,226.8,417.8L226.8,417.8z"/>
	<polygon points="266.1,341 266.1,340.7 266,340.9 	"/>
	<path d="M223.1,427.9c0.3,0.2,0.5,0.4,0.8,0.7l0.1-0.1C223.7,428.2,223.4,428,223.1,427.9L223.1,427.9z"/>
	<path d="M224.7,429.2c-0.2-0.2-0.5-0.5-0.7-0.7l-0.1,0.1C224.1,428.8,224.3,429,224.7,429.2L224.7,429.2z"/>
	<path d="M225.4,429.9c-0.2-0.2-0.5-0.5-0.7-0.7l-0.1,0.1C224.8,429.5,225.1,429.7,225.4,429.9L225.4,429.9z"/>
	<path d="M273.8,429.2C273.9,429.2,273.9,429.2,273.8,429.2L273.8,429.2z"/>
	<path d="M226.2,430.6c-0.3-0.3-0.5-0.5-0.8-0.8l-0.1,0.1C225.6,430.2,225.8,430.5,226.2,430.6L226.2,430.6z"/>
	<path d="M258.9,423.6C259.2,423.2,258.8,423.5,258.9,423.6L258.9,423.6z"/>
	<polygon points="271.7,424.3 271.8,424.2 271.6,424.2 	"/>
	<polygon points="221.8,425.6 221.7,425.5 221.8,425.6 	"/>
	<path d="M222.7,426.3c-0.3-0.2-0.5-0.5-0.8-0.7l-0.1,0.1C222,425.9,222.3,426.1,222.7,426.3L222.7,426.3z"/>
	<path d="M262.8,291.1c-0.1-0.3-0.3-0.5-0.3-0.7c0.3-2.6,1.1-5.1,2.2-7.5c0.5-1.2,1.2-2.3,2.8-2.2c0.5,0,1-0.5,1.4-0.8
		c1.4-1.5,2.7-3,4-4.5c0.4-0.4,0.8-0.7,1.7-1.5c-0.3,0.9-0.3,1.3-0.5,1.5c-1.2,1.5-2.4,2.9-3.7,4.3c-0.6,0.7-1.3,1.5-2.1,1.8
		c-1.7,0.7-2.4,2.1-3,3.7C264.5,287.1,264.1,289.2,262.8,291.1z"/>
	<path d="M276.9,295.2c-0.1-0.9-0.1-1.3-0.1-1.6c0.4-3.3,0.8-6.6,1.2-10.2C279.2,286.6,278.8,290.9,276.9,295.2z"/>
	<path d="M275.5,254.4c1.2,3,0.4,5.6-0.9,8.2c-0.5,1.1-0.5,1.1-2,1.9c-0.1-1.3,0.7-2.3,1.1-3.3c0.4-1.1,1-2.2,1.3-3.3
		C275.3,256.7,275.4,255.5,275.5,254.4z"/>
	<path d="M259.7,297.4c0.3-1.1,0.7-2.2,1.1-3.4C261.4,295.4,261.4,295.5,259.7,297.4z"/>
	<path d="M276.4,305.2c-0.5-1.5-0.4-3-0.2-5.2C277,302.3,276.6,303.8,276.4,305.2z"/>
	<path d="M243.2,288.3c-1.4-0.7-1.6-1.6-2-2.9C242.5,286.2,242.7,287.1,243.2,288.3z"/>
	<path d="M244.6,277.4c1.3,0.2,1.8,1.2,2.5,2.2C245.5,279.6,245.3,279.4,244.6,277.4L244.6,277.4z"/>
	<path d="M238.8,258c0.3-0.3,0.5-0.5,0.7-0.5c0.3,0.1,0.7,0.2,0.9,0.5c0.2,0.2,0.2,0.6,0.3,0.9c-0.3,0-0.7,0.2-0.9,0.1
		C239.3,258.7,239.1,258.3,238.8,258z"/>
	<path d="M268.8,265.7c-0.9,0-1.8,0-2.7,0C266.8,264.4,267.8,265.4,268.8,265.7z"/>
	<path d="M254.4,308.2c0.3,0.3,0.6,0.6,0.8,1c0.1,0.3,0.1,0.7,0.1,1C254.3,310,254.1,309.3,254.4,308.2z"/>
	<path d="M246.4,262.2c-0.3-0.1-0.6-0.2-0.8-0.4c-0.2-0.2-0.1-0.6-0.1-0.9c0.2,0,0.5-0.1,0.6,0c0.3,0.3,0.4,0.7,0.6,1.1
		C246.7,261.9,246.5,262.2,246.4,262.2z"/>
	<path d="M246.3,290c-0.3,0-0.6,0-0.9,0c0-0.1,0-0.3,0-0.4c0.3,0.1,0.6,0.1,0.9,0.2C246.3,289.9,246.3,289.9,246.3,290z"/>
	<path d="M260.9,301c-0.1,0.2-0.3,0.4-0.4,0.6c-0.1-0.2-0.2-0.4-0.2-0.5c0-0.2,0.2-0.4,0.3-0.5C260.6,300.7,260.7,300.8,260.9,301z"
		/>
	<path d="M260.6,306c-0.1-0.7-0.2-1-0.2-1.3c0-0.1,0.2-0.2,0.4-0.2c0.1,0.1,0.2,0.2,0.1,0.3C260.9,305,260.8,305.2,260.6,306z"/>
	<path d="M247.9,303.7c-0.4,0-0.7,0.1-1,0c-0.1,0-0.2-0.3-0.3-0.5c0.3-0.1,0.6-0.2,0.9-0.2C247.6,303.1,247.7,303.4,247.9,303.7z"/>
	<path d="M252.5,264.2c-0.2,0.3-0.3,0.4-0.5,0.5c-0.2-0.2-0.4-0.4-0.6-0.6c0.1-0.1,0.2-0.2,0.3-0.1C252,264,252.2,264.1,252.5,264.2
		z"/>
	<path d="M249.3,281.2c0.1,0.2,0.1,0.4,0.2,0.5c0,0.1-0.1,0.1-0.2,0.2c-0.1-0.2-0.1-0.4-0.2-0.6
		C249.1,281.3,249.2,281.2,249.3,281.2z"/>
	<polygon points="274.5,249.5 274.6,249.6 274.6,249.5 	"/>
	<polygon points="244.7,277.3 244.4,277.2 244.6,277.4 	"/>
	<path d="M161.3,233.4c-1.9,0.4-1.9,0.3-3.6-0.9c0.6,0.2,1.2,0.4,1.9,0.5C160.1,233.2,160.6,233.3,161.3,233.4z"/>
	<path d="M153.3,231c0.8,0.3,1.5,0.6,2.5,0.9C154.3,232.2,154.3,232.2,153.3,231L153.3,231z"/>
	<path d="M191.8,154.1c0.2,0,0.4,0,0.6,0c0.1,0,0.2,0.1,0.3,0.1c-0.1,0.1-0.4,0.3-0.4,0.2C192.1,154.4,192,154.2,191.8,154.1
		L191.8,154.1z"/>
	<path d="M191.9,154C191.6,153.7,191.8,154,191.9,154L191.9,154z"/>
	<path d="M189.6,152.6c0.1,0.1,0.2,0.1,0.4,0.2c-0.1,0-0.1,0-0.2,0C189.8,152.7,189.8,152.6,189.6,152.6L189.6,152.6z"/>
	<path d="M152.6,230.3c0.2,0.2,0.5,0.5,0.7,0.7l0.1-0.1C152.8,231,152.6,230.7,152.6,230.3L152.6,230.3z"/>
	<path d="M212.3,465.2c0.1,0.3,0.3,0.7,0.2,1c-1.2,3.2-2.1,6.5-3.6,9.5c-0.9-0.1-0.8-0.7-0.7-1c0.5-3.3,1.8-6.4,3.5-9.2
		C211.7,465.3,212.1,465.3,212.3,465.2z"/>
	<path d="M224.1,467.2c1,0.5,1.3,1.2,0.9,2.3C224.1,469,223.9,468.3,224.1,467.2z"/>
	<path d="M201.3,547.9c0-0.7,0.1-1.3,0.1-2.5C202.3,546.7,202.6,547.3,201.3,547.9z"/>
	<path d="M220.6,461c0.2,0,0.5-0.2,0.6-0.1c0.2,0.1,0.2,0.4,0.3,0.5c-0.2,0-0.4,0.2-0.6,0.1C220.8,461.4,220.7,461.1,220.6,461z"/>
	<path d="M207.6,481.6c0-0.4,0.1-0.8,0.1-1.2c0.1,0,0.2,0,0.4,0c0,0.4,0.1,0.9,0.1,1.3C208,481.6,207.8,481.6,207.6,481.6z"/>
	<polygon points="222.8,495.8 222.8,495.5 222.9,495.5 	"/>
	<path d="M203.7,497.7c0,0.1-0.1,0.2-0.1,0.3c-0.1-0.1-0.2-0.2-0.2-0.3c0,0,0.1-0.1,0.2-0.2C203.6,497.5,203.7,497.6,203.7,497.7z"
		/>
	<polygon points="203,542 202.9,542 202.9,541.8 	"/>
	<path d="M223.2,463.9c-0.1,0.1-0.2,0.1-0.3,0.2c-0.1-0.2-0.2-0.4-0.2-0.6c0,0,0.2-0.1,0.3-0.2C223,463.6,223.1,463.7,223.2,463.9z"
		/>
	<path d="M257.6,465.9c2,2.7,2.6,6.4,1.7,10.9c-0.4-0.5-0.8-0.8-0.8-1.1c-0.5-2.9-1-5.8-1.5-8.7C256.9,466.5,257,466,257.6,465.9z"
		/>
	<path d="M254.1,543.6c1.4,2.2,0.5,3.8,0.3,5.3c-0.2,1.2-0.5,1.5-1.7,2.6C252.3,548.8,253.1,546.5,254.1,543.6z"/>
	<path d="M255,536c0.6,1.8,0.4,3-0.8,4.1C253.9,538.7,254,537.6,255,536z"/>
	<path d="M258.3,482.2c0-1.5,0-2.4,0-3.4C259.8,479.7,259.8,479.8,258.3,482.2z"/>
	<path d="M261.9,451.5c-2.6,1-2.6,1-3.3,0.1c0.8-0.2,1.6-0.4,2.4-0.5C261.1,451,261.3,451.2,261.9,451.5z"/>
	<path d="M255.6,526.8c-0.1,0.2-0.3,0.3-0.4,0.5c-0.1-0.1-0.2-0.4-0.2-0.4c0.1-0.1,0.3-0.2,0.5-0.3
		C255.5,526.6,255.5,526.7,255.6,526.8z"/>
	<path d="M258.9,485.6c1.1,0.4,0.9,1.1,0.1,2C259,486.7,259,486.1,258.9,485.6L258.9,485.6z"/>
	<path d="M258.3,492.5c-0.1,0-0.2,0.1-0.3,0.1c0-0.2-0.1-0.3-0.1-0.5c0.1,0,0.2,0,0.3,0.1C258.3,492.3,258.3,492.4,258.3,492.5z"/>
	<path d="M254.6,531.9c0-0.3,0.1-0.6,0.2-1.6c0.1,0.8,0.2,1.1,0.1,1.2C254.9,531.6,254.7,531.7,254.6,531.9L254.6,531.9z"/>
	<path d="M254.5,531.8c0,0.3,0,0.6,0,0.3C254.4,532.3,254.5,532.1,254.5,531.8L254.5,531.8z"/>
	<path d="M259,485.5c-0.1,0-0.2,0-0.3,0C258.7,485.5,258.8,485.6,259,485.5L259,485.5z"/>
	<path d="M201.1,285.2c-0.2-0.2-0.5-0.5-0.7-0.7c0-0.8-0.1-1.6-0.1-2.4c0-1.2,0.5-1.5,1.8-1.3c0.2,0,0.4,0.2,0.7,0.2l-0.1-0.1
		c0.1,1,0.2,2.1,0.2,3.1C202.7,285,202.1,285.5,201.1,285.2z"/>
	<path d="M214.6,286c0.8-0.2,1.4,0.2,1.7,0.8c0.3,0.6,0.4,1.3,0.4,2c0,0.6-0.2,1.1-0.9,1.3c-0.4,0.1-1-0.4-1.1-1.1
		C214.7,288,214.7,286.9,214.6,286L214.6,286z"/>
	<path d="M223.7,275.6c0.6,2,0.4,3.8,0.1,6.1c-0.5-0.5-1-0.8-1-1.1c-0.1-1.4,0-2.8,0.1-4.2C222.8,276.1,223.3,275.9,223.7,275.6z"/>
	<path d="M202.7,281c-0.3-1.1-0.4-2.2,0.1-3.4c1.3,1.6,1.3,1.8-0.2,3.3L202.7,281z"/>
	<path d="M205.4,269.6c-0.1,1.1-0.2,1.7-0.4,2.7C204.6,271.1,204.6,271.1,205.4,269.6z"/>
	<path d="M204.4,273.6c0.7,0.9,0.7,1.8,0,2.9C203.7,275.4,203.7,274.6,204.4,273.6z"/>
	<path d="M225.7,223.6c-0.8-0.9-0.7-1.9-0.2-3C226.4,221.7,226.4,221.7,225.7,223.6z"/>
	<path d="M224,271.7c0-0.6,0-1.2,0-1.8c0.1,0,0.2,0,0.3,0c0,0.6,0,1.2,0,1.8C224.3,271.7,224.2,271.7,224,271.7z"/>
	<path d="M205.8,266.5c-0.2,0.3-0.4,0.5-0.6,0.8c0,0-0.2,0-0.2-0.1c0.1-0.3,0.1-0.6,0.2-0.9c0,0,0.2-0.1,0.3-0.1
		C205.6,266.3,205.7,266.4,205.8,266.5z"/>
	<path d="M214.7,285.9c-0.8-0.5-1.1-1.1-0.2-2.1C214.5,284.7,214.6,285.3,214.7,285.9L214.7,285.9z"/>
	<polygon points="224.2,230.4 224.1,230.1 224.3,230.2 	"/>
	<polygon points="225,225.5 225.1,225.7 224.8,225.7 	"/>
	<path d="M236.1,173.2c0.5,0.2,1,0.5,1.5,0.7c0.3,1.6,2.1,2.1,2.6,3.6c-1.2,0.6-1.2,0.6-1.5,2.1c0.7,0.5,1.5,0.9,2.2,1.5
		c0.6,0.4,0.4,1.4-0.3,1.8c-0.9,0.5-1.8,0.3-2.8,0c-0.5-2-0.7-4,0.7-5.8c-0.7-0.7-1.1-1.2-1.8-1.9c-0.4,0.9-0.8,1.5-0.9,2.1
		c0,0.4,0.4,0.8,0.6,1.3c0.5,0.9,0.6,1.8,0.1,2.9c-0.5-1-1-1.8-1.4-2.7c-0.9,0-1.3,0.3-1.1,1c0.1,0.6,0.9,1.2,0,1.9
		c-0.5-0.8-1-1.5-1.5-2.3C233.7,177.2,234.9,175.2,236.1,173.2z"/>
	<path d="M257.6,169.7c0.6-1.1,1.4-1.8,2.6-2.1c2.4-0.6,4.9-0.4,7.3-0.1c0.2,0,0.5,0.1,0.6,0.3c0.2,0.4,0.5,0.8,0.5,1.2
		c0,0.2-0.4,0.6-0.7,0.6c-0.6,0.1-1.2,0.1-1.7,0c-0.7-0.1-1.4-0.3-2.1-0.4c-1.4-0.3-2.8-0.3-4.1,0.5
		C259.4,170.1,258.6,170.4,257.6,169.7z"/>
	<path d="M266.9,173c-1.9,1-2.7,1-5.2,0.2c2-1.8,2-1.8,5-2C266.8,171.8,266.9,172.4,266.9,173z"/>
	<path d="M242.7,187.4c0.5,0.7,1,1.2,1,1.6c0.2,1.9,1.3,3.2,2.6,4.5c0.1,0.1,0.2,0.4,0.3,0.6c-1.8-0.4-2.4-0.8-3.5-2.3
		C242.2,190.5,242.2,189.2,242.7,187.4z"/>
	<path d="M236,185.4c0.9,0.4,1.9,0.7,2.8,1.2c0.9,0.5,1.8,0.3,2.6-0.2c0.3,1.2,0.2,1.8-0.6,1.8c-0.9,0-1.9-0.1-2.7-0.5
		C237.2,187.3,236.1,186.8,236,185.4L236,185.4z"/>
	<path d="M256,200.3c-1.7,0.2-3.1-0.3-4.2-1.8C254,198.5,254.5,198.8,256,200.3L256,200.3z"/>
	<path d="M246.2,199.4c-0.3-0.6-0.6-1.3-0.8-1.9c-0.2-0.5-0.3-1-0.2-1.6C246.1,196.9,246.6,197.9,246.2,199.4z"/>
	<path d="M236.8,189.1c-0.2,1.9-1,2.9-2.2,4.4C234.9,191.4,235.5,190.4,236.8,189.1z"/>
	<path d="M252.8,185.1c-0.4-0.1-0.7-0.2-0.9-0.3c-0.1-0.1-0.1-0.3-0.1-0.5c0.2,0.1,0.4,0.1,0.5,0.2
		C252.5,184.6,252.5,184.8,252.8,185.1z"/>
	<path d="M257.6,200.9c-0.6-0.2-1.3,0.1-1.6-0.6l-0.1,0.1C256.5,200.6,257,200.8,257.6,200.9L257.6,200.9z"/>
	<path d="M249.1,182.9c0.1-0.1,0.3-0.3,0.3-0.3c0.2,0,0.3,0.2,0.4,0.3c-0.1,0.1-0.2,0.2-0.2,0.2C249.5,183.1,249.3,183,249.1,182.9z
		"/>
	<path d="M241.7,222.5c0-0.3,0-0.5,0-0.8c4.4,1,8.8,1.8,13.2,2.3c1,0.1,1.9,0.8,2.8,1.3c0.3,0.2,0.7,0.7,0,1.3
		c-3.9-1.6-8.2-2.1-12.4-3.2C244.2,223.2,243.1,222.2,241.7,222.5z"/>
	<path d="M265.2,233.9c2.1,1.1,3.7,2.6,5,4.9c-0.7,0-1.3,0.2-1.6,0C266.8,237.4,265.4,235.5,265.2,233.9z"/>
	<path d="M261.8,231.4c-0.1,0-0.2,0.1-0.3,0.1c0-0.1-0.1-0.3-0.1-0.4c0.1,0,0.2,0,0.3,0.1C261.8,231.2,261.8,231.3,261.8,231.4z"/>
	<path d="M241.8,221.8c-0.3,0-0.6,0-0.9,0C241.3,221.8,241.5,221.8,241.8,221.8z"/>
	<path d="M271.1,240.9c-0.1,0-0.2,0-0.3-0.1C270.8,240.9,270.9,241,271.1,240.9L271.1,240.9z"/>
	<path d="M204.4,240.5c0.4,1.2,0.6,2.4,0,3.7c-0.2,0.3-1,0.5-1.2,0.2c-0.6-0.7-0.6-1.5-0.4-2.3c0.1-0.7,0.3-1.4,1.2-1.5
		C204.1,240.4,204.2,240.4,204.4,240.5z"/>
	<path d="M208.6,232.9c-0.3,0.2-0.5,0.4-0.7,0.7c-0.1-0.1-0.2-0.2-0.2-0.3c0-0.2,0.1-0.4,0.2-0.6
		C208.1,232.7,208.3,232.8,208.6,232.9z"/>
	<path d="M206.7,236.8c-0.1,0.1-0.3,0.2-0.4,0.2c0-0.2-0.1-0.4-0.1-0.6c0-0.1,0.1-0.1,0.2-0.2C206.5,236.5,206.6,236.6,206.7,236.8z
		"/>
</g>
</svg>
